{
DisplayStrings = (
"/reh-ar/dotlessbeh-ar.init/twodotshorizontalbelow-ar/yeh-ar.init/yeh-farsi/alef-ar/lam-ar/rial",
/rial
);
date = "2015-10-07 16:33:12 +0000";
familyName = "new Font";
fontMaster = (
{
ascender = 800;
capHeight = 700;
descender = -200;
guideLines = (
{
position = "{125, 611}";
},
{
locked = 1;
position = "{234, 106}";
},
{
locked = 1;
position = "{240, 0}";
},
{
locked = 1;
position = "{68, -55}";
},
{
locked = 1;
position = "{29, -34}";
},
{
locked = 1;
position = "{88, 682}";
}
);
id = "51F41761-070F-43EA-B302-C90910850260";
weightValue = 400;
xHeight = 500;
}
);
glyphs = (
{
glyphname = "hamza-ar";
lastChange = "2015-11-25 22:30:50 +0000";
layers = (
{
anchors = (
{
name = bottom;
position = "{165, -12}";
},
{
name = top;
position = "{185, 223}";
}
);
layerId = "51F41761-070F-43EA-B302-C90910850260";
name = Regular;
paths = (
{
closed = 1;
nodes = (
"173 100 OFFCURVE",
"154 127 OFFCURVE",
"148 136 CURVE",
"150 138 OFFCURVE",
"173 155 OFFCURVE",
"191 155 CURVE SMOOTH",
"195 155 OFFCURVE",
"211 150 OFFCURVE",
"219 132 CURVE",
"247 156 LINE",
"247 156 OFFCURVE",
"239 203 OFFCURVE",
"202 203 CURVE SMOOTH",
"160 203 OFFCURVE",
"115 142 OFFCURVE",
"112 136 CURVE",
"109 132 OFFCURVE",
"108 128 OFFCURVE",
"108 124 CURVE SMOOTH",
"108 84 OFFCURVE",
"143 71 OFFCURVE",
"143 71 CURVE",
"135 67 OFFCURVE",
"113 61 OFFCURVE",
"103 57 CURVE",
"70 6 LINE",
"78 0 LINE",
"120 21 OFFCURVE",
"184 45 OFFCURVE",
"263 58 CURVE",
"263 58 OFFCURVE",
"280 103 OFFCURVE",
"280 104 CURVE",
"258 100 OFFCURVE",
"239 97 OFFCURVE",
"212 90 CURVE"
);
}
);
width = 330;
}
);
unicode = 0621;
},
{
glyphname = "alef-ar";
lastChange = "2015-11-16 04:36:14 +0000";
layers = (
{
layerId = "51F41761-070F-43EA-B302-C90910850260";
name = Regular;
paths = (
{
closed = 1;
nodes = (
"78 655 OFFCURVE",
"54 622 OFFCURVE",
"47 612 CURVE SMOOTH",
"36 596 OFFCURVE",
"27 580 OFFCURVE",
"31 528 CURVE SMOOTH",
"34 494 OFFCURVE",
"41 434 OFFCURVE",
"49 363 CURVE SMOOTH",
"56 304 OFFCURVE",
"63 236 OFFCURVE",
"67 168 CURVE SMOOTH",
"70 122 OFFCURVE",
"72 41 OFFCURVE",
"72 0 CURVE",
"82 0 LINE",
"82 0 OFFCURVE",
"101 22 OFFCURVE",
"111 42 CURVE SMOOTH",
"123 63 OFFCURVE",
"125 87 OFFCURVE",
"126 96 CURVE SMOOTH",
"130 138 OFFCURVE",
"129 194 OFFCURVE",
"127 234 CURVE SMOOTH",
"126 277 OFFCURVE",
"123 335 OFFCURVE",
"119 395 CURVE SMOOTH",
"115 465 OFFCURVE",
"111 536 OFFCURVE",
"107 583 CURVE",
"129 578 LINE",
"96 681 LINE"
);
}
);
width = 169;
}
);
unicode = 0627;
},
{
glyphname = "alef-ar.fina";
lastChange = "2015-11-17 00:38:18 +0000";
layers = (
{
layerId = "51F41761-070F-43EA-B302-C90910850260";
name = Regular;
paths = (
{
closed = 1;
nodes = (
"148 106 OFFCURVE",
"135 116 OFFCURVE",
"126 131 CURVE SMOOTH",
"115 151 OFFCURVE",
"113 180 OFFCURVE",
"112 202 CURVE SMOOTH",
"110 248 OFFCURVE",
"108 361 OFFCURVE",
"108 392 CURVE",
"108 404 OFFCURVE",
"104 505 OFFCURVE",
"103 525 CURVE SMOOTH",
"101 586 OFFCURVE",
"99 655 OFFCURVE",
"97 681 CURVE",
"84 681 LINE",
"70 657 OFFCURVE",
"48 630 OFFCURVE",
"20 599 CURVE",
"21 590 OFFCURVE",
"36 544 OFFCURVE",
"42 435 CURVE SMOOTH",
"45 369 OFFCURVE",
"46 319 OFFCURVE",
"49 138 CURVE SMOOTH",
"50 89 OFFCURVE",
"63 56 OFFCURVE",
"82 36 CURVE SMOOTH",
"108 7 OFFCURVE",
"144 0 OFFCURVE",
"176 0 CURVE SMOOTH",
"209 0 LINE",
"209 106 LINE",
"169 106 LINE SMOOTH"
);
}
);
width = 209;
}
);
unicode = FE8E;
},
{
glyphname = "alef-ar.short";
lastChange = "2015-11-16 19:27:34 +0000";
layers = (
{
anchors = (
{
name = bottom;
position = "{85, 0}";
},
{
name = top;
position = "{85, 611}";
}
);
layerId = "51F41761-070F-43EA-B302-C90910850260";
name = Regular;
paths = (
{
closed = 1;
nodes = (
"96 611 OFFCURVE",
"60 560 OFFCURVE",
"48 542 CURVE SMOOTH",
"36 526 OFFCURVE",
"27 510 OFFCURVE",
"31 458 CURVE SMOOTH",
"36 395 OFFCURVE",
"57 300 OFFCURVE",
"67 168 CURVE SMOOTH",
"77 55 OFFCURVE",
"72 0 OFFCURVE",
"72 0 CURVE",
"83 0 LINE",
"83 0 OFFCURVE",
"101 22 OFFCURVE",
"112 42 CURVE SMOOTH",
"123 63 OFFCURVE",
"125 87 OFFCURVE",
"126 96 CURVE SMOOTH",
"131 138 OFFCURVE",
"129 194 OFFCURVE",
"128 234 CURVE SMOOTH",
"124 327 OFFCURVE",
"114 426 OFFCURVE",
"107 513 CURVE",
"129 508 LINE",
"96 611 LINE"
);
}
);
width = 169;
}
);
},
{
glyphname = "alef-ar.fina.short";
lastChange = "2015-11-17 00:38:34 +0000";
layers = (
{
anchors = (
{
name = bottom;
position = "{95, 0}";
},
{
name = top;
position = "{73, 611}";
}
);
layerId = "51F41761-070F-43EA-B302-C90910850260";
name = Regular;
paths = (
{
closed = 1;
nodes = (
"144 106 OFFCURVE",
"130 119 OFFCURVE",
"123 137 CURVE SMOOTH",
"115 156 OFFCURVE",
"114 181 OFFCURVE",
"112 202 CURVE SMOOTH",
"109 243 OFFCURVE",
"108 302 OFFCURVE",
"107 322 CURVE",
"107 333 OFFCURVE",
"105 404 OFFCURVE",
"103 455 CURVE SMOOTH",
"100 516 OFFCURVE",
"98 585 OFFCURVE",
"97 611 CURVE",
"84 611 LINE",
"73 592 OFFCURVE",
"43 554 OFFCURVE",
"20 529 CURVE",
"22 510 OFFCURVE",
"35 482 OFFCURVE",
"42 365 CURVE SMOOTH",
"45 302 OFFCURVE",
"48 231 OFFCURVE",
"49 138 CURVE SMOOTH",
"49 86 OFFCURVE",
"64 53 OFFCURVE",
"85 32 CURVE SMOOTH",
"111 7 OFFCURVE",
"145 0 OFFCURVE",
"176 0 CURVE SMOOTH",
"209 0 LINE",
"209 106 LINE",
"169 106 LINE SMOOTH"
);
}
);
width = 209;
}
);
},
{
glyphname = "dotlessbeh-ar";
lastChange = "2015-11-26 08:37:19 +0000";
layers = (
{
anchors = (
{
name = bottom;
position = "{432, -64}";
},
{
name = top;
position = "{420, 219}";
}
);
layerId = "51F41761-070F-43EA-B302-C90910850260";
name = Regular;
paths = (
{
closed = 1;
nodes = (
"778 204 OFFCURVE",
"771 251 OFFCURVE",
"748 289 CURVE SMOOTH",
"735 310 OFFCURVE",
"717 330 OFFCURVE",
"692 346 CURVE",
"664 240 LINE",
"664 240 OFFCURVE",
"729 208 OFFCURVE",
"744 138 CURVE",
"713 124 OFFCURVE",
"669 110 OFFCURVE",
"609 100 CURVE SMOOTH",
"553 91 OFFCURVE",
"480 85 OFFCURVE",
"401 85 CURVE SMOOTH",
"304 85 OFFCURVE",
"245 94 OFFCURVE",
"202 110 CURVE SMOOTH",
"140 134 OFFCURVE",
"118 173 OFFCURVE",
"118 217 CURVE SMOOTH",
"118 256 OFFCURVE",
"135 293 OFFCURVE",
"142 306 CURVE",
"126 321 LINE",
"98 294 OFFCURVE",
"70 218 OFFCURVE",
"70 161 CURVE SMOOTH",
"70 119 OFFCURVE",
"86 67 OFFCURVE",
"139 29 CURVE SMOOTH",
"184 -3 OFFCURVE",
"253 -25 OFFCURVE",
"361 -25 CURVE SMOOTH",
"460 -25 OFFCURVE",
"554 -6 OFFCURVE",
"612 9 CURVE SMOOTH",
"750 45 OFFCURVE",
"771 83 OFFCURVE",
"771 83 CURVE SMOOTH",
"771 83 OFFCURVE",
"780 123 OFFCURVE",
"779 169 CURVE SMOOTH"
);
}
);
width = 839;
}
);
unicode = 066E;
},
{
glyphname = "dotlessbeh-ar.fina";
lastChange = "2015-11-17 00:23:27 +0000";
layers = (
{
anchors = (
{
name = bottom;
position = "{429, -65}";
},
{
name = top;
position = "{442, 219}";
}
);
layerId = "51F41761-070F-43EA-B302-C90910850260";
name = Regular;
paths = (
{
closed = 1;
nodes = (
"821 106 OFFCURVE",
"808 113 OFFCURVE",
"801 125 CURVE SMOOTH",
"796 133 OFFCURVE",
"795 142 OFFCURVE",
"795 148 CURVE SMOOTH",
"795 157 OFFCURVE",
"797 164 OFFCURVE",
"798 168 CURVE",
"789 175 LINE",
"787 173 OFFCURVE",
"763 150 OFFCURVE",
"720 132 CURVE SMOOTH",
"695 122 OFFCURVE",
"671 114 OFFCURVE",
"623 105 CURVE SMOOTH",
"575 96 OFFCURVE",
"488 84 OFFCURVE",
"392 84 CURVE SMOOTH",
"295 84 OFFCURVE",
"232 96 OFFCURVE",
"192 111 CURVE SMOOTH",
"130 134 OFFCURVE",
"108 171 OFFCURVE",
"108 217 CURVE SMOOTH",
"108 257 OFFCURVE",
"125 293 OFFCURVE",
"132 306 CURVE",
"116 321 LINE",
"88 295 OFFCURVE",
"60 218 OFFCURVE",
"60 162 CURVE SMOOTH",
"60 124 OFFCURVE",
"73 79 OFFCURVE",
"113 43 CURVE SMOOTH",
"155 4 OFFCURVE",
"228 -25 OFFCURVE",
"348 -25 CURVE SMOOTH",
"442 -25 OFFCURVE",
"541 -7 OFFCURVE",
"601 8 CURVE SMOOTH",
"681 28 OFFCURVE",
"721 51 OFFCURVE",
"753 77 CURVE",
"754 37 OFFCURVE",
"785 0 OFFCURVE",
"853 0 CURVE SMOOTH",
"893 0 LINE",
"893 106 LINE",
"852 106 LINE SMOOTH"
);
}
);
width = 893;
}
);
},
{
glyphname = "dotlessbeh-ar.medi";
lastChange = "2015-11-17 00:01:49 +0000";
layers = (
{
anchors = (
{
name = bottom;
position = "{6, -34}";
},
{
name = top;
position = "{28, 192}";
}
);
layerId = "51F41761-070F-43EA-B302-C90910850260";
name = Regular;
paths = (
{
closed = 1;
nodes = (
"207 106 OFFCURVE",
"187 111 OFFCURVE",
"174 123 CURVE SMOOTH",
"161 134 OFFCURVE",
"155 152 OFFCURVE",
"157 176 CURVE SMOOTH",
"157 176 OFFCURVE",
"142 184 OFFCURVE",
"142 184 CURVE",
"140 174 OFFCURVE",
"136 146 OFFCURVE",
"115 127 CURVE SMOOTH",
"102 115 OFFCURVE",
"82 106 OFFCURVE",
"51 106 CURVE SMOOTH",
"51 106 OFFCURVE",
"-17 106 OFFCURVE",
"-17 106 CURVE SMOOTH",
"-46 106 OFFCURVE",
"-70 82 OFFCURVE",
"-70 53 CURVE SMOOTH",
"-70 24 OFFCURVE",
"-46 0 OFFCURVE",
"-17 0 CURVE SMOOTH",
"32 0 LINE SMOOTH",
"74 0 OFFCURVE",
"100 11 OFFCURVE",
"115 24 CURVE SMOOTH",
"130 36 OFFCURVE",
"136 50 OFFCURVE",
"137 55 CURVE",
"143 41 OFFCURVE",
"152 30 OFFCURVE",
"162 21 CURVE SMOOTH",
"178 8 OFFCURVE",
"200 0 OFFCURVE",
"229 0 CURVE SMOOTH",
"276 0 LINE",
"276 106 LINE",
"233 106 LINE SMOOTH"
);
}
);
width = 276;
}
);
},
{
glyphname = "dotlessbeh-ar.init";
lastChange = "2015-11-25 21:41:36 +0000";
layers = (
{
anchors = (
{
name = bottom;
position = "{33, -35}";
},
{
name = top;
position = "{-3, 300}";
}
);
guideLines = (
{
position = "{-1672, -55}";
}
);
layerId = "51F41761-070F-43EA-B302-C90910850260";
name = Regular;
paths = (
{
closed = 1;
nodes = (
"174 183 OFFCURVE",
"167 223 OFFCURVE",
"149 256 CURVE SMOOTH",
"135 281 OFFCURVE",
"115 303 OFFCURVE",
"89 321 CURVE",
"60 215 LINE",
"98 196 OFFCURVE",
"124 170 OFFCURVE",
"135 131 CURVE",
"130 127 OFFCURVE",
"126 124 OFFCURVE",
"115 119 CURVE SMOOTH",
"91 108 OFFCURVE",
"61 106 OFFCURVE",
"39 106 CURVE SMOOTH",
"-17 106 LINE SMOOTH",
"-46 106 OFFCURVE",
"-70 83 OFFCURVE",
"-70 53 CURVE SMOOTH",
"-70 23 OFFCURVE",
"-46 0 OFFCURVE",
"-17 0 CURVE SMOOTH",
"47 0 LINE SMOOTH",
"71 0 OFFCURVE",
"115 15 OFFCURVE",
"140 39 CURVE SMOOTH",
"156 54 OFFCURVE",
"174 82 OFFCURVE",
"174 117 CURVE SMOOTH",
"174 135 OFFCURVE",
"174 134 OFFCURVE",
"174 148 CURVE SMOOTH"
);
}
);
width = 234;
}
);
},
{
glyphname = "behThreedotshorizontalbelow-ar.init";
lastChange = "2015-11-25 20:52:22 +0000";
layers = (
{
anchors = (
{
name = bottom;
position = "{166, -195}";
},
{
name = top;
position = "{167, 300}";
}
);
components = (
{
name = "dots.horz.below-ar";
transform = "{1, 0, 0, 1, 154, 30}";
}
);
layerId = "51F41761-070F-43EA-B302-C90910850260";
name = Regular;
paths = (
{
closed = 1;
nodes = (
"374 183 OFFCURVE",
"367 223 OFFCURVE",
"349 256 CURVE SMOOTH",
"335 281 OFFCURVE",
"315 303 OFFCURVE",
"289 321 CURVE",
"260 215 LINE",
"298 196 OFFCURVE",
"324 170 OFFCURVE",
"335 131 CURVE",
"330 127 OFFCURVE",
"326 124 OFFCURVE",
"315 119 CURVE SMOOTH",
"291 108 OFFCURVE",
"261 106 OFFCURVE",
"239 106 CURVE SMOOTH",
"-17 106 LINE SMOOTH",
"-46 106 OFFCURVE",
"-70 83 OFFCURVE",
"-70 53 CURVE SMOOTH",
"-70 23 OFFCURVE",
"-46 0 OFFCURVE",
"-17 0 CURVE SMOOTH",
"247 0 LINE SMOOTH",
"271 0 OFFCURVE",
"315 15 OFFCURVE",
"340 39 CURVE SMOOTH",
"356 54 OFFCURVE",
"374 82 OFFCURVE",
"374 117 CURVE SMOOTH",
"374 135 OFFCURVE",
"374 134 OFFCURVE",
"374 148 CURVE SMOOTH"
);
}
);
width = 434;
}
);
},
{
glyphname = "behThreedotshorizontalbelow-ar.medi";
lastChange = "2015-11-25 20:52:33 +0000";
layers = (
{
anchors = (
{
name = bottom;
position = "{159, -194}";
},
{
name = top;
position = "{184, 199}";
}
);
components = (
{
name = "dots.horz.below-ar";
transform = "{1, 0, 0, 1, 147, 31}";
}
);
layerId = "51F41761-070F-43EA-B302-C90910850260";
name = Regular;
paths = (
{
closed = 1;
nodes = (
"409 106 OFFCURVE",
"389 111 OFFCURVE",
"376 123 CURVE SMOOTH",
"363 134 OFFCURVE",
"357 152 OFFCURVE",
"359 176 CURVE SMOOTH",
"359 176 OFFCURVE",
"344 184 OFFCURVE",
"344 184 CURVE",
"342 174 OFFCURVE",
"338 146 OFFCURVE",
"317 127 CURVE SMOOTH",
"304 115 OFFCURVE",
"284 106 OFFCURVE",
"253 106 CURVE SMOOTH",
"253 106 OFFCURVE",
"-17 106 OFFCURVE",
"-17 106 CURVE SMOOTH",
"-46 106 OFFCURVE",
"-70 82 OFFCURVE",
"-70 53 CURVE SMOOTH",
"-70 24 OFFCURVE",
"-46 0 OFFCURVE",
"-17 0 CURVE SMOOTH",
"234 0 LINE SMOOTH",
"276 0 OFFCURVE",
"302 11 OFFCURVE",
"317 24 CURVE SMOOTH",
"332 36 OFFCURVE",
"338 50 OFFCURVE",
"339 55 CURVE",
"345 41 OFFCURVE",
"354 30 OFFCURVE",
"364 21 CURVE SMOOTH",
"380 8 OFFCURVE",
"402 0 OFFCURVE",
"431 0 CURVE SMOOTH",
"478 0 LINE",
"478 106 LINE",
"435 106 LINE SMOOTH"
);
}
);
width = 478;
}
);
},
{
glyphname = "hah-ar";
lastChange = "2015-11-16 21:34:21 +0000";
layers = (
{
anchors = (
{
name = bottom;
position = "{341, 54}";
},
{
name = center;
position = "{341, -25}";
},
{
name = top;
position = "{265, 360}";
}
);
layerId = "51F41761-070F-43EA-B302-C90910850260";
name = Regular;
paths = (
{
closed = 1;
nodes = (
"351 -269 OFFCURVE",
"279 -262 OFFCURVE",
"217 -223 CURVE SMOOTH",
"160 -187 OFFCURVE",
"124 -132 OFFCURVE",
"124 -67 CURVE SMOOTH",
"124 -8 OFFCURVE",
"153 47 OFFCURVE",
"184 78 CURVE",
"192 70 OFFCURVE",
"198 52 OFFCURVE",
"198 52 CURVE SMOOTH",
"198 52 OFFCURVE",
"207 68 OFFCURVE",
"202 96 CURVE",
"249 132 OFFCURVE",
"296 152 OFFCURVE",
"335 164 CURVE SMOOTH",
"405 186 OFFCURVE",
"465 184 OFFCURVE",
"465 184 CURVE",
"503 284 LINE",
"466 285 LINE SMOOTH",
"413 286 OFFCURVE",
"379 294 OFFCURVE",
"299 314 CURVE SMOOTH",
"255 325 OFFCURVE",
"213 335 OFFCURVE",
"184 335 CURVE SMOOTH",
"141 335 OFFCURVE",
"116 312 OFFCURVE",
"102 294 CURVE SMOOTH",
"84 271 OFFCURVE",
"78 247 OFFCURVE",
"78 223 CURVE SMOOTH",
"78 176 LINE",
"78 176 OFFCURVE",
"129 138 OFFCURVE",
"152 114 CURVE",
"108 69 OFFCURVE",
"70 -4 OFFCURVE",
"70 -99 CURVE SMOOTH",
"70 -182 OFFCURVE",
"99 -257 OFFCURVE",
"149 -305 CURVE SMOOTH",
"199 -353 OFFCURVE",
"264 -368 OFFCURVE",
"349 -369 CURVE SMOOTH",
"427 -370 LINE",
"515 -269 LINE",
"399 -269 LINE SMOOTH"
);
},
{
closed = 1;
nodes = (
"122 229 OFFCURVE",
"143 245 OFFCURVE",
"180 245 CURVE SMOOTH",
"214 245 OFFCURVE",
"256 231 OFFCURVE",
"315 223 CURVE",
"299 217 OFFCURVE",
"238 194 OFFCURVE",
"184 143 CURVE",
"166 175 OFFCURVE",
"134 203 OFFCURVE",
"117 216 CURVE"
);
},
{
closed = 1;
nodes = (
"351 -269 OFFCURVE",
"279 -262 OFFCURVE",
"217 -223 CURVE SMOOTH",
"160 -187 OFFCURVE",
"124 -132 OFFCURVE",
"124 -67 CURVE SMOOTH",
"124 -8 OFFCURVE",
"153 47 OFFCURVE",
"184 78 CURVE",
"192 70 OFFCURVE",
"198 52 OFFCURVE",
"198 52 CURVE SMOOTH",
"198 52 OFFCURVE",
"207 68 OFFCURVE",
"202 96 CURVE",
"249 132 OFFCURVE",
"296 152 OFFCURVE",
"335 164 CURVE SMOOTH",
"405 186 OFFCURVE",
"465 184 OFFCURVE",
"465 184 CURVE",
"503 284 LINE",
"466 285 LINE SMOOTH",
"413 286 OFFCURVE",
"379 294 OFFCURVE",
"299 314 CURVE SMOOTH",
"255 325 OFFCURVE",
"213 335 OFFCURVE",
"184 335 CURVE SMOOTH",
"141 335 OFFCURVE",
"116 312 OFFCURVE",
"102 294 CURVE SMOOTH",
"84 271 OFFCURVE",
"78 247 OFFCURVE",
"78 223 CURVE SMOOTH",
"78 176 LINE",
"78 176 OFFCURVE",
"129 138 OFFCURVE",
"152 114 CURVE",
"108 69 OFFCURVE",
"70 -4 OFFCURVE",
"70 -99 CURVE SMOOTH",
"70 -182 OFFCURVE",
"99 -257 OFFCURVE",
"149 -305 CURVE SMOOTH",
"199 -353 OFFCURVE",
"264 -368 OFFCURVE",
"349 -369 CURVE SMOOTH",
"427 -370 LINE",
"515 -269 LINE",
"399 -269 LINE SMOOTH"
);
},
{
closed = 1;
nodes = (
"122 229 OFFCURVE",
"143 245 OFFCURVE",
"180 245 CURVE SMOOTH",
"214 245 OFFCURVE",
"256 231 OFFCURVE",
"315 223 CURVE",
"299 217 OFFCURVE",
"238 194 OFFCURVE",
"184 143 CURVE",
"166 175 OFFCURVE",
"134 203 OFFCURVE",
"117 216 CURVE"
);
}
);
width = 575;
}
);
unicode = 062D;
},
{
glyphname = "hah-ar.fina";
lastChange = "2015-11-17 00:11:17 +0000";
layers = (
{
anchors = (
{
name = bottom;
position = "{326, 41}";
},
{
name = center;
position = "{323, -55}";
},
{
name = top;
position = "{265, 359}";
}
);
layerId = "51F41761-070F-43EA-B302-C90910850260";
name = Regular;
paths = (
{
closed = 1;
nodes = (
"482 106 OFFCURVE",
"445 123 OFFCURVE",
"449 184 CURVE",
"459 184 OFFCURVE",
"465 184 OFFCURVE",
"465 184 CURVE",
"503 284 LINE",
"466 285 LINE SMOOTH",
"413 286 OFFCURVE",
"379 294 OFFCURVE",
"299 314 CURVE SMOOTH",
"255 325 OFFCURVE",
"213 335 OFFCURVE",
"184 335 CURVE SMOOTH",
"141 335 OFFCURVE",
"115 312 OFFCURVE",
"101 294 CURVE SMOOTH",
"83 271 OFFCURVE",
"78 247 OFFCURVE",
"78 223 CURVE SMOOTH",
"78 176 LINE",
"78 176 OFFCURVE",
"128 138 OFFCURVE",
"152 114 CURVE",
"108 68 OFFCURVE",
"70 -4 OFFCURVE",
"70 -99 CURVE SMOOTH",
"70 -192 OFFCURVE",
"106 -265 OFFCURVE",
"148 -305 CURVE SMOOTH",
"198 -353 OFFCURVE",
"269 -370 OFFCURVE",
"349 -370 CURVE SMOOTH",
"427 -370 LINE",
"514 -269 LINE",
"399 -269 LINE SMOOTH",
"358 -269 OFFCURVE",
"283 -264 OFFCURVE",
"217 -223 CURVE SMOOTH",
"159 -187 OFFCURVE",
"123 -131 OFFCURVE",
"123 -67 CURVE SMOOTH",
"123 -8 OFFCURVE",
"153 47 OFFCURVE",
"184 78 CURVE",
"192 70 OFFCURVE",
"198 52 OFFCURVE",
"198 52 CURVE SMOOTH",
"198 52 OFFCURVE",
"207 68 OFFCURVE",
"202 96 CURVE",
"246 130 OFFCURVE",
"293 151 OFFCURVE",
"335 164 CURVE SMOOTH",
"364 173 OFFCURVE",
"390 178 OFFCURVE",
"411 180 CURVE",
"408 169 OFFCURVE",
"406 151 OFFCURVE",
"406 137 CURVE SMOOTH",
"406 106 OFFCURVE",
"415 67 OFFCURVE",
"440 40 CURVE SMOOTH",
"463 16 OFFCURVE",
"498 0 OFFCURVE",
"552 0 CURVE SMOOTH",
"608 0 LINE",
"608 106 LINE",
"556 106 LINE SMOOTH"
);
},
{
closed = 1;
nodes = (
"165 175 OFFCURVE",
"133 203 OFFCURVE",
"116 216 CURVE",
"122 229 OFFCURVE",
"143 245 OFFCURVE",
"180 245 CURVE SMOOTH",
"214 245 OFFCURVE",
"256 231 OFFCURVE",
"314 223 CURVE",
"299 217 OFFCURVE",
"237 194 OFFCURVE",
"184 143 CURVE"
);
}
);
width = 608;
}
);
unicode = FEA2;
},
{
glyphname = "hah-ar.medi";
lastChange = "2015-11-16 21:21:46 +0000";
layers = (
{
anchors = (
{
name = bottom;
position = "{104, -35}";
},
{
name = top;
position = "{144, 336}";
}
);
layerId = "51F41761-070F-43EA-B302-C90910850260";
name = Regular;
paths = (
{
closed = 1;
nodes = (
"418 106 OFFCURVE",
"396 121 OFFCURVE",
"386 146 CURVE",
"405 149 OFFCURVE",
"418 148 OFFCURVE",
"428 146 CURVE",
"476 235 LINE",
"433 236 LINE SMOOTH",
"365 237 OFFCURVE",
"318 243 OFFCURVE",
"262 258 CURVE SMOOTH",
"195 276 OFFCURVE",
"169 293 OFFCURVE",
"124 293 CURVE SMOOTH",
"101 293 OFFCURVE",
"49 280 OFFCURVE",
"41 265 CURVE SMOOTH",
"21 227 OFFCURVE",
"12 196 OFFCURVE",
"12 196 CURVE SMOOTH",
"12 196 OFFCURVE",
"49 195 OFFCURVE",
"73 155 CURVE",
"84 160 LINE",
"84 185 LINE",
"88 192 OFFCURVE",
"96 199 OFFCURVE",
"113 196 CURVE SMOOTH",
"243 174 OFFCURVE",
"257 172 OFFCURVE",
"257 172 CURVE",
"234 162 OFFCURVE",
"191 135 OFFCURVE",
"147 121 CURVE SMOOTH",
"117 112 OFFCURVE",
"83 106 OFFCURVE",
"41 106 CURVE SMOOTH",
"-17 106 LINE SMOOTH",
"-46 106 OFFCURVE",
"-70 81 OFFCURVE",
"-70 52 CURVE SMOOTH",
"-70 24 OFFCURVE",
"-46 0 OFFCURVE",
"-17 0 CURVE SMOOTH",
"43 0 LINE SMOOTH",
"108 0 OFFCURVE",
"162 21 OFFCURVE",
"207 47 CURVE SMOOTH",
"255 75 OFFCURVE",
"281 99 OFFCURVE",
"304 116 CURVE SMOOTH",
"319 127 OFFCURVE",
"335 134 OFFCURVE",
"350 139 CURVE",
"345 109 OFFCURVE",
"347 87 OFFCURVE",
"357 64 CURVE SMOOTH",
"383 4 OFFCURVE",
"442 0 OFFCURVE",
"492 0 CURVE SMOOTH",
"546 0 LINE",
"546 106 LINE",
"493 106 LINE SMOOTH"
);
}
);
width = 546;
}
);
unicode = FEA4;
},
{
glyphname = "hah-ar.init";
lastChange = "2015-11-16 21:18:08 +0000";
layers = (
{
anchors = (
{
name = bottom;
position = "{208, -34}";
},
{
name = top;
position = "{107, 332}";
}
);
layerId = "51F41761-070F-43EA-B302-C90910850260";
name = Regular;
paths = (
{
closed = 1;
nodes = (
"402 204 OFFCURVE",
"341 219 OFFCURVE",
"286 239 CURVE SMOOTH",
"223 262 OFFCURVE",
"167 292 OFFCURVE",
"113 292 CURVE SMOOTH",
"76 292 OFFCURVE",
"48 278 OFFCURVE",
"30 260 CURVE SMOOTH",
"7 237 OFFCURVE",
"0 206 OFFCURVE",
"0 186 CURVE SMOOTH",
"0 153 LINE",
"32 106 LINE",
"-17 106 LINE SMOOTH",
"-46 106 OFFCURVE",
"-70 82 OFFCURVE",
"-70 53 CURVE SMOOTH",
"-70 24 OFFCURVE",
"-46 0 OFFCURVE",
"-17 0 CURVE SMOOTH",
"32 0 LINE SMOOTH",
"57 0 OFFCURVE",
"78 2 OFFCURVE",
"97 5 CURVE",
"108 -16 OFFCURVE",
"115 -36 OFFCURVE",
"118 -51 CURVE",
"130 -27 OFFCURVE",
"126 4 OFFCURVE",
"126 10 CURVE",
"158 18 OFFCURVE",
"175 26 OFFCURVE",
"201 39 CURVE SMOOTH",
"254 66 OFFCURVE",
"334 109 OFFCURVE",
"399 109 CURVE SMOOTH",
"436 109 LINE",
"488 204 LINE",
"464 204 LINE SMOOTH"
);
},
{
closed = 1;
nodes = (
"66 134 OFFCURVE",
"46 156 OFFCURVE",
"37 166 CURVE",
"44 179 OFFCURVE",
"61 201 OFFCURVE",
"102 201 CURVE SMOOTH",
"165 201 OFFCURVE",
"261 150 OFFCURVE",
"261 150 CURVE",
"231 133 OFFCURVE",
"187 108 OFFCURVE",
"85 106 CURVE"
);
}
);
width = 548;
}
);
unicode = FEA3;
},
{
glyphname = "dal-ar";
lastChange = "2015-11-16 21:41:11 +0000";
layers = (
{
anchors = (
{
name = bottom;
position = "{200, -34}";
},
{
name = top;
position = "{159, 361}";
}
);
layerId = "51F41761-070F-43EA-B302-C90910850260";
name = Regular;
paths = (
{
closed = 1;
nodes = (
"219 311 OFFCURVE",
"167 324 OFFCURVE",
"152 337 CURVE",
"114 253 LINE",
"108 238 OFFCURVE",
"125 218 OFFCURVE",
"139 211 CURVE SMOOTH",
"164 199 LINE",
"175 217 LINE",
"199 216 OFFCURVE",
"265 176 OFFCURVE",
"312 105 CURVE",
"283 99 OFFCURVE",
"229 96 OFFCURVE",
"196 96 CURVE SMOOTH",
"143 96 OFFCURVE",
"95 104 OFFCURVE",
"72 139 CURVE",
"72 139 OFFCURVE",
"70 101 OFFCURVE",
"70 85 CURVE SMOOTH",
"70 57 OFFCURVE",
"76 -8 OFFCURVE",
"180 -8 CURVE SMOOTH",
"230 -8 OFFCURVE",
"271 7 OFFCURVE",
"298 27 CURVE SMOOTH",
"337 56 OFFCURVE",
"349 95 OFFCURVE",
"349 133 CURVE SMOOTH",
"349 203 OFFCURVE",
"307 251 OFFCURVE",
"264 280 CURVE SMOOTH"
);
}
);
width = 409;
}
);
unicode = 062F;
},
{
glyphname = "dal-ar.fina";
lastChange = "2015-11-16 21:43:49 +0000";
layers = (
{
anchors = (
{
name = bottom;
position = "{191, -34}";
},
{
name = top;
position = "{225, 356}";
}
);
layerId = "51F41761-070F-43EA-B302-C90910850260";
name = Regular;
paths = (
{
closed = 1;
nodes = (
"394 106 OFFCURVE",
"360 141 OFFCURVE",
"337 187 CURVE SMOOTH",
"309 241 OFFCURVE",
"296 309 OFFCURVE",
"288 354 CURVE",
"253 301 LINE",
"253 279 OFFCURVE",
"255 257 OFFCURVE",
"262 220 CURVE SMOOTH",
"269 184 OFFCURVE",
"275 162 OFFCURVE",
"290 129 CURVE",
"278 119 OFFCURVE",
"263 113 OFFCURVE",
"247 108 CURVE SMOOTH",
"222 101 OFFCURVE",
"196 97 OFFCURVE",
"169 97 CURVE SMOOTH",
"134 97 OFFCURVE",
"93 109 OFFCURVE",
"73 139 CURVE",
"73 139 OFFCURVE",
"70 104 OFFCURVE",
"70 78 CURVE SMOOTH",
"70 71 OFFCURVE",
"68 43 OFFCURVE",
"88 21 CURVE SMOOTH",
"102 5 OFFCURVE",
"127 -8 OFFCURVE",
"171 -8 CURVE SMOOTH",
"216 -8 OFFCURVE",
"249 1 OFFCURVE",
"272 17 CURVE SMOOTH",
"294 32 OFFCURVE",
"308 53 OFFCURVE",
"314 77 CURVE",
"325 58 OFFCURVE",
"341 39 OFFCURVE",
"362 24 CURVE SMOOTH",
"383 10 OFFCURVE",
"409 0 OFFCURVE",
"437 0 CURVE SMOOTH",
"463 0 LINE",
"463 106 LINE",
"442 106 LINE SMOOTH"
);
}
);
width = 463;
}
);
unicode = FEAA;
},
{
glyphname = "reh-ar";
lastChange = "2015-11-27 03:33:05 +0000";
layers = (
{
anchors = (
{
name = bottom;
position = "{-6, -261}";
},
{
name = top;
position = "{63, 256}";
}
);
layerId = "51F41761-070F-43EA-B302-C90910850260";
name = Regular;
paths = (
{
closed = 1;
nodes = (
"174 -45 OFFCURVE",
"182 1 OFFCURVE",
"178 45 CURVE SMOOTH",
"173 120 OFFCURVE",
"135 190 OFFCURVE",
"67 227 CURVE",
"35 146 LINE SMOOTH",
"29 132 OFFCURVE",
"35 118 OFFCURVE",
"47 109 CURVE SMOOTH",
"74 89 OFFCURVE",
"100 72 OFFCURVE",
"123 46 CURVE",
"116 -18 OFFCURVE",
"87 -50 OFFCURVE",
"51 -70 CURVE SMOOTH",
"7 -96 OFFCURVE",
"-67 -98 OFFCURVE",
"-100 -99 CURVE",
"-100 -204 LINE",
"-55 -201 OFFCURVE",
"-36 -235 OFFCURVE",
"-29 -255 CURVE",
"-26 -255 LINE",
"-26 -198 LINE",
"-11 -198 OFFCURVE",
"52 -193 OFFCURVE",
"92 -165 CURVE SMOOTH",
"117 -148 OFFCURVE",
"137 -124 OFFCURVE",
"154 -87 CURVE SMOOTH"
);
}
);
width = 213;
}
);
unicode = 0631;
},
{
glyphname = "reh-ar.fina";
lastChange = "2015-11-27 03:26:41 +0000";
layers = (
{
anchors = (
{
name = bottom;
position = "{-38, -263}";
},
{
name = top;
position = "{13, 205}";
}
);
layerId = "51F41761-070F-43EA-B302-C90910850260";
name = Regular;
paths = (
{
closed = 1;
nodes = (
"129 106 OFFCURVE",
"97 125 OFFCURVE",
"74 178 CURVE",
"57 162 LINE",
"56 153 OFFCURVE",
"55 143 OFFCURVE",
"55 134 CURVE SMOOTH",
"53 107 OFFCURVE",
"64 63 OFFCURVE",
"86 42 CURVE",
"80 -5 OFFCURVE",
"57 -39 OFFCURVE",
"21 -62 CURVE SMOOTH",
"-17 -85 OFFCURVE",
"-69 -97 OFFCURVE",
"-132 -99 CURVE",
"-132 -204 LINE",
"-87 -201 OFFCURVE",
"-68 -235 OFFCURVE",
"-61 -255 CURVE",
"-58 -255 LINE",
"-58 -198 LINE",
"4 -198 OFFCURVE",
"56 -177 OFFCURVE",
"92 -140 CURVE SMOOTH",
"127 -104 OFFCURVE",
"147 -53 OFFCURVE",
"144 7 CURVE",
"156 2 OFFCURVE",
"175 0 OFFCURVE",
"199 0 CURVE SMOOTH",
"253 0 LINE",
"253 106 LINE",
"177 106 LINE SMOOTH"
);
}
);
width = 253;
}
);
unicode = FEAE;
},
{
glyphname = "rehLoop-ar";
lastChange = "2015-11-27 03:28:44 +0000";
layers = (
{
anchors = (
{
name = bottom;
position = "{190, -237}";
},
{
name = top;
position = "{213, 257}";
}
);
layerId = "51F41761-070F-43EA-B302-C90910850260";
name = Regular;
paths = (
{
closed = 1;
nodes = (
"359 120 OFFCURVE",
"321 190 OFFCURVE",
"253 227 CURVE",
"221 146 LINE SMOOTH",
"215 132 OFFCURVE",
"221 118 OFFCURVE",
"233 109 CURVE SMOOTH",
"260 89 OFFCURVE",
"286 72 OFFCURVE",
"309 46 CURVE",
"303 -9 OFFCURVE",
"281 -40 OFFCURVE",
"252 -60 CURVE",
"230 -1 OFFCURVE",
"184 34 OFFCURVE",
"130 34 CURVE SMOOTH",
"98 34 OFFCURVE",
"40 9 OFFCURVE",
"40 -66 CURVE SMOOTH",
"40 -102 OFFCURVE",
"54 -140 OFFCURVE",
"78 -162 CURVE SMOOTH",
"101 -183 OFFCURVE",
"134 -197 OFFCURVE",
"170 -197 CURVE SMOOTH",
"194 -197 OFFCURVE",
"226 -190 OFFCURVE",
"250 -180 CURVE",
"253 -194 OFFCURVE",
"259 -223 OFFCURVE",
"259 -223 CURVE",
"290 -196 LINE",
"288 -187 OFFCURVE",
"285 -173 OFFCURVE",
"283 -161 CURVE",
"306 -145 OFFCURVE",
"324 -122 OFFCURVE",
"340 -87 CURVE SMOOTH",
"360 -45 OFFCURVE",
"368 1 OFFCURVE",
"364 45 CURVE SMOOTH"
);
},
{
closed = 1;
nodes = (
"107 -95 OFFCURVE",
"76 -84 OFFCURVE",
"76 -49 CURVE SMOOTH",
"76 -22 OFFCURVE",
"104 -8 OFFCURVE",
"129 -8 CURVE SMOOTH",
"162 -8 OFFCURVE",
"197 -28 OFFCURVE",
"218 -79 CURVE",
"194 -91 OFFCURVE",
"168 -95 OFFCURVE",
"143 -95 CURVE SMOOTH"
);
}
);
width = 399;
}
);
unicode = 08AA;
},
{
glyphname = "rehLoop-ar.fina";
lastChange = "2015-11-27 03:28:39 +0000";
layers = (
{
anchors = (
{
name = bottom;
position = "{190, -234}";
},
{
name = top;
position = "{231, 192}";
}
);
layerId = "51F41761-070F-43EA-B302-C90910850260";
name = Regular;
paths = (
{
closed = 1;
nodes = (
"353 106 OFFCURVE",
"321 125 OFFCURVE",
"298 178 CURVE",
"281 162 LINE",
"280 153 OFFCURVE",
"279 143 OFFCURVE",
"279 134 CURVE",
"277 107 OFFCURVE",
"288 63 OFFCURVE",
"310 42 CURVE",
"304 -2 OFFCURVE",
"284 -34 OFFCURVE",
"252 -57 CURVE",
"229 2 OFFCURVE",
"183 37 OFFCURVE",
"130 37 CURVE SMOOTH",
"98 37 OFFCURVE",
"40 12 OFFCURVE",
"40 -63 CURVE SMOOTH",
"40 -99 OFFCURVE",
"54 -137 OFFCURVE",
"78 -159 CURVE SMOOTH",
"101 -180 OFFCURVE",
"134 -194 OFFCURVE",
"170 -194 CURVE SMOOTH",
"194 -194 OFFCURVE",
"226 -186 OFFCURVE",
"250 -176 CURVE",
"253 -190 OFFCURVE",
"259 -219 OFFCURVE",
"259 -219 CURVE",
"290 -192 LINE",
"289 -185 OFFCURVE",
"287 -175 OFFCURVE",
"285 -166 CURVE",
"296 -158 OFFCURVE",
"307 -150 OFFCURVE",
"316 -140 CURVE SMOOTH",
"351 -104 OFFCURVE",
"371 -53 OFFCURVE",
"368 7 CURVE",
"380 2 OFFCURVE",
"399 0 OFFCURVE",
"423 0 CURVE SMOOTH",
"477 0 LINE",
"477 106 LINE",
"401 106 LINE SMOOTH"
);
},
{
closed = 1;
nodes = (
"107 -92 OFFCURVE",
"76 -81 OFFCURVE",
"76 -45 CURVE SMOOTH",
"76 -19 OFFCURVE",
"104 -4 OFFCURVE",
"129 -4 CURVE SMOOTH",
"162 -4 OFFCURVE",
"197 -24 OFFCURVE",
"218 -76 CURVE",
"194 -87 OFFCURVE",
"168 -92 OFFCURVE",
"143 -92 CURVE SMOOTH"
);
}
);
width = 477;
}
);
},
{
glyphname = "seen-ar";
lastChange = "2015-11-16 22:14:31 +0000";
layers = (
{
anchors = (
{
name = bottom;
position = "{276, -264}";
},
{
name = top;
position = "{609, 251}";
}
);
layerId = "51F41761-070F-43EA-B302-C90910850260";
name = Regular;
paths = (
{
closed = 1;
nodes = (
"723 198 LINE",
"733 172 OFFCURVE",
"741 139 OFFCURVE",
"740 116 CURVE",
"740 116 OFFCURVE",
"697 111 OFFCURVE",
"668 126 CURVE SMOOTH",
"637 142 OFFCURVE",
"627 180 OFFCURVE",
"626 207 CURVE",
"611 215 LINE",
"608 179 OFFCURVE",
"603 155 OFFCURVE",
"575 133 CURVE SMOOTH",
"559 121 OFFCURVE",
"537 112 OFFCURVE",
"505 112 CURVE SMOOTH",
"481 112 OFFCURVE",
"460 117 OFFCURVE",
"442 128 CURVE SMOOTH",
"424 139 OFFCURVE",
"415 155 OFFCURVE",
"406 178 CURVE",
"390 162 LINE",
"387 152 OFFCURVE",
"386 144 OFFCURVE",
"386 129 CURVE SMOOTH",
"386 91 OFFCURVE",
"392 77 OFFCURVE",
"416 41 CURVE SMOOTH",
"440 6 OFFCURVE",
"461 -16 OFFCURVE",
"468 -25 CURVE",
"460 -47 OFFCURVE",
"442 -85 OFFCURVE",
"373 -107 CURVE SMOOTH",
"351 -114 OFFCURVE",
"320 -121 OFFCURVE",
"285 -121 CURVE SMOOTH",
"230 -121 OFFCURVE",
"190 -104 OFFCURVE",
"164 -86 CURVE SMOOTH",
"113 -51 OFFCURVE",
"109 -7 OFFCURVE",
"109 14 CURVE SMOOTH",
"109 64 OFFCURVE",
"131 100 OFFCURVE",
"143 115 CURVE",
"127 131 LINE",
"107 108 OFFCURVE",
"94 81 OFFCURVE",
"86 57 CURVE SMOOTH",
"71 12 OFFCURVE",
"70 -37 OFFCURVE",
"70 -48 CURVE SMOOTH",
"70 -84 OFFCURVE",
"80 -144 OFFCURVE",
"126 -187 CURVE SMOOTH",
"157 -216 OFFCURVE",
"205 -238 OFFCURVE",
"276 -238 CURVE SMOOTH",
"337 -238 OFFCURVE",
"396 -222 OFFCURVE",
"439 -184 CURVE SMOOTH",
"473 -154 OFFCURVE",
"503 -105 OFFCURVE",
"503 -36 CURVE SMOOTH",
"503 -23 OFFCURVE",
"502 -8 OFFCURVE",
"501 5 CURVE",
"530 6 OFFCURVE",
"555 11 OFFCURVE",
"572 19 CURVE SMOOTH",
"597 31 OFFCURVE",
"614 54 OFFCURVE",
"618 75 CURVE",
"625 60 OFFCURVE",
"632 45 OFFCURVE",
"650 31 CURVE SMOOTH",
"664 20 OFFCURVE",
"687 6 OFFCURVE",
"708 6 CURVE SMOOTH",
"760 6 OFFCURVE",
"794 88 OFFCURVE",
"799 102 CURVE SMOOTH",
"805 119 OFFCURVE",
"806 144 OFFCURVE",
"806 159 CURVE SMOOTH",
"806 208 OFFCURVE",
"795 250 OFFCURVE",
"776 267 CURVE"
);
}
);
width = 866;
}
);
unicode = 0633;
},
{
glyphname = "seen-ar.fina";
lastChange = "2015-11-16 22:13:38 +0000";
layers = (
{
anchors = (
{
name = bottom;
position = "{276, -264}";
},
{
name = top;
position = "{608, 250}";
}
);
layerId = "51F41761-070F-43EA-B302-C90910850260";
name = Regular;
paths = (
{
closed = 1;
nodes = (
"842 106 OFFCURVE",
"819 122 OFFCURVE",
"805 144 CURVE SMOOTH",
"793 163 OFFCURVE",
"788 186 OFFCURVE",
"787 207 CURVE",
"773 215 LINE",
"773 189 OFFCURVE",
"769 161 OFFCURVE",
"758 141 CURVE SMOOTH",
"748 125 OFFCURVE",
"731 112 OFFCURVE",
"705 112 CURVE SMOOTH",
"676 112 OFFCURVE",
"658 122 OFFCURVE",
"646 138 CURVE SMOOTH",
"632 156 OFFCURVE",
"627 182 OFFCURVE",
"626 207 CURVE",
"611 215 LINE",
"608 184 OFFCURVE",
"604 161 OFFCURVE",
"583 139 CURVE SMOOTH",
"574 131 OFFCURVE",
"564 124 OFFCURVE",
"550 119 CURVE SMOOTH",
"538 115 OFFCURVE",
"523 112 OFFCURVE",
"505 112 CURVE SMOOTH",
"481 112 OFFCURVE",
"460 117 OFFCURVE",
"442 128 CURVE SMOOTH",
"424 139 OFFCURVE",
"415 155 OFFCURVE",
"406 178 CURVE",
"390 162 LINE",
"387 152 OFFCURVE",
"386 142 OFFCURVE",
"386 133 CURVE SMOOTH",
"386 109 OFFCURVE",
"391 72 OFFCURVE",
"415 40 CURVE SMOOTH",
"443 5 OFFCURVE",
"458 -13 OFFCURVE",
"468 -25 CURVE",
"463 -41 OFFCURVE",
"442 -85 OFFCURVE",
"373 -108 CURVE SMOOTH",
"351 -115 OFFCURVE",
"322 -120 OFFCURVE",
"287 -120 CURVE SMOOTH",
"229 -120 OFFCURVE",
"190 -106 OFFCURVE",
"163 -86 CURVE SMOOTH",
"116 -52 OFFCURVE",
"109 -9 OFFCURVE",
"109 9 CURVE SMOOTH",
"109 65 OFFCURVE",
"128 95 OFFCURVE",
"143 115 CURVE",
"127 131 LINE",
"107 108 OFFCURVE",
"95 83 OFFCURVE",
"86 57 CURVE SMOOTH",
"70 7 OFFCURVE",
"70 -39 OFFCURVE",
"70 -51 CURVE SMOOTH",
"70 -83 OFFCURVE",
"80 -144 OFFCURVE",
"126 -187 CURVE SMOOTH",
"157 -217 OFFCURVE",
"205 -238 OFFCURVE",
"276 -238 CURVE SMOOTH",
"335 -238 OFFCURVE",
"395 -222 OFFCURVE",
"439 -185 CURVE SMOOTH",
"476 -152 OFFCURVE",
"502 -103 OFFCURVE",
"503 -32 CURVE SMOOTH",
"503 -25 OFFCURVE",
"502 -9 OFFCURVE",
"501 5 CURVE",
"528 5 OFFCURVE",
"556 10 OFFCURVE",
"578 22 CURVE SMOOTH",
"598 34 OFFCURVE",
"613 51 OFFCURVE",
"619 76 CURVE",
"622 58 OFFCURVE",
"629 41 OFFCURVE",
"642 28 CURVE SMOOTH",
"656 15 OFFCURVE",
"676 6 OFFCURVE",
"702 6 CURVE SMOOTH",
"727 6 OFFCURVE",
"748 13 OFFCURVE",
"762 25 CURVE SMOOTH",
"774 35 OFFCURVE",
"782 49 OFFCURVE",
"784 67 CURVE",
"793 47 OFFCURVE",
"803 32 OFFCURVE",
"816 22 CURVE SMOOTH",
"834 7 OFFCURVE",
"856 0 OFFCURVE",
"883 0 CURVE SMOOTH",
"912 0 LINE",
"912 106 LINE",
"879 106 LINE SMOOTH"
);
}
);
width = 912;
}
);
unicode = FEB2;
},
{
glyphname = "seen-ar.medi";
lastChange = "2015-11-16 22:12:50 +0000";
layers = (
{
anchors = (
{
name = bottom;
position = "{308, -34}";
},
{
name = top;
position = "{309, 251}";
}
);
layerId = "51F41761-070F-43EA-B302-C90910850260";
name = Regular;
paths = (
{
closed = 1;
nodes = (
"540 106 OFFCURVE",
"517 124 OFFCURVE",
"503 148 CURVE SMOOTH",
"494 166 OFFCURVE",
"489 188 OFFCURVE",
"488 207 CURVE",
"474 215 LINE",
"474 190 OFFCURVE",
"471 163 OFFCURVE",
"460 144 CURVE SMOOTH",
"451 126 OFFCURVE",
"434 112 OFFCURVE",
"406 112 CURVE SMOOTH",
"368 112 OFFCURVE",
"348 130 OFFCURVE",
"338 154 CURVE SMOOTH",
"332 169 OFFCURVE",
"328 187 OFFCURVE",
"327 207 CURVE",
"312 215 LINE",
"312 209 OFFCURVE",
"312 183 OFFCURVE",
"299 159 CURVE SMOOTH",
"294 148 OFFCURVE",
"286 138 OFFCURVE",
"275 130 CURVE SMOOTH",
"262 119 OFFCURVE",
"242 112 OFFCURVE",
"216 112 CURVE SMOOTH",
"182 112 OFFCURVE",
"157 124 OFFCURVE",
"142 143 CURVE SMOOTH",
"130 160 OFFCURVE",
"124 182 OFFCURVE",
"124 207 CURVE",
"109 215 LINE",
"109 198 OFFCURVE",
"105 166 OFFCURVE",
"86 141 CURVE SMOOTH",
"71 121 OFFCURVE",
"46 106 OFFCURVE",
"6 106 CURVE SMOOTH",
"-17 106 LINE SMOOTH",
"-46 106 OFFCURVE",
"-70 82 OFFCURVE",
"-70 53 CURVE SMOOTH",
"-70 24 OFFCURVE",
"-46 0 OFFCURVE",
"-17 0 CURVE SMOOTH",
"10 0 LINE SMOOTH",
"39 0 OFFCURVE",
"63 10 OFFCURVE",
"80 25 CURVE SMOOTH",
"98 40 OFFCURVE",
"110 59 OFFCURVE",
"113 77 CURVE",
"121 58 OFFCURVE",
"129 42 OFFCURVE",
"144 28 CURVE SMOOTH",
"161 13 OFFCURVE",
"185 0 OFFCURVE",
"219 0 CURVE SMOOTH",
"248 0 OFFCURVE",
"272 9 OFFCURVE",
"288 23 CURVE SMOOTH",
"305 37 OFFCURVE",
"315 56 OFFCURVE",
"319 77 CURVE",
"323 63 OFFCURVE",
"328 48 OFFCURVE",
"337 36 CURVE SMOOTH",
"349 21 OFFCURVE",
"370 6 OFFCURVE",
"403 6 CURVE SMOOTH",
"447 6 OFFCURVE",
"480 27 OFFCURVE",
"485 67 CURVE",
"493 49 OFFCURVE",
"502 35 OFFCURVE",
"513 25 CURVE SMOOTH",
"531 8 OFFCURVE",
"554 0 OFFCURVE",
"583 0 CURVE SMOOTH",
"613 0 LINE",
"613 106 LINE",
"579 106 LINE SMOOTH"
);
}
);
width = 613;
}
);
unicode = FEB4;
},
{
glyphname = "seen-ar.init";
lastChange = "2015-11-16 22:11:11 +0000";
layers = (
{
anchors = (
{
name = bottom;
position = "{310, -34}";
},
{
name = top;
position = "{312, 251}";
}
);
layerId = "51F41761-070F-43EA-B302-C90910850260";
name = Regular;
paths = (
{
closed = 1;
nodes = (
"424 198 LINE",
"433 171 OFFCURVE",
"442 139 OFFCURVE",
"441 115 CURVE",
"441 115 OFFCURVE",
"397 110 OFFCURVE",
"369 125 CURVE SMOOTH",
"333 145 OFFCURVE",
"328 185 OFFCURVE",
"327 207 CURVE",
"312 214 LINE",
"310 186 OFFCURVE",
"304 161 OFFCURVE",
"286 140 CURVE SMOOTH",
"272 124 OFFCURVE",
"250 111 OFFCURVE",
"216 111 CURVE SMOOTH",
"179 111 OFFCURVE",
"154 125 OFFCURVE",
"139 147 CURVE SMOOTH",
"129 163 OFFCURVE",
"124 183 OFFCURVE",
"124 207 CURVE",
"109 214 LINE",
"109 198 OFFCURVE",
"105 166 OFFCURVE",
"86 141 CURVE SMOOTH",
"70 121 OFFCURVE",
"46 106 OFFCURVE",
"5 106 CURVE SMOOTH",
"-17 106 LINE SMOOTH",
"-46 106 OFFCURVE",
"-70 84 OFFCURVE",
"-70 52 CURVE SMOOTH",
"-70 20 OFFCURVE",
"-46 0 OFFCURVE",
"-17 0 CURVE SMOOTH",
"10 0 LINE SMOOTH",
"40 0 OFFCURVE",
"65 11 OFFCURVE",
"82 27 CURVE SMOOTH",
"99 41 OFFCURVE",
"110 60 OFFCURVE",
"113 76 CURVE",
"119 60 OFFCURVE",
"126 45 OFFCURVE",
"139 32 CURVE SMOOTH",
"154 17 OFFCURVE",
"177 5 OFFCURVE",
"212 5 CURVE SMOOTH",
"240 5 OFFCURVE",
"265 12 OFFCURVE",
"283 24 CURVE SMOOTH",
"302 37 OFFCURVE",
"314 54 OFFCURVE",
"319 75 CURVE",
"326 60 OFFCURVE",
"336 41 OFFCURVE",
"355 26 CURVE SMOOTH",
"370 15 OFFCURVE",
"392 6 OFFCURVE",
"423 6 CURVE SMOOTH",
"437 6 OFFCURVE",
"454 25 OFFCURVE",
"469 47 CURVE SMOOTH",
"485 69 OFFCURVE",
"498 94 OFFCURVE",
"500 101 CURVE SMOOTH",
"505 119 OFFCURVE",
"508 141 OFFCURVE",
"507 164 CURVE SMOOTH",
"506 206 OFFCURVE",
"496 249 OFFCURVE",
"477 267 CURVE"
);
}
);
width = 567;
}
);
unicode = FEB3;
},
{
glyphname = "sad-ar";
lastChange = "2015-11-16 22:22:23 +0000";
layers = (
{
anchors = (
{
name = bottom;
position = "{276, -264}";
},
{
name = top;
position = "{729, 310}";
}
);
layerId = "51F41761-070F-43EA-B302-C90910850260";
name = Regular;
paths = (
{
closed = 1;
nodes = (
"693 283 OFFCURVE",
"636 245 OFFCURVE",
"591 199 CURVE SMOOTH",
"558 167 OFFCURVE",
"531 135 OFFCURVE",
"514 106 CURVE",
"484 109 OFFCURVE",
"461 112 OFFCURVE",
"443 124 CURVE SMOOTH",
"427 135 OFFCURVE",
"415 151 OFFCURVE",
"406 178 CURVE",
"390 162 LINE",
"390 162 OFFCURVE",
"386 149 OFFCURVE",
"386 129 CURVE SMOOTH",
"386 105 OFFCURVE",
"392 69 OFFCURVE",
"420 34 CURVE SMOOTH",
"435 16 OFFCURVE",
"461 -16 OFFCURVE",
"468 -25 CURVE",
"463 -41 OFFCURVE",
"442 -85 OFFCURVE",
"373 -108 CURVE SMOOTH",
"351 -115 OFFCURVE",
"322 -120 OFFCURVE",
"286 -120 CURVE SMOOTH",
"229 -120 OFFCURVE",
"190 -106 OFFCURVE",
"163 -86 CURVE SMOOTH",
"116 -52 OFFCURVE",
"109 -9 OFFCURVE",
"109 9 CURVE SMOOTH",
"109 65 OFFCURVE",
"128 95 OFFCURVE",
"143 115 CURVE",
"127 131 LINE",
"107 108 OFFCURVE",
"95 83 OFFCURVE",
"86 57 CURVE SMOOTH",
"70 7 OFFCURVE",
"70 -39 OFFCURVE",
"70 -51 CURVE SMOOTH",
"70 -83 OFFCURVE",
"80 -144 OFFCURVE",
"126 -187 CURVE SMOOTH",
"157 -216 OFFCURVE",
"205 -238 OFFCURVE",
"276 -238 CURVE SMOOTH",
"335 -238 OFFCURVE",
"395 -222 OFFCURVE",
"439 -185 CURVE SMOOTH",
"476 -152 OFFCURVE",
"502 -103 OFFCURVE",
"503 -32 CURVE SMOOTH",
"503 -22 OFFCURVE",
"502 -11 OFFCURVE",
"501 0 CURVE",
"542 -6 OFFCURVE",
"572 -10 OFFCURVE",
"618 -10 CURVE SMOOTH",
"706 -10 OFFCURVE",
"769 18 OFFCURVE",
"810 53 CURVE SMOOTH",
"850 87 OFFCURVE",
"866 119 OFFCURVE",
"883 176 CURVE",
"858 244 OFFCURVE",
"820 283 OFFCURVE",
"747 283 CURVE SMOOTH"
);
},
{
closed = 1;
nodes = (
"556 102 LINE SMOOTH",
"556 102 OFFCURVE",
"570 124 OFFCURVE",
"599 149 CURVE SMOOTH",
"628 174 OFFCURVE",
"669 199 OFFCURVE",
"721 199 CURVE SMOOTH",
"747 199 OFFCURVE",
"765 191 OFFCURVE",
"779 181 CURVE SMOOTH",
"799 166 OFFCURVE",
"807 147 OFFCURVE",
"807 147 CURVE",
"803 142 OFFCURVE",
"777 102 OFFCURVE",
"643 102 CURVE SMOOTH"
);
}
);
width = 943;
}
);
unicode = 0635;
},
{
glyphname = "sad-ar.fina";
lastChange = "2015-11-16 22:32:12 +0000";
layers = (
{
anchors = (
{
name = bottom;
position = "{276, -264}";
},
{
name = top;
position = "{728, 310}";
}
);
layerId = "51F41761-070F-43EA-B302-C90910850260";
name = Regular;
paths = (
{
closed = 1;
nodes = (
"887 106 OFFCURVE",
"871 109 OFFCURVE",
"860 115 CURVE",
"869 132 OFFCURVE",
"876 152 OFFCURVE",
"883 176 CURVE",
"854 247 OFFCURVE",
"822 283 OFFCURVE",
"747 283 CURVE SMOOTH",
"693 283 OFFCURVE",
"637 245 OFFCURVE",
"591 199 CURVE SMOOTH",
"559 167 OFFCURVE",
"532 135 OFFCURVE",
"514 106 CURVE",
"486 108 OFFCURVE",
"464 112 OFFCURVE",
"447 122 CURVE SMOOTH",
"429 132 OFFCURVE",
"416 149 OFFCURVE",
"406 178 CURVE",
"390 162 LINE",
"390 162 OFFCURVE",
"386 149 OFFCURVE",
"386 129 CURVE SMOOTH",
"386 105 OFFCURVE",
"393 69 OFFCURVE",
"421 33 CURVE SMOOTH",
"435 16 OFFCURVE",
"461 -16 OFFCURVE",
"468 -25 CURVE",
"463 -41 OFFCURVE",
"442 -85 OFFCURVE",
"374 -108 CURVE SMOOTH",
"351 -115 OFFCURVE",
"322 -120 OFFCURVE",
"287 -120 CURVE SMOOTH",
"229 -120 OFFCURVE",
"190 -106 OFFCURVE",
"163 -86 CURVE SMOOTH",
"116 -52 OFFCURVE",
"109 -9 OFFCURVE",
"109 9 CURVE SMOOTH",
"109 65 OFFCURVE",
"128 95 OFFCURVE",
"143 115 CURVE",
"127 131 LINE",
"107 108 OFFCURVE",
"95 83 OFFCURVE",
"87 57 CURVE SMOOTH",
"70 7 OFFCURVE",
"70 -39 OFFCURVE",
"70 -51 CURVE SMOOTH",
"70 -83 OFFCURVE",
"80 -144 OFFCURVE",
"126 -187 CURVE SMOOTH",
"157 -217 OFFCURVE",
"205 -238 OFFCURVE",
"276 -238 CURVE SMOOTH",
"335 -238 OFFCURVE",
"395 -222 OFFCURVE",
"439 -185 CURVE SMOOTH",
"477 -152 OFFCURVE",
"502 -103 OFFCURVE",
"503 -32 CURVE SMOOTH",
"503 -22 OFFCURVE",
"503 -11 OFFCURVE",
"502 0 CURVE",
"542 -6 OFFCURVE",
"572 -10 OFFCURVE",
"618 -10 CURVE SMOOTH",
"754 -10 OFFCURVE",
"807 50 OFFCURVE",
"812 54 CURVE",
"815 46 OFFCURVE",
"835 0 OFFCURVE",
"903 0 CURVE SMOOTH",
"990 0 LINE",
"990 106 LINE",
"907 106 LINE SMOOTH"
);
},
{
closed = 1;
nodes = (
"556 102 OFFCURVE",
"575 130 OFFCURVE",
"606 155 CURVE SMOOTH",
"634 177 OFFCURVE",
"673 199 OFFCURVE",
"721 199 CURVE SMOOTH",
"747 199 OFFCURVE",
"767 190 OFFCURVE",
"780 180 CURVE SMOOTH",
"799 165 OFFCURVE",
"807 147 OFFCURVE",
"807 147 CURVE",
"805 143 OFFCURVE",
"777 102 OFFCURVE",
"643 102 CURVE SMOOTH",
"556 102 LINE SMOOTH"
);
}
);
width = 990;
}
);
unicode = FEBA;
},
{
glyphname = "sad-ar.medi";
lastChange = "2015-11-16 22:32:52 +0000";
layers = (
{
anchors = (
{
name = bottom;
position = "{308, -34}";
},
{
name = top;
position = "{419, 308}";
}
);
layerId = "51F41761-070F-43EA-B302-C90910850260";
name = Regular;
paths = (
{
closed = 1;
nodes = (
"577 106 OFFCURVE",
"561 109 OFFCURVE",
"550 115 CURVE",
"559 132 OFFCURVE",
"566 152 OFFCURVE",
"573 176 CURVE",
"563 202 OFFCURVE",
"552 223 OFFCURVE",
"538 240 CURVE SMOOTH",
"515 268 OFFCURVE",
"483 283 OFFCURVE",
"437 283 CURVE SMOOTH",
"392 283 OFFCURVE",
"346 257 OFFCURVE",
"306 222 CURVE SMOOTH",
"264 186 OFFCURVE",
"228 141 OFFCURVE",
"207 106 CURVE",
"192 106 OFFCURVE",
"166 114 OFFCURVE",
"152 130 CURVE SMOOTH",
"144 141 OFFCURVE",
"141 157 OFFCURVE",
"142 176 CURVE SMOOTH",
"142 176 OFFCURVE",
"127 184 OFFCURVE",
"127 184 CURVE",
"124 173 OFFCURVE",
"121 144 OFFCURVE",
"97 125 CURVE SMOOTH",
"84 114 OFFCURVE",
"65 106 OFFCURVE",
"36 106 CURVE SMOOTH",
"36 106 OFFCURVE",
"-17 106 OFFCURVE",
"-17 106 CURVE SMOOTH",
"-46 106 OFFCURVE",
"-70 82 OFFCURVE",
"-70 53 CURVE SMOOTH",
"-70 24 OFFCURVE",
"-46 0 OFFCURVE",
"-17 0 CURVE SMOOTH",
"18 0 LINE SMOOTH",
"101 0 OFFCURVE",
"119 44 OFFCURVE",
"123 55 CURVE",
"131 37 OFFCURVE",
"141 24 OFFCURVE",
"162 12 CURVE",
"159 4 OFFCURVE",
"149 -17 OFFCURVE",
"149 -17 CURVE",
"169 -39 LINE",
"192 0 LINE",
"236 -6 OFFCURVE",
"274 -10 OFFCURVE",
"308 -10 CURVE SMOOTH",
"396 -10 OFFCURVE",
"460 18 OFFCURVE",
"501 53 CURVE SMOOTH",
"501 53 OFFCURVE",
"501 54 OFFCURVE",
"502 54 CURVE",
"505 46 OFFCURVE",
"525 0 OFFCURVE",
"593 0 CURVE SMOOTH",
"680 0 LINE",
"680 106 LINE",
"597 106 LINE SMOOTH"
);
},
{
closed = 1;
nodes = (
"435 199 OFFCURVE",
"453 192 OFFCURVE",
"467 183 CURVE SMOOTH",
"489 167 OFFCURVE",
"498 147 OFFCURVE",
"498 147 CURVE",
"495 143 OFFCURVE",
"467 102 OFFCURVE",
"333 102 CURVE SMOOTH",
"249 102 LINE SMOOTH",
"249 102 OFFCURVE",
"268 133 OFFCURVE",
"303 159 CURVE SMOOTH",
"330 180 OFFCURVE",
"367 199 OFFCURVE",
"411 199 CURVE SMOOTH"
);
}
);
width = 680;
}
);
unicode = FEBC;
},
{
glyphname = "sad-ar.init";
lastChange = "2015-11-16 22:19:08 +0000";
layers = (
{
anchors = (
{
name = bottom;
position = "{309, -35}";
},
{
name = top;
position = "{419, 310}";
}
);
layerId = "51F41761-070F-43EA-B302-C90910850260";
name = Regular;
paths = (
{
closed = 1;
nodes = (
"562 206 OFFCURVE",
"549 231 OFFCURVE",
"531 249 CURVE SMOOTH",
"508 271 OFFCURVE",
"478 283 OFFCURVE",
"438 283 CURVE SMOOTH",
"385 283 OFFCURVE",
"330 247 OFFCURVE",
"286 204 CURVE SMOOTH",
"253 172 OFFCURVE",
"226 135 OFFCURVE",
"208 106 CURVE",
"189 106 OFFCURVE",
"165 113 OFFCURVE",
"153 129 CURVE SMOOTH",
"145 140 OFFCURVE",
"143 156 OFFCURVE",
"143 176 CURVE SMOOTH",
"143 176 OFFCURVE",
"128 184 OFFCURVE",
"128 184 CURVE",
"126 175 OFFCURVE",
"122 152 OFFCURVE",
"106 133 CURVE SMOOTH",
"93 118 OFFCURVE",
"72 106 OFFCURVE",
"36 106 CURVE SMOOTH",
"36 106 OFFCURVE",
"-17 106 OFFCURVE",
"-17 106 CURVE SMOOTH",
"-46 106 OFFCURVE",
"-70 82 OFFCURVE",
"-70 53 CURVE SMOOTH",
"-70 24 OFFCURVE",
"-46 0 OFFCURVE",
"-17 0 CURVE SMOOTH",
"18 0 LINE SMOOTH",
"101 0 OFFCURVE",
"119 44 OFFCURVE",
"123 55 CURVE",
"133 37 OFFCURVE",
"139 26 OFFCURVE",
"163 12 CURVE",
"161 8 OFFCURVE",
"155 -5 OFFCURVE",
"149 -17 CURVE",
"170 -39 LINE",
"192 0 LINE",
"236 -6 OFFCURVE",
"274 -10 OFFCURVE",
"309 -10 CURVE SMOOTH",
"396 -10 OFFCURVE",
"460 18 OFFCURVE",
"501 53 CURVE SMOOTH",
"541 87 OFFCURVE",
"557 119 OFFCURVE",
"573 176 CURVE"
);
},
{
closed = 1;
nodes = (
"439 199 OFFCURVE",
"458 190 OFFCURVE",
"472 179 CURVE SMOOTH",
"491 165 OFFCURVE",
"498 147 OFFCURVE",
"498 147 CURVE",
"495 144 OFFCURVE",
"483 127 OFFCURVE",
"442 115 CURVE SMOOTH",
"418 108 OFFCURVE",
"383 102 OFFCURVE",
"334 102 CURVE SMOOTH",
"250 102 LINE SMOOTH",
"250 102 OFFCURVE",
"267 132 OFFCURVE",
"299 156 CURVE SMOOTH",
"326 178 OFFCURVE",
"365 199 OFFCURVE",
"412 199 CURVE SMOOTH"
);
}
);
width = 633;
}
);
unicode = FEBB;
},
{
glyphname = "tah-ar";
lastChange = "2015-11-16 22:28:17 +0000";
layers = (
{
anchors = (
{
name = bottom;
position = "{355, -34}";
},
{
name = top;
position = "{482, 311}";
}
);
layerId = "51F41761-070F-43EA-B302-C90910850260";
name = Regular;
paths = (
{
closed = 1;
nodes = (
"426 285 OFFCURVE",
"379 255 OFFCURVE",
"337 216 CURVE",
"350 266 OFFCURVE",
"346 343 OFFCURVE",
"341 389 CURVE SMOOTH",
"336 437 OFFCURVE",
"324 503 OFFCURVE",
"318 534 CURVE SMOOTH",
"312 566 OFFCURVE",
"317 580 OFFCURVE",
"339 596 CURVE",
"310 617 OFFCURVE",
"289 645 OFFCURVE",
"273 683 CURVE",
"243 679 OFFCURVE",
"230 652 OFFCURVE",
"225 635 CURVE SMOOTH",
"218 611 OFFCURVE",
"220 581 OFFCURVE",
"220 581 CURVE",
"236 567 LINE",
"258 512 OFFCURVE",
"269 457 OFFCURVE",
"278 392 CURVE SMOOTH",
"287 327 OFFCURVE",
"292 265 OFFCURVE",
"292 169 CURVE",
"275 149 OFFCURVE",
"258 126 OFFCURVE",
"247 108 CURVE",
"247 108 OFFCURVE",
"203 106 OFFCURVE",
"179 106 CURVE SMOOTH",
"141 106 OFFCURVE",
"70 111 OFFCURVE",
"70 111 CURVE",
"136 -3 LINE",
"195 -2 LINE",
"193 -6 OFFCURVE",
"191 -10 OFFCURVE",
"188 -15 CURVE",
"209 -37 LINE",
"230 -1 LINE",
"355 2 LINE SMOOTH",
"433 3 OFFCURVE",
"483 18 OFFCURVE",
"519 40 CURVE SMOOTH",
"549 58 OFFCURVE",
"569 81 OFFCURVE",
"583 104 CURVE SMOOTH",
"603 136 OFFCURVE",
"609 166 OFFCURVE",
"613 178 CURVE",
"601 206 OFFCURVE",
"589 229 OFFCURVE",
"573 247 CURVE SMOOTH",
"550 272 OFFCURVE",
"518 285 OFFCURVE",
"481 285 CURVE SMOOTH"
);
},
{
closed = 1;
nodes = (
"289 106 LINE SMOOTH",
"289 106 OFFCURVE",
"307 134 OFFCURVE",
"339 160 CURVE SMOOTH",
"367 183 OFFCURVE",
"406 203 OFFCURVE",
"450 203 CURVE SMOOTH",
"474 203 OFFCURVE",
"495 197 OFFCURVE",
"511 183 CURVE SMOOTH",
"520 175 OFFCURVE",
"529 164 OFFCURVE",
"537 151 CURVE",
"499 118 OFFCURVE",
"453 106 OFFCURVE",
"373 106 CURVE SMOOTH"
);
}
);
width = 673;
}
);
unicode = 0637;
},
{
glyphname = "tah-ar.fina";
lastChange = "2015-11-16 22:30:41 +0000";
layers = (
{
anchors = (
{
name = bottom;
position = "{348, -34}";
},
{
name = top;
position = "{473, 309}";
}
);
layerId = "51F41761-070F-43EA-B302-C90910850260";
name = Regular;
paths = (
{
closed = 1;
nodes = (
"616 106 OFFCURVE",
"601 109 OFFCURVE",
"590 114 CURVE",
"599 132 OFFCURVE",
"606 152 OFFCURVE",
"613 176 CURVE",
"603 204 OFFCURVE",
"591 227 OFFCURVE",
"574 245 CURVE SMOOTH",
"552 268 OFFCURVE",
"522 283 OFFCURVE",
"482 283 CURVE SMOOTH",
"427 283 OFFCURVE",
"382 255 OFFCURVE",
"337 214 CURVE",
"350 275 OFFCURVE",
"347 338 OFFCURVE",
"339 404 CURVE SMOOTH",
"332 464 OFFCURVE",
"322 512 OFFCURVE",
"319 532 CURVE SMOOTH",
"314 562 OFFCURVE",
"320 575 OFFCURVE",
"339 594 CURVE",
"309 616 OFFCURVE",
"291 641 OFFCURVE",
"273 681 CURVE",
"247 677 OFFCURVE",
"234 659 OFFCURVE",
"227 639 CURVE SMOOTH",
"217 610 OFFCURVE",
"220 579 OFFCURVE",
"220 579 CURVE",
"236 565 LINE",
"252 524 OFFCURVE",
"266 470 OFFCURVE",
"275 411 CURVE SMOOTH",
"286 339 OFFCURVE",
"291 257 OFFCURVE",
"292 167 CURVE",
"275 147 OFFCURVE",
"259 124 OFFCURVE",
"248 106 CURVE",
"248 106 OFFCURVE",
"191 106 OFFCURVE",
"175 106 CURVE SMOOTH",
"144 106 OFFCURVE",
"70 109 OFFCURVE",
"70 109 CURVE",
"137 -5 LINE",
"195 -4 LINE",
"192 -11 OFFCURVE",
"189 -17 OFFCURVE",
"189 -17 CURVE",
"209 -39 LINE",
"230 -3 LINE",
"348 0 LINE SMOOTH",
"415 1 OFFCURVE",
"451 8 OFFCURVE",
"490 24 CURVE SMOOTH",
"531 41 OFFCURVE",
"541 53 OFFCURVE",
"541 53 CURVE",
"545 44 OFFCURVE",
"566 0 OFFCURVE",
"632 0 CURVE SMOOTH",
"719 0 LINE",
"719 106 LINE",
"637 106 LINE SMOOTH"
);
},
{
closed = 1;
nodes = (
"289 106 LINE SMOOTH",
"289 106 OFFCURVE",
"308 136 OFFCURVE",
"343 163 CURVE SMOOTH",
"370 184 OFFCURVE",
"407 203 OFFCURVE",
"451 203 CURVE SMOOTH",
"477 203 OFFCURVE",
"495 196 OFFCURVE",
"511 183 CURVE SMOOTH",
"521 175 OFFCURVE",
"529 164 OFFCURVE",
"538 151 CURVE",
"534 147 OFFCURVE",
"507 106 OFFCURVE",
"373 106 CURVE SMOOTH"
);
}
);
width = 719;
}
);
unicode = FEC2;
},
{
glyphname = "tah-ar.medi";
lastChange = "2015-11-16 22:29:32 +0000";
layers = (
{
anchors = (
{
name = bottom;
position = "{134, -35}";
},
{
name = top;
position = "{257, 308}";
}
);
layerId = "51F41761-070F-43EA-B302-C90910850260";
name = Regular;
paths = (
{
closed = 1;
nodes = (
"402 106 OFFCURVE",
"387 109 OFFCURVE",
"376 114 CURVE",
"384 132 OFFCURVE",
"391 152 OFFCURVE",
"398 176 CURVE",
"398 176 OFFCURVE",
"390 214 OFFCURVE",
"359 245 CURVE SMOOTH",
"340 264 OFFCURVE",
"310 283 OFFCURVE",
"266 283 CURVE SMOOTH",
"216 283 OFFCURVE",
"171 258 OFFCURVE",
"123 214 CURVE",
"135 279 OFFCURVE",
"134 344 OFFCURVE",
"127 397 CURVE SMOOTH",
"122 438 OFFCURVE",
"107 515 OFFCURVE",
"104 532 CURVE SMOOTH",
"99 563 OFFCURVE",
"106 576 OFFCURVE",
"125 594 CURVE",
"92 617 OFFCURVE",
"75 642 OFFCURVE",
"59 681 CURVE",
"29 677 OFFCURVE",
"16 652 OFFCURVE",
"10 628 CURVE SMOOTH",
"4 603 OFFCURVE",
"6 579 OFFCURVE",
"6 579 CURVE",
"21 565 LINE",
"42 514 OFFCURVE",
"58 447 OFFCURVE",
"66 386 CURVE SMOOTH",
"74 324 OFFCURVE",
"78 241 OFFCURVE",
"78 167 CURVE",
"60 146 OFFCURVE",
"44 125 OFFCURVE",
"33 106 CURVE",
"-17 106 LINE SMOOTH",
"-46 106 OFFCURVE",
"-70 82 OFFCURVE",
"-70 53 CURVE SMOOTH",
"-70 24 OFFCURVE",
"-46 0 OFFCURVE",
"-17 0 CURVE SMOOTH",
"134 0 LINE SMOOTH",
"198 0 OFFCURVE",
"241 10 OFFCURVE",
"276 24 CURVE SMOOTH",
"314 39 OFFCURVE",
"327 53 OFFCURVE",
"327 53 CURVE",
"330 44 OFFCURVE",
"351 0 OFFCURVE",
"418 0 CURVE SMOOTH",
"505 0 LINE",
"505 106 LINE",
"422 106 LINE SMOOTH"
);
},
{
closed = 1;
nodes = (
"75 106 LINE SMOOTH",
"75 106 OFFCURVE",
"89 128 OFFCURVE",
"113 150 CURVE SMOOTH",
"137 172 OFFCURVE",
"182 203 OFFCURVE",
"236 203 CURVE SMOOTH",
"261 203 OFFCURVE",
"281 196 OFFCURVE",
"296 184 CURVE SMOOTH",
"306 176 OFFCURVE",
"315 165 OFFCURVE",
"323 151 CURVE",
"320 147 OFFCURVE",
"292 106 OFFCURVE",
"159 106 CURVE SMOOTH"
);
}
);
width = 505;
}
);
unicode = FEC4;
},
{
glyphname = "tah-ar.init";
lastChange = "2015-11-16 22:27:59 +0000";
layers = (
{
anchors = (
{
name = bottom;
position = "{134, -34}";
},
{
name = top;
position = "{263, 309}";
}
);
layerId = "51F41761-070F-43EA-B302-C90910850260";
name = Regular;
paths = (
{
closed = 1;
nodes = (
"214 283 OFFCURVE",
"165 253 OFFCURVE",
"123 215 CURVE",
"134 274 OFFCURVE",
"133 333 OFFCURVE",
"126 391 CURVE SMOOTH",
"121 438 OFFCURVE",
"112 485 OFFCURVE",
"104 532 CURVE SMOOTH",
"99 562 OFFCURVE",
"105 575 OFFCURVE",
"125 594 CURVE",
"94 616 OFFCURVE",
"76 642 OFFCURVE",
"59 682 CURVE",
"33 678 OFFCURVE",
"19 658 OFFCURVE",
"12 637 CURVE SMOOTH",
"3 609 OFFCURVE",
"6 579 OFFCURVE",
"6 579 CURVE",
"21 565 LINE",
"39 511 OFFCURVE",
"54 458 OFFCURVE",
"64 390 CURVE SMOOTH",
"73 331 OFFCURVE",
"78 260 OFFCURVE",
"78 168 CURVE",
"60 146 OFFCURVE",
"44 124 OFFCURVE",
"33 106 CURVE",
"-17 106 LINE SMOOTH",
"-46 106 OFFCURVE",
"-70 82 OFFCURVE",
"-70 53 CURVE SMOOTH",
"-70 24 OFFCURVE",
"-46 0 OFFCURVE",
"-17 0 CURVE",
"-17 0 OFFCURVE",
"100 0 OFFCURVE",
"134 0 CURVE SMOOTH",
"221 0 OFFCURVE",
"285 18 OFFCURVE",
"326 53 CURVE SMOOTH",
"366 87 OFFCURVE",
"382 120 OFFCURVE",
"398 177 CURVE",
"388 204 OFFCURVE",
"376 226 OFFCURVE",
"361 243 CURVE SMOOTH",
"338 269 OFFCURVE",
"307 283 OFFCURVE",
"263 283 CURVE SMOOTH"
);
},
{
closed = 1;
nodes = (
"75 106 LINE SMOOTH",
"75 106 OFFCURVE",
"135 203 OFFCURVE",
"238 203 CURVE SMOOTH",
"279 203 OFFCURVE",
"298 188 OFFCURVE",
"323 151 CURVE",
"284 118 OFFCURVE",
"238 106 OFFCURVE",
"159 106 CURVE SMOOTH"
);
}
);
width = 458;
}
);
unicode = FEC3;
},
{
glyphname = "ain-ar";
lastChange = "2015-11-16 22:47:53 +0000";
layers = (
{
anchors = (
{
name = bottom;
position = "{329, -396}";
},
{
name = top;
position = "{252, 399}";
}
);
layerId = "51F41761-070F-43EA-B302-C90910850260";
name = Regular;
paths = (
{
closed = 1;
nodes = (
"315 -269 OFFCURVE",
"253 -255 OFFCURVE",
"210 -233 CURVE SMOOTH",
"157 -206 OFFCURVE",
"130 -167 OFFCURVE",
"130 -126 CURVE SMOOTH",
"130 -62 OFFCURVE",
"171 -17 OFFCURVE",
"222 14 CURVE SMOOTH",
"287 54 OFFCURVE",
"369 72 OFFCURVE",
"404 82 CURVE",
"450 185 LINE",
"356 162 OFFCURVE",
"274 142 OFFCURVE",
"273 142 CURVE",
"255 151 OFFCURVE",
"229 168 OFFCURVE",
"216 179 CURVE SMOOTH",
"197 194 OFFCURVE",
"179 213 OFFCURVE",
"164 235 CURVE",
"172 244 OFFCURVE",
"204 277 OFFCURVE",
"261 277 CURVE SMOOTH",
"300 277 OFFCURVE",
"326 264 OFFCURVE",
"363 238 CURVE",
"392 275 LINE",
"376 302 OFFCURVE",
"361 323 OFFCURVE",
"336 341 CURVE SMOOTH",
"316 355 OFFCURVE",
"289 366 OFFCURVE",
"256 366 CURVE SMOOTH",
"200 366 OFFCURVE",
"165 334 OFFCURVE",
"143 300 CURVE SMOOTH",
"131 280 OFFCURVE",
"121 258 OFFCURVE",
"112 222 CURVE",
"112 205 OFFCURVE",
"113 180 OFFCURVE",
"126 151 CURVE SMOOTH",
"135 130 OFFCURVE",
"151 106 OFFCURVE",
"178 82 CURVE",
"153 61 OFFCURVE",
"126 33 OFFCURVE",
"105 -4 CURVE SMOOTH",
"84 -40 OFFCURVE",
"70 -84 OFFCURVE",
"70 -138 CURVE SMOOTH",
"70 -216 OFFCURVE",
"101 -275 OFFCURVE",
"149 -315 CURVE SMOOTH",
"200 -358 OFFCURVE",
"279 -370 OFFCURVE",
"349 -370 CURVE SMOOTH",
"418 -370 LINE",
"505 -269 LINE",
"399 -269 LINE SMOOTH"
);
}
);
width = 515;
}
);
unicode = 0639;
},
{
glyphname = "ain-ar.fina";
lastChange = "2015-11-17 00:02:40 +0000";
layers = (
{
anchors = (
{
name = bottom;
position = "{310, -396}";
},
{
name = top;
position = "{304, 302}";
}
);
layerId = "51F41761-070F-43EA-B302-C90910850260";
name = Regular;
paths = (
{
closed = 1;
nodes = (
"272 41 OFFCURVE",
"250 30 OFFCURVE",
"306 57 CURVE",
"324 26 OFFCURVE",
"351 0 OFFCURVE",
"436 0 CURVE SMOOTH",
"559 0 LINE",
"559 106 LINE",
"452 106 LINE SMOOTH",
"419 106 OFFCURVE",
"409 106 OFFCURVE",
"396 111 CURVE",
"417 130 OFFCURVE",
"423 136 OFFCURVE",
"442 152 CURVE",
"456 239 LINE",
"426 263 OFFCURVE",
"372 285 OFFCURVE",
"309 285 CURVE SMOOTH",
"257 285 OFFCURVE",
"210 270 OFFCURVE",
"171 239 CURVE",
"158 168 LINE",
"187 177 OFFCURVE",
"210 174 OFFCURVE",
"231 159 CURVE SMOOTH",
"245 149 OFFCURVE",
"258 135 OFFCURVE",
"272 115 CURVE",
"252 106 OFFCURVE",
"226 93 OFFCURVE",
"206 81 CURVE SMOOTH",
"177 64 OFFCURVE",
"138 34 OFFCURVE",
"111 -4 CURVE SMOOTH",
"86 -39 OFFCURVE",
"70 -82 OFFCURVE",
"70 -138 CURVE SMOOTH",
"70 -219 OFFCURVE",
"104 -278 OFFCURVE",
"150 -315 CURVE SMOOTH",
"204 -359 OFFCURVE",
"275 -370 OFFCURVE",
"350 -370 CURVE SMOOTH",
"418 -370 LINE",
"506 -269 LINE",
"400 -269 LINE SMOOTH",
"315 -269 OFFCURVE",
"253 -255 OFFCURVE",
"210 -233 CURVE SMOOTH",
"161 -208 OFFCURVE",
"131 -170 OFFCURVE",
"131 -124 CURVE SMOOTH",
"131 -91 OFFCURVE",
"146 -59 OFFCURVE",
"165 -36 CURVE SMOOTH",
"185 -12 OFFCURVE",
"213 9 OFFCURVE",
"244 26 CURVE SMOOTH"
);
},
{
closed = 1;
nodes = (
"371 181 OFFCURVE",
"352 168 OFFCURVE",
"332 156 CURVE",
"317 184 OFFCURVE",
"295 201 OFFCURVE",
"281 211 CURVE",
"315 215 OFFCURVE",
"350 211 OFFCURVE",
"388 197 CURVE"
);
}
);
width = 559;
}
);
unicode = FECA;
},
{
glyphname = "ain-ar.medi";
lastChange = "2015-11-17 00:00:43 +0000";
layers = (
{
anchors = (
{
name = bottom;
position = "{202, -34}";
},
{
name = top;
position = "{196, 302}";
}
);
layerId = "51F41761-070F-43EA-B302-C90910850260";
name = Regular;
paths = (
{
closed = 1;
nodes = (
"311 106 OFFCURVE",
"301 106 OFFCURVE",
"288 111 CURVE",
"309 130 OFFCURVE",
"315 136 OFFCURVE",
"334 152 CURVE",
"348 239 LINE",
"318 263 OFFCURVE",
"264 285 OFFCURVE",
"200 285 CURVE SMOOTH",
"149 285 OFFCURVE",
"102 270 OFFCURVE",
"63 239 CURVE",
"50 168 LINE",
"72 176 OFFCURVE",
"96 176 OFFCURVE",
"118 163 CURVE SMOOTH",
"131 155 OFFCURVE",
"144 142 OFFCURVE",
"156 125 CURVE",
"128 116 OFFCURVE",
"82 106 OFFCURVE",
"44 106 CURVE SMOOTH",
"-17 106 LINE SMOOTH",
"-46 106 OFFCURVE",
"-70 81 OFFCURVE",
"-70 52 CURVE SMOOTH",
"-70 24 OFFCURVE",
"-46 0 OFFCURVE",
"-17 0 CURVE SMOOTH",
"30 0 LINE SMOOTH",
"91 0 OFFCURVE",
"162 22 OFFCURVE",
"202 53 CURVE",
"213 36 OFFCURVE",
"229 0 OFFCURVE",
"328 0 CURVE SMOOTH",
"451 0 LINE",
"451 106 LINE",
"344 106 LINE SMOOTH"
);
},
{
closed = 1;
nodes = (
"209 184 OFFCURVE",
"187 201 OFFCURVE",
"173 211 CURVE",
"207 215 OFFCURVE",
"242 211 OFFCURVE",
"280 197 CURVE",
"263 181 OFFCURVE",
"244 168 OFFCURVE",
"224 156 CURVE"
);
}
);
width = 441;
}
);
unicode = FECC;
},
{
glyphname = "ain-ar.init";
lastChange = "2015-11-16 22:45:02 +0000";
layers = (
{
anchors = (
{
name = bottom;
position = "{171, -35}";
},
{
name = top;
position = "{170, 385}";
}
);
layerId = "51F41761-070F-43EA-B302-C90910850260";
name = Regular;
paths = (
{
closed = 1;
nodes = (
"161 138 OFFCURVE",
"142 152 OFFCURVE",
"133 159 CURVE SMOOTH",
"117 172 OFFCURVE",
"96 195 OFFCURVE",
"81 218 CURVE",
"89 228 OFFCURVE",
"121 261 OFFCURVE",
"178 261 CURVE SMOOTH",
"214 261 OFFCURVE",
"241 248 OFFCURVE",
"280 221 CURVE",
"309 259 LINE",
"294 288 OFFCURVE",
"278 310 OFFCURVE",
"253 328 CURVE SMOOTH",
"236 340 OFFCURVE",
"209 354 OFFCURVE",
"173 354 CURVE SMOOTH",
"118 354 OFFCURVE",
"82 320 OFFCURVE",
"60 285 CURVE SMOOTH",
"45 261 OFFCURVE",
"37 239 OFFCURVE",
"29 204 CURVE",
"29 166 OFFCURVE",
"44 124 OFFCURVE",
"56 110 CURVE",
"45 107 OFFCURVE",
"29 106 OFFCURVE",
"11 106 CURVE SMOOTH",
"-17 106 LINE SMOOTH",
"-46 106 OFFCURVE",
"-70 82 OFFCURVE",
"-70 53 CURVE SMOOTH",
"-70 24 OFFCURVE",
"-46 0 OFFCURVE",
"-17 0 CURVE SMOOTH",
"18 0 LINE SMOOTH",
"70 0 OFFCURVE",
"118 6 OFFCURVE",
"182 20 CURVE SMOOTH",
"222 29 OFFCURVE",
"266 41 OFFCURVE",
"320 56 CURVE",
"367 166 LINE",
"346 160 OFFCURVE",
"302 148 OFFCURVE",
"269 141 CURVE SMOOTH",
"241 135 OFFCURVE",
"206 130 OFFCURVE",
"179 129 CURVE"
);
}
);
width = 427;
}
);
unicode = FECB;
},
{
glyphname = "dotlessfeh-ar";
lastChange = "2015-11-17 00:24:06 +0000";
layers = (
{
anchors = (
{
name = bottom;
position = "{426, -64}";
},
{
name = top;
position = "{725, 368}";
}
);
layerId = "51F41761-070F-43EA-B302-C90910850260";
name = Regular;
paths = (
{
closed = 1;
nodes = (
"856 259 OFFCURVE",
"841 298 OFFCURVE",
"819 321 CURVE SMOOTH",
"800 341 OFFCURVE",
"772 353 OFFCURVE",
"738 353 CURVE SMOOTH",
"681 353 OFFCURVE",
"642 319 OFFCURVE",
"642 260 CURVE SMOOTH",
"642 193 LINE",
"642 193 OFFCURVE",
"678 190 OFFCURVE",
"710 178 CURVE SMOOTH",
"726 172 OFFCURVE",
"745 163 OFFCURVE",
"762 143 CURVE",
"741 133 OFFCURVE",
"697 117 OFFCURVE",
"634 104 CURVE SMOOTH",
"580 93 OFFCURVE",
"509 83 OFFCURVE",
"425 83 CURVE SMOOTH",
"277 83 OFFCURVE",
"207 114 OFFCURVE",
"183 128 CURVE SMOOTH",
"149 148 OFFCURVE",
"118 188 OFFCURVE",
"118 250 CURVE SMOOTH",
"118 294 OFFCURVE",
"134 327 OFFCURVE",
"142 341 CURVE",
"126 356 LINE",
"97 330 OFFCURVE",
"70 255 OFFCURVE",
"70 191 CURVE SMOOTH",
"70 121 OFFCURVE",
"103 67 OFFCURVE",
"154 32 CURVE SMOOTH",
"210 -6 OFFCURVE",
"292 -24 OFFCURVE",
"394 -24 CURVE SMOOTH",
"470 -24 OFFCURVE",
"550 -14 OFFCURVE",
"612 0 CURVE SMOOTH",
"709 22 OFFCURVE",
"766 55 OFFCURVE",
"805 84 CURVE",
"817 66 OFFCURVE",
"821 52 OFFCURVE",
"824 32 CURVE",
"824 32 OFFCURVE",
"833 66 OFFCURVE",
"828 109 CURVE",
"828 109 OFFCURVE",
"856 152 OFFCURVE",
"856 214 CURVE SMOOTH"
);
},
{
closed = 1;
nodes = (
"776 264 OFFCURVE",
"789 256 OFFCURVE",
"797 249 CURVE SMOOTH",
"810 237 OFFCURVE",
"817 218 OFFCURVE",
"817 199 CURVE SMOOTH",
"817 187 OFFCURVE",
"814 177 OFFCURVE",
"810 169 CURVE",
"799 191 OFFCURVE",
"780 212 OFFCURVE",
"753 228 CURVE SMOOTH",
"743 234 OFFCURVE",
"723 244 OFFCURVE",
"704 248 CURVE",
"725 259 OFFCURVE",
"743 264 OFFCURVE",
"758 264 CURVE SMOOTH"
);
}
);
width = 916;
}
);
unicode = 06A1;
},
{
glyphname = "dotlessfeh-ar.fina";
lastChange = "2015-11-17 00:23:54 +0000";
layers = (
{
anchors = (
{
name = bottom;
position = "{426, -64}";
},
{
name = top;
position = "{741, 336}";
}
);
layerId = "51F41761-070F-43EA-B302-C90910850260";
name = Regular;
paths = (
{
closed = 1;
nodes = (
"859 106 OFFCURVE",
"839 106 OFFCURVE",
"820 109 CURVE",
"820 109 OFFCURVE",
"839 129 OFFCURVE",
"839 167 CURVE SMOOTH",
"840 208 LINE SMOOTH",
"840 244 OFFCURVE",
"837 321 OFFCURVE",
"772 321 CURVE SMOOTH",
"742 321 OFFCURVE",
"715 304 OFFCURVE",
"700 289 CURVE SMOOTH",
"668 257 OFFCURVE",
"661 214 OFFCURVE",
"662 179 CURVE SMOOTH",
"663 152 LINE SMOOTH",
"663 141 OFFCURVE",
"667 125 OFFCURVE",
"671 113 CURVE",
"660 110 OFFCURVE",
"645 106 OFFCURVE",
"635 104 CURVE SMOOTH",
"585 93 OFFCURVE",
"503 85 OFFCURVE",
"422 85 CURVE SMOOTH",
"277 85 OFFCURVE",
"212 111 OFFCURVE",
"183 129 CURVE SMOOTH",
"149 150 OFFCURVE",
"118 188 OFFCURVE",
"118 250 CURVE SMOOTH",
"118 295 OFFCURVE",
"134 326 OFFCURVE",
"142 341 CURVE",
"126 357 LINE",
"98 329 OFFCURVE",
"70 257 OFFCURVE",
"70 192 CURVE SMOOTH",
"70 118 OFFCURVE",
"106 66 OFFCURVE",
"154 33 CURVE SMOOTH",
"214 -8 OFFCURVE",
"295 -23 OFFCURVE",
"396 -23 CURVE SMOOTH",
"474 -23 OFFCURVE",
"553 -14 OFFCURVE",
"613 0 CURVE SMOOTH",
"659 11 OFFCURVE",
"701 26 OFFCURVE",
"734 42 CURVE",
"776 12 OFFCURVE",
"817 0 OFFCURVE",
"874 0 CURVE SMOOTH",
"983 0 LINE",
"983 106 LINE",
"875 106 LINE SMOOTH"
);
},
{
closed = 1;
nodes = (
"698 142 OFFCURVE",
"682 173 OFFCURVE",
"682 173 CURVE",
"703 204 OFFCURVE",
"732 217 OFFCURVE",
"760 217 CURVE SMOOTH",
"794 217 OFFCURVE",
"816 198 OFFCURVE",
"816 198 CURVE",
"796 164 OFFCURVE",
"766 145 OFFCURVE",
"729 131 CURVE"
);
}
);
width = 983;
}
);
},
{
glyphname = "dotlessfeh-ar.medi";
lastChange = "2015-11-17 00:40:23 +0000";
layers = (
{
anchors = (
{
name = bottom;
position = "{161, -34}";
},
{
name = top;
position = "{155, 334}";
}
);
layerId = "51F41761-070F-43EA-B302-C90910850260";
name = Regular;
paths = (
{
closed = 1;
nodes = (
"281 106 OFFCURVE",
"245 107 OFFCURVE",
"233 109 CURVE",
"233 109 OFFCURVE",
"253 129 OFFCURVE",
"253 167 CURVE SMOOTH",
"253 202 LINE SMOOTH",
"253 246 OFFCURVE",
"251 321 OFFCURVE",
"185 321 CURVE SMOOTH",
"161 321 OFFCURVE",
"136 311 OFFCURVE",
"114 289 CURVE SMOOTH",
"81 256 OFFCURVE",
"76 224 OFFCURVE",
"76 179 CURVE SMOOTH",
"76 152 LINE SMOOTH",
"76 141 OFFCURVE",
"79 126 OFFCURVE",
"85 111 CURVE",
"78 107 OFFCURVE",
"67 106 OFFCURVE",
"43 106 CURVE SMOOTH",
"-17 106 LINE SMOOTH",
"-46 106 OFFCURVE",
"-70 82 OFFCURVE",
"-70 53 CURVE SMOOTH",
"-70 24 OFFCURVE",
"-46 0 OFFCURVE",
"-17 0 CURVE SMOOTH",
"36 0 LINE SMOOTH",
"89 0 OFFCURVE",
"140 20 OFFCURVE",
"156 36 CURVE",
"196 9 OFFCURVE",
"236 0 OFFCURVE",
"288 0 CURVE SMOOTH",
"366 0 LINE",
"366 106 LINE",
"288 106 LINE SMOOTH"
);
},
{
closed = 1;
nodes = (
"111 142 OFFCURVE",
"95 173 OFFCURVE",
"95 173 CURVE",
"117 204 OFFCURVE",
"145 217 OFFCURVE",
"173 217 CURVE SMOOTH",
"207 217 OFFCURVE",
"230 198 OFFCURVE",
"230 198 CURVE",
"210 164 OFFCURVE",
"179 145 OFFCURVE",
"142 131 CURVE"
);
}
);
width = 366;
}
);
},
{
glyphname = "dotlessfeh-ar.init";
lastChange = "2015-11-17 00:05:54 +0000";
layers = (
{
anchors = (
{
name = bottom;
position = "{72, -34}";
},
{
name = top;
position = "{98, 335}";
}
);
layerId = "51F41761-070F-43EA-B302-C90910850260";
name = Regular;
paths = (
{
closed = 1;
nodes = (
"209 227 OFFCURVE",
"194 266 OFFCURVE",
"172 289 CURVE SMOOTH",
"153 309 OFFCURVE",
"125 321 OFFCURVE",
"91 321 CURVE SMOOTH",
"34 321 OFFCURVE",
"-5 287 OFFCURVE",
"-5 228 CURVE SMOOTH",
"-5 161 LINE",
"-5 161 OFFCURVE",
"35 157 OFFCURVE",
"63 146 CURVE SMOOTH",
"81 139 OFFCURVE",
"103 127 OFFCURVE",
"115 111 CURVE",
"115 111 OFFCURVE",
"81 107 OFFCURVE",
"54 106 CURVE",
"-17 106 LINE SMOOTH",
"-46 106 OFFCURVE",
"-70 82 OFFCURVE",
"-70 53 CURVE SMOOTH",
"-70 24 OFFCURVE",
"-46 0 OFFCURVE",
"-17 0 CURVE SMOOTH",
"40 0 LINE SMOOTH",
"76 0 OFFCURVE",
"129 14 OFFCURVE",
"161 50 CURVE",
"167 40 OFFCURVE",
"174 21 OFFCURVE",
"176 0 CURVE",
"176 0 OFFCURVE",
"186 35 OFFCURVE",
"181 77 CURVE",
"201 112 OFFCURVE",
"209 149 OFFCURVE",
"209 182 CURVE SMOOTH"
);
},
{
closed = 1;
nodes = (
"152 159 OFFCURVE",
"135 178 OFFCURVE",
"106 196 CURVE SMOOTH",
"90 206 OFFCURVE",
"75 212 OFFCURVE",
"57 216 CURVE",
"77 228 OFFCURVE",
"96 232 OFFCURVE",
"111 232 CURVE SMOOTH",
"130 232 OFFCURVE",
"141 225 OFFCURVE",
"149 217 CURVE SMOOTH",
"161 205 OFFCURVE",
"169 192 OFFCURVE",
"169 168 CURVE SMOOTH",
"169 156 OFFCURVE",
"167 145 OFFCURVE",
"163 137 CURVE"
);
}
);
width = 269;
}
);
},
{
glyphname = "dotlessqaf-ar";
lastChange = "2015-11-17 02:20:01 +0000";
layers = (
{
anchors = (
{
name = bottom;
position = "{275, -265}";
},
{
name = top;
position = "{365, 277}";
}
);
layerId = "51F41761-070F-43EA-B302-C90910850260";
name = Regular;
paths = (
{
closed = 1;
nodes = (
"320 262 OFFCURVE",
"282 221 OFFCURVE",
"282 178 CURVE SMOOTH",
"282 90 LINE SMOOTH",
"283 71 OFFCURVE",
"287 40 OFFCURVE",
"320 19 CURVE SMOOTH",
"338 8 OFFCURVE",
"366 0 OFFCURVE",
"408 0 CURVE",
"435 51 LINE",
"441 31 OFFCURVE",
"454 -9 OFFCURVE",
"461 -34 CURVE",
"448 -68 OFFCURVE",
"402 -121 OFFCURVE",
"289 -121 CURVE SMOOTH",
"231 -121 OFFCURVE",
"190 -107 OFFCURVE",
"163 -88 CURVE SMOOTH",
"114 -54 OFFCURVE",
"109 -3 OFFCURVE",
"109 17 CURVE SMOOTH",
"109 58 OFFCURVE",
"129 97 OFFCURVE",
"143 114 CURVE",
"127 130 LINE",
"107 107 OFFCURVE",
"94 80 OFFCURVE",
"86 56 CURVE SMOOTH",
"71 11 OFFCURVE",
"70 -38 OFFCURVE",
"70 -49 CURVE SMOOTH",
"70 -85 OFFCURVE",
"80 -145 OFFCURVE",
"126 -188 CURVE SMOOTH",
"157 -217 OFFCURVE",
"206 -239 OFFCURVE",
"275 -239 CURVE SMOOTH",
"337 -239 OFFCURVE",
"395 -221 OFFCURVE",
"435 -188 CURVE SMOOTH",
"474 -156 OFFCURVE",
"507 -102 OFFCURVE",
"507 -14 CURVE SMOOTH",
"507 44 OFFCURVE",
"493 113 OFFCURVE",
"473 163 CURVE SMOOTH",
"449 223 OFFCURVE",
"414 262 OFFCURVE",
"368 262 CURVE SMOOTH"
);
},
{
closed = 1;
nodes = (
"317 106 OFFCURVE",
"313 128 OFFCURVE",
"313 128 CURVE SMOOTH",
"313 128 OFFCURVE",
"329 167 OFFCURVE",
"362 167 CURVE SMOOTH",
"403 167 OFFCURVE",
"419 106 OFFCURVE",
"419 106 CURVE SMOOTH",
"419 106 OFFCURVE",
"363 106 OFFCURVE",
"352 106 CURVE SMOOTH"
);
}
);
width = 567;
}
);
unicode = 066F;
},
{
glyphname = "dotlessqaf-ar.fina";
lastChange = "2015-11-17 02:19:53 +0000";
layers = (
{
anchors = (
{
name = bottom;
position = "{270, -265}";
},
{
name = top;
position = "{347, 272}";
}
);
layerId = "51F41761-070F-43EA-B302-C90910850260";
name = Regular;
paths = (
{
closed = 1;
nodes = (
"478 106 LINE",
"471 148 OFFCURVE",
"457 185 OFFCURVE",
"439 210 CURVE SMOOTH",
"422 234 OFFCURVE",
"396 254 OFFCURVE",
"362 254 CURVE SMOOTH",
"313 254 OFFCURVE",
"283 211 OFFCURVE",
"280 180 CURVE SMOOTH",
"271 92 LINE SMOOTH",
"269 74 OFFCURVE",
"273 43 OFFCURVE",
"298 22 CURVE SMOOTH",
"313 9 OFFCURVE",
"336 0 OFFCURVE",
"371 0 CURVE SMOOTH",
"437 0 LINE",
"440 -9 OFFCURVE",
"444 -23 OFFCURVE",
"447 -34 CURVE",
"432 -72 OFFCURVE",
"386 -121 OFFCURVE",
"286 -121 CURVE SMOOTH",
"232 -121 OFFCURVE",
"190 -107 OFFCURVE",
"162 -87 CURVE SMOOTH",
"117 -55 OFFCURVE",
"109 -10 OFFCURVE",
"109 16 CURVE SMOOTH",
"109 58 OFFCURVE",
"129 97 OFFCURVE",
"143 114 CURVE",
"127 130 LINE",
"107 106 OFFCURVE",
"94 80 OFFCURVE",
"86 56 CURVE SMOOTH",
"71 11 OFFCURVE",
"70 -38 OFFCURVE",
"70 -49 CURVE SMOOTH",
"70 -85 OFFCURVE",
"80 -145 OFFCURVE",
"126 -188 CURVE SMOOTH",
"157 -217 OFFCURVE",
"205 -239 OFFCURVE",
"270 -239 CURVE SMOOTH",
"329 -239 OFFCURVE",
"381 -221 OFFCURVE",
"421 -187 CURVE SMOOTH",
"459 -155 OFFCURVE",
"493 -100 OFFCURVE",
"493 -28 CURVE SMOOTH",
"493 -19 OFFCURVE",
"493 -9 OFFCURVE",
"492 0 CURVE",
"613 0 LINE",
"613 106 LINE"
);
},
{
closed = 1;
nodes = (
"307 106 OFFCURVE",
"306 132 OFFCURVE",
"306 132 CURVE SMOOTH",
"306 132 OFFCURVE",
"322 166 OFFCURVE",
"353 166 CURVE SMOOTH",
"387 166 OFFCURVE",
"402 125 OFFCURVE",
"407 106 CURVE",
"340 106 LINE SMOOTH"
);
}
);
width = 613;
}
);
},
{
glyphname = "kaf-ar";
lastChange = "2015-11-17 00:25:05 +0000";
layers = (
{
anchors = (
{
name = bottom;
position = "{404, -45}";
},
{
name = top;
position = "{439, 387}";
}
);
layerId = "51F41761-070F-43EA-B302-C90910850260";
name = Regular;
paths = (
{
closed = 1;
nodes = (
"767 220 OFFCURVE",
"764 276 OFFCURVE",
"760 327 CURVE SMOOTH",
"752 437 OFFCURVE",
"744 497 OFFCURVE",
"740 531 CURVE SMOOTH",
"733 578 OFFCURVE",
"762 593 OFFCURVE",
"762 593 CURVE",
"732 615 OFFCURVE",
"715 640 OFFCURVE",
"699 682 CURVE",
"672 678 OFFCURVE",
"658 659 OFFCURVE",
"650 637 CURVE SMOOTH",
"641 610 OFFCURVE",
"642 581 OFFCURVE",
"642 581 CURVE",
"658 567 LINE",
"676 497 OFFCURVE",
"686 413 OFFCURVE",
"694 339 CURVE SMOOTH",
"700 286 OFFCURVE",
"710 167 OFFCURVE",
"710 126 CURVE",
"609 99 OFFCURVE",
"501 98 OFFCURVE",
"383 98 CURVE SMOOTH",
"244 98 OFFCURVE",
"113 117 OFFCURVE",
"113 186 CURVE SMOOTH",
"113 199 OFFCURVE",
"118 214 OFFCURVE",
"129 230 CURVE",
"113 246 LINE",
"91 224 OFFCURVE",
"68 181 OFFCURVE",
"70 137 CURVE SMOOTH",
"72 100 OFFCURVE",
"92 63 OFFCURVE",
"144 35 CURVE SMOOTH",
"192 10 OFFCURVE",
"267 -7 OFFCURVE",
"383 -7 CURVE SMOOTH",
"497 -7 OFFCURVE",
"619 2 OFFCURVE",
"678 14 CURVE SMOOTH",
"774 34 OFFCURVE",
"770 121 OFFCURVE",
"769 173 CURVE SMOOTH"
);
},
{
closed = 1;
nodes = (
"480 198 OFFCURVE",
"491 217 OFFCURVE",
"498 249 CURVE SMOOTH",
"501 262 OFFCURVE",
"496 281 OFFCURVE",
"471 281 CURVE SMOOTH",
"433 281 OFFCURVE",
"427 294 OFFCURVE",
"427 294 CURVE",
"428 313 OFFCURVE",
"476 315 OFFCURVE",
"476 315 CURVE",
"492 369 LINE",
"470 364 OFFCURVE",
"445 354 OFFCURVE",
"425 339 CURVE SMOOTH",
"405 324 OFFCURVE",
"391 305 OFFCURVE",
"391 282 CURVE SMOOTH",
"391 267 OFFCURVE",
"396 256 OFFCURVE",
"403 248 CURVE SMOOTH",
"412 240 OFFCURVE",
"424 237 OFFCURVE",
"439 237 CURVE SMOOTH",
"459 237 OFFCURVE",
"461 230 OFFCURVE",
"461 230 CURVE",
"444 206 OFFCURVE",
"358 203 OFFCURVE",
"348 204 CURVE",
"340 188 LINE",
"347 185 OFFCURVE",
"379 177 OFFCURVE",
"393 175 CURVE SMOOTH",
"422 171 OFFCURVE",
"447 171 OFFCURVE",
"466 186 CURVE SMOOTH"
);
}
);
width = 829;
}
);
unicode = 0643;
},
{
glyphname = "kaf-ar.fina";
lastChange = "2015-11-17 00:24:41 +0000";
layers = (
{
anchors = (
{
name = bottom;
position = "{426, -64}";
},
{
name = top;
position = "{456, 387}";
}
);
layerId = "51F41761-070F-43EA-B302-C90910850260";
name = Regular;
paths = (
{
closed = 1;
nodes = (
"894 106 OFFCURVE",
"872 113 OFFCURVE",
"856 134 CURVE SMOOTH",
"841 155 OFFCURVE",
"831 190 OFFCURVE",
"824 244 CURVE SMOOTH",
"817 294 OFFCURVE",
"792 508 OFFCURVE",
"771 681 CURVE",
"708 607 LINE",
"713 563 OFFCURVE",
"756 203 OFFCURVE",
"761 160 CURVE",
"712 129 OFFCURVE",
"606 85 OFFCURVE",
"393 85 CURVE SMOOTH",
"306 85 OFFCURVE",
"244 94 OFFCURVE",
"201 110 CURVE SMOOTH",
"140 134 OFFCURVE",
"118 172 OFFCURVE",
"118 220 CURVE SMOOTH",
"118 255 OFFCURVE",
"134 293 OFFCURVE",
"142 306 CURVE",
"126 321 LINE",
"97 295 OFFCURVE",
"70 218 OFFCURVE",
"70 161 CURVE SMOOTH",
"70 126 OFFCURVE",
"81 84 OFFCURVE",
"114 49 CURVE SMOOTH",
"154 8 OFFCURVE",
"225 -23 OFFCURVE",
"350 -23 CURVE SMOOTH",
"581 -23 OFFCURVE",
"704 27 OFFCURVE",
"777 90 CURVE",
"793 44 OFFCURVE",
"824 0 OFFCURVE",
"884 0 CURVE SMOOTH",
"953 0 LINE",
"953 106 LINE",
"925 106 LINE SMOOTH"
);
},
{
closed = 1;
nodes = (
"496 197 OFFCURVE",
"507 217 OFFCURVE",
"514 249 CURVE SMOOTH",
"517 262 OFFCURVE",
"512 280 OFFCURVE",
"487 281 CURVE SMOOTH",
"449 281 OFFCURVE",
"443 293 OFFCURVE",
"443 293 CURVE",
"444 313 OFFCURVE",
"491 315 OFFCURVE",
"491 315 CURVE",
"508 369 LINE",
"486 364 OFFCURVE",
"460 353 OFFCURVE",
"441 339 CURVE SMOOTH",
"421 324 OFFCURVE",
"407 305 OFFCURVE",
"407 282 CURVE SMOOTH",
"407 267 OFFCURVE",
"412 256 OFFCURVE",
"419 248 CURVE SMOOTH",
"428 240 OFFCURVE",
"440 237 OFFCURVE",
"454 237 CURVE SMOOTH",
"475 237 OFFCURVE",
"477 230 OFFCURVE",
"477 230 CURVE",
"460 206 OFFCURVE",
"374 203 OFFCURVE",
"364 204 CURVE",
"356 188 LINE",
"363 185 OFFCURVE",
"395 177 OFFCURVE",
"409 175 CURVE SMOOTH",
"438 171 OFFCURVE",
"463 171 OFFCURVE",
"482 186 CURVE SMOOTH"
);
}
);
width = 953;
}
);
unicode = FEDA;
},
{
glyphname = "kaf-ar.medi";
lastChange = "2015-11-17 00:20:36 +0000";
layers = (
{
anchors = (
{
name = bottom;
position = "{68, -34}";
},
{
name = top;
position = "{120, 589}";
}
);
layerId = "51F41761-070F-43EA-B302-C90910850260";
name = Regular;
paths = (
{
closed = 1;
nodes = (
"361 106 OFFCURVE",
"342 107 OFFCURVE",
"324 114 CURVE SMOOTH",
"283 129 OFFCURVE",
"258 167 OFFCURVE",
"237 200 CURVE SMOOTH",
"215 235 OFFCURVE",
"196 266 OFFCURVE",
"167 306 CURVE SMOOTH",
"140 344 OFFCURVE",
"110 379 OFFCURVE",
"78 404 CURVE",
"114 427 OFFCURVE",
"126 434 OFFCURVE",
"204 472 CURVE SMOOTH",
"288 513 OFFCURVE",
"335 538 OFFCURVE",
"343 544 CURVE",
"368 657 LINE",
"330 631 OFFCURVE",
"252 591 OFFCURVE",
"233 582 CURVE SMOOTH",
"200 566 OFFCURVE",
"132 533 OFFCURVE",
"99 515 CURVE SMOOTH",
"59 493 OFFCURVE",
"34 476 OFFCURVE",
"24 435 CURVE SMOOTH",
"19 417 OFFCURVE",
"20 389 OFFCURVE",
"20 362 CURVE SMOOTH",
"20 308 OFFCURVE",
"24 291 OFFCURVE",
"70 255 CURVE",
"70 273 LINE",
"106 245 OFFCURVE",
"149 186 OFFCURVE",
"179 137 CURVE",
"158 116 OFFCURVE",
"131 106 OFFCURVE",
"91 106 CURVE SMOOTH",
"-17 106 LINE SMOOTH",
"-46 106 OFFCURVE",
"-70 82 OFFCURVE",
"-70 53 CURVE SMOOTH",
"-70 24 OFFCURVE",
"-46 0 OFFCURVE",
"-17 0 CURVE",
"-17 0 OFFCURVE",
"65 0 OFFCURVE",
"91 0 CURVE SMOOTH",
"151 0 OFFCURVE",
"199 34 OFFCURVE",
"224 85 CURVE",
"244 55 OFFCURVE",
"285 0 OFFCURVE",
"374 0 CURVE SMOOTH",
"426 0 LINE",
"426 106 LINE",
"381 106 LINE SMOOTH"
);
}
);
width = 426;
}
);
unicode = FEDC;
},
{
glyphname = "kaf-ar.init";
lastChange = "2015-11-17 00:19:58 +0000";
layers = (
{
anchors = (
{
name = bottom;
position = "{56, -34}";
},
{
name = top;
position = "{101, 590}";
}
);
layerId = "51F41761-070F-43EA-B302-C90910850260";
name = Regular;
paths = (
{
closed = 1;
nodes = (
"341 657 LINE",
"295 628 OFFCURVE",
"276 617 OFFCURVE",
"200 580 CURVE SMOOTH",
"159 560 OFFCURVE",
"114 538 OFFCURVE",
"71 514 CURVE SMOOTH",
"40 496 OFFCURVE",
"1 473 OFFCURVE",
"-4 435 CURVE SMOOTH",
"-7 415 OFFCURVE",
"-7 397 OFFCURVE",
"-7 365 CURVE SMOOTH",
"-7 305 OFFCURVE",
"-1 289 OFFCURVE",
"43 255 CURVE",
"43 289 LINE",
"83 260 OFFCURVE",
"127 202 OFFCURVE",
"149 151 CURVE",
"126 119 OFFCURVE",
"90 106 OFFCURVE",
"26 106 CURVE SMOOTH",
"-17 106 LINE SMOOTH",
"-46 106 OFFCURVE",
"-70 82 OFFCURVE",
"-70 53 CURVE SMOOTH",
"-70 24 OFFCURVE",
"-46 0 OFFCURVE",
"-17 0 CURVE SMOOTH",
"59 0 LINE SMOOTH",
"116 0 OFFCURVE",
"155 20 OFFCURVE",
"178 55 CURVE SMOOTH",
"198 84 OFFCURVE",
"207 123 OFFCURVE",
"207 170 CURVE SMOOTH",
"207 216 OFFCURVE",
"183 270 OFFCURVE",
"150 318 CURVE SMOOTH",
"121 360 OFFCURVE",
"85 396 OFFCURVE",
"52 414 CURVE",
"66 424 OFFCURVE",
"122 449 OFFCURVE",
"180 475 CURVE SMOOTH",
"234 500 OFFCURVE",
"289 526 OFFCURVE",
"316 544 CURVE"
);
}
);
width = 301;
}
);
unicode = FEDB;
},
{
glyphname = "keheh-ar";
lastChange = "2015-11-17 00:24:32 +0000";
layers = (
{
anchors = (
{
name = bottom;
position = "{416, -64}";
},
{
name = top;
position = "{692, 590}";
}
);
layerId = "51F41761-070F-43EA-B302-C90910850260";
name = Regular;
paths = (
{
closed = 1;
nodes = (
"877 626 OFFCURVE",
"821 598 OFFCURVE",
"765 571 CURVE SMOOTH",
"726 552 OFFCURVE",
"689 533 OFFCURVE",
"654 514 CURVE SMOOTH",
"623 496 OFFCURVE",
"584 473 OFFCURVE",
"579 435 CURVE SMOOTH",
"576 415 OFFCURVE",
"576 397 OFFCURVE",
"576 365 CURVE SMOOTH",
"576 305 OFFCURVE",
"582 289 OFFCURVE",
"626 255 CURVE",
"626 289 LINE",
"663 263 OFFCURVE",
"715 196 OFFCURVE",
"740 134 CURVE",
"678 95 OFFCURVE",
"490 85 OFFCURVE",
"393 85 CURVE SMOOTH",
"306 85 OFFCURVE",
"244 94 OFFCURVE",
"201 110 CURVE SMOOTH",
"140 134 OFFCURVE",
"118 172 OFFCURVE",
"118 220 CURVE SMOOTH",
"118 255 OFFCURVE",
"134 293 OFFCURVE",
"142 306 CURVE",
"126 321 LINE",
"97 295 OFFCURVE",
"70 218 OFFCURVE",
"70 161 CURVE SMOOTH",
"70 119 OFFCURVE",
"84 75 OFFCURVE",
"126 39 CURVE SMOOTH",
"169 2 OFFCURVE",
"238 -23 OFFCURVE",
"350 -23 CURVE SMOOTH",
"541 -23 OFFCURVE",
"585 -12 OFFCURVE",
"636 2 CURVE SMOOTH",
"716 25 OFFCURVE",
"754 52 OFFCURVE",
"784 112 CURVE",
"789 130 OFFCURVE",
"790 149 OFFCURVE",
"790 170 CURVE SMOOTH",
"790 218 OFFCURVE",
"763 277 OFFCURVE",
"728 327 CURVE SMOOTH",
"700 366 OFFCURVE",
"666 398 OFFCURVE",
"635 415 CURVE",
"648 424 OFFCURVE",
"697 446 OFFCURVE",
"752 470 CURVE SMOOTH",
"808 496 OFFCURVE",
"870 525 OFFCURVE",
"899 544 CURVE",
"924 657 LINE"
);
}
);
width = 884;
}
);
unicode = 06A9;
},
{
glyphname = "keheh-ar.fina";
lastChange = "2015-11-17 00:24:17 +0000";
layers = (
{
anchors = (
{
name = bottom;
position = "{426, -64}";
},
{
name = top;
position = "{651, 590}";
}
);
layerId = "51F41761-070F-43EA-B302-C90910850260";
name = Regular;
paths = (
{
closed = 1;
nodes = (
"890 106 OFFCURVE",
"871 107 OFFCURVE",
"853 114 CURVE SMOOTH",
"812 128 OFFCURVE",
"788 166 OFFCURVE",
"766 200 CURVE SMOOTH",
"742 238 OFFCURVE",
"720 274 OFFCURVE",
"687 318 CURVE SMOOTH",
"655 361 OFFCURVE",
"634 382 OFFCURVE",
"607 404 CURVE",
"642 428 OFFCURVE",
"695 454 OFFCURVE",
"746 479 CURVE SMOOTH",
"800 505 OFFCURVE",
"850 529 OFFCURVE",
"872 544 CURVE",
"897 657 LINE",
"853 628 OFFCURVE",
"801 602 OFFCURVE",
"748 576 CURVE SMOOTH",
"707 556 OFFCURVE",
"666 536 OFFCURVE",
"628 514 CURVE SMOOTH",
"596 496 OFFCURVE",
"557 473 OFFCURVE",
"552 435 CURVE SMOOTH",
"549 415 OFFCURVE",
"549 397 OFFCURVE",
"549 365 CURVE SMOOTH",
"549 305 OFFCURVE",
"555 289 OFFCURVE",
"599 255 CURVE",
"599 273 LINE",
"639 242 OFFCURVE",
"667 198 OFFCURVE",
"716 123 CURVE",
"635 93 OFFCURVE",
"482 85 OFFCURVE",
"393 85 CURVE SMOOTH",
"306 85 OFFCURVE",
"244 94 OFFCURVE",
"201 110 CURVE SMOOTH",
"140 134 OFFCURVE",
"118 172 OFFCURVE",
"118 220 CURVE SMOOTH",
"118 255 OFFCURVE",
"134 293 OFFCURVE",
"142 306 CURVE",
"126 321 LINE",
"97 295 OFFCURVE",
"70 218 OFFCURVE",
"70 161 CURVE SMOOTH",
"70 122 OFFCURVE",
"83 76 OFFCURVE",
"124 40 CURVE SMOOTH",
"165 4 OFFCURVE",
"235 -23 OFFCURVE",
"350 -23 CURVE SMOOTH",
"448 -23 OFFCURVE",
"521 -19 OFFCURVE",
"579 -10 CURVE SMOOTH",
"666 5 OFFCURVE",
"717 31 OFFCURVE",
"761 73 CURVE",
"783 42 OFFCURVE",
"825 0 OFFCURVE",
"903 0 CURVE SMOOTH",
"955 0 LINE",
"955 106 LINE",
"910 106 LINE SMOOTH"
);
}
);
width = 955;
}
);
unicode = FB8F;
},
{
glyphname = "gaf-ar";
lastChange = "2015-11-26 06:24:49 +0000";
layers = (
{
components = (
{
name = "keheh-ar";
}
);
layerId = "51F41761-070F-43EA-B302-C90910850260";
name = Regular;
paths = (
{
closed = 1;
nodes = (
"861 696 LINE",
"861 696 OFFCURVE",
"640 584 OFFCURVE",
"640 584 CURVE",
"606 531 LINE",
"613 526 LINE",
"653 553 OFFCURVE",
"818 630 OFFCURVE",
"852 654 CURVE"
);
}
);
width = 884;
}
);
unicode = 06AF;
},
{
glyphname = "gaf-ar.fina";
lastChange = "2015-11-26 06:24:58 +0000";
layers = (
{
components = (
{
name = "keheh-ar.fina";
}
);
layerId = "51F41761-070F-43EA-B302-C90910850260";
name = Regular;
paths = (
{
closed = 1;
nodes = (
"835 696 LINE",
"835 696 OFFCURVE",
"613 584 OFFCURVE",
"613 584 CURVE",
"579 531 LINE",
"587 526 LINE",
"626 552 OFFCURVE",
"791 630 OFFCURVE",
"825 654 CURVE"
);
}
);
width = 955;
}
);
unicode = FB93;
},
{
glyphname = "gaf-ar.medi";
lastChange = "2015-11-26 06:25:02 +0000";
layers = (
{
components = (
{
name = "kaf-ar.medi";
}
);
layerId = "51F41761-070F-43EA-B302-C90910850260";
name = Regular;
paths = (
{
closed = 1;
nodes = (
"306 696 LINE",
"306 696 OFFCURVE",
"84 584 OFFCURVE",
"84 584 CURVE",
"50 531 LINE",
"58 526 LINE",
"97 552 OFFCURVE",
"262 630 OFFCURVE",
"296 654 CURVE"
);
}
);
width = 426;
}
);
unicode = FB95;
},
{
glyphname = "gaf-ar.init";
lastChange = "2015-11-26 06:25:08 +0000";
layers = (
{
components = (
{
name = "kaf-ar.init";
}
);
layerId = "51F41761-070F-43EA-B302-C90910850260";
name = Regular;
paths = (
{
closed = 1;
nodes = (
"278 696 LINE",
"278 696 OFFCURVE",
"57 584 OFFCURVE",
"57 584 CURVE",
"23 531 LINE",
"30 526 LINE",
"70 552 OFFCURVE",
"235 630 OFFCURVE",
"269 654 CURVE"
);
}
);
width = 301;
}
);
unicode = FB94;
},
{
glyphname = "kafswash-ar";
lastChange = "2015-11-17 00:35:54 +0000";
layers = (
{
anchors = (
{
name = bottom;
position = "{490, -34}";
},
{
name = top;
position = "{486, 571}";
}
);
layerId = "51F41761-070F-43EA-B302-C90910850260";
name = Regular;
paths = (
{
closed = 1;
nodes = (
"741 302 OFFCURVE",
"655 301 OFFCURVE",
"495 301 CURVE SMOOTH",
"367 301 OFFCURVE",
"262 310 OFFCURVE",
"216 360 CURVE",
"244 441 OFFCURVE",
"314 444 OFFCURVE",
"385 444 CURVE SMOOTH",
"490 444 LINE",
"490 387 LINE",
"493 387 LINE",
"499 407 OFFCURVE",
"515 444 OFFCURVE",
"561 444 CURVE",
"591 542 LINE",
"410 542 LINE SMOOTH",
"313 542 OFFCURVE",
"248 505 OFFCURVE",
"210 456 CURVE SMOOTH",
"182 421 OFFCURVE",
"170 379 OFFCURVE",
"170 339 CURVE SMOOTH",
"170 284 OFFCURVE",
"199 245 OFFCURVE",
"264 223 CURVE SMOOTH",
"329 201 OFFCURVE",
"434 196 OFFCURVE",
"541 196 CURVE SMOOTH",
"614 196 OFFCURVE",
"737 204 OFFCURVE",
"811 185 CURVE SMOOTH",
"848 175 OFFCURVE",
"876 159 OFFCURVE",
"891 137 CURVE SMOOTH",
"906 117 OFFCURVE",
"910 92 OFFCURVE",
"902 65 CURVE",
"854 90 OFFCURVE",
"795 107 OFFCURVE",
"542 107 CURVE SMOOTH",
"446 107 OFFCURVE",
"325 105 OFFCURVE",
"294 105 CURVE SMOOTH",
"180 105 OFFCURVE",
"70 122 OFFCURVE",
"70 122 CURVE",
"143 -3 LINE",
"143 -3 OFFCURVE",
"187 -2 OFFCURVE",
"201 -2 CURVE SMOOTH",
"308 0 OFFCURVE",
"565 5 OFFCURVE",
"662 5 CURVE SMOOTH",
"733 5 OFFCURVE",
"789 -3 OFFCURVE",
"832 -13 CURVE SMOOTH",
"873 -24 OFFCURVE",
"911 -43 OFFCURVE",
"932 -55 CURVE",
"932 -55 OFFCURVE",
"947 0 OFFCURVE",
"963 60 CURVE SMOOTH",
"980 127 OFFCURVE",
"971 181 OFFCURVE",
"941 221 CURVE SMOOTH",
"913 259 OFFCURVE",
"866 283 OFFCURVE",
"809 292 CURVE SMOOTH"
);
}
);
width = 1032;
}
);
unicode = 06AA;
},
{
glyphname = "kafswash-ar.fina";
lastChange = "2015-11-17 00:35:38 +0000";
layers = (
{
anchors = (
{
name = bottom;
position = "{491, -34}";
},
{
name = top;
position = "{489, 574}";
}
);
layerId = "51F41761-070F-43EA-B302-C90910850260";
name = Regular;
paths = (
{
closed = 1;
nodes = (
"996 106 OFFCURVE",
"977 114 OFFCURVE",
"966 126 CURVE",
"979 176 OFFCURVE",
"973 216 OFFCURVE",
"949 245 CURVE SMOOTH",
"921 279 OFFCURVE",
"869 297 OFFCURVE",
"796 297 CURVE SMOOTH",
"697 297 OFFCURVE",
"656 302 OFFCURVE",
"496 302 CURVE SMOOTH",
"367 302 OFFCURVE",
"262 311 OFFCURVE",
"217 360 CURVE",
"245 441 OFFCURVE",
"315 444 OFFCURVE",
"386 444 CURVE SMOOTH",
"491 444 LINE",
"491 387 LINE",
"494 387 LINE",
"499 408 OFFCURVE",
"516 444 OFFCURVE",
"562 444 CURVE",
"591 543 LINE",
"411 543 LINE SMOOTH",
"314 543 OFFCURVE",
"248 506 OFFCURVE",
"210 456 CURVE SMOOTH",
"183 421 OFFCURVE",
"170 379 OFFCURVE",
"170 340 CURVE SMOOTH",
"170 285 OFFCURVE",
"197 251 OFFCURVE",
"249 229 CURVE SMOOTH",
"312 203 OFFCURVE",
"412 196 OFFCURVE",
"541 196 CURVE SMOOTH",
"615 196 OFFCURVE",
"712 195 OFFCURVE",
"787 196 CURVE SMOOTH",
"832 196 OFFCURVE",
"862 186 OFFCURVE",
"880 169 CURVE SMOOTH",
"901 151 OFFCURVE",
"905 124 OFFCURVE",
"897 98 CURVE",
"790 100 OFFCURVE",
"653 104 OFFCURVE",
"542 104 CURVE SMOOTH",
"447 104 OFFCURVE",
"326 105 OFFCURVE",
"295 105 CURVE SMOOTH",
"180 105 OFFCURVE",
"70 123 OFFCURVE",
"70 123 CURVE",
"143 -3 LINE",
"143 -3 OFFCURVE",
"187 -2 OFFCURVE",
"201 -2 CURVE SMOOTH",
"309 0 OFFCURVE",
"566 5 OFFCURVE",
"663 5 CURVE SMOOTH",
"734 5 OFFCURVE",
"836 6 OFFCURVE",
"933 0 CURVE",
"946 53 LINE",
"950 44 OFFCURVE",
"971 0 OFFCURVE",
"1037 0 CURVE SMOOTH",
"1084 0 LINE",
"1084 106 LINE",
"1029 106 LINE SMOOTH"
);
}
);
width = 1084;
}
);
},
{
glyphname = "kafswash-ar.init";
lastChange = "2015-11-17 00:35:11 +0000";
layers = (
{
anchors = (
{
name = bottom;
position = "{332, -34}";
},
{
name = top;
position = "{335, 572}";
}
);
layerId = "51F41761-070F-43EA-B302-C90910850260";
name = Regular;
paths = (
{
closed = 1;
nodes = (
"598 300 OFFCURVE",
"525 302 OFFCURVE",
"383 302 CURVE SMOOTH",
"210 302 OFFCURVE",
"115 305 OFFCURVE",
"58 360 CURVE",
"86 441 OFFCURVE",
"156 444 OFFCURVE",
"227 444 CURVE SMOOTH",
"332 444 LINE",
"332 387 LINE",
"335 387 LINE",
"341 408 OFFCURVE",
"357 444 OFFCURVE",
"403 444 CURVE",
"433 543 LINE",
"252 543 LINE SMOOTH",
"157 543 OFFCURVE",
"89 506 OFFCURVE",
"52 457 CURVE SMOOTH",
"23 419 OFFCURVE",
"12 376 OFFCURVE",
"12 341 CURVE SMOOTH",
"12 285 OFFCURVE",
"40 250 OFFCURVE",
"92 229 CURVE SMOOTH",
"155 203 OFFCURVE",
"263 196 OFFCURVE",
"342 196 CURVE SMOOTH",
"427 196 OFFCURVE",
"579 204 OFFCURVE",
"653 185 CURVE SMOOTH",
"725 166 OFFCURVE",
"761 122 OFFCURVE",
"744 65 CURVE",
"696 90 OFFCURVE",
"639 108 OFFCURVE",
"380 108 CURVE SMOOTH",
"293 108 OFFCURVE",
"165 106 OFFCURVE",
"136 106 CURVE SMOOTH",
"-17 106 LINE SMOOTH",
"-46 106 OFFCURVE",
"-70 82 OFFCURVE",
"-70 53 CURVE SMOOTH",
"-70 24 OFFCURVE",
"-46 0 OFFCURVE",
"-17 0 CURVE SMOOTH",
"132 0 LINE SMOOTH",
"152 0 OFFCURVE",
"416 5 OFFCURVE",
"492 5 CURVE SMOOTH",
"581 5 OFFCURVE",
"631 -2 OFFCURVE",
"674 -13 CURVE SMOOTH",
"716 -24 OFFCURVE",
"746 -38 OFFCURVE",
"774 -55 CURVE",
"782 -25 OFFCURVE",
"798 33 OFFCURVE",
"805 60 CURVE SMOOTH",
"823 128 OFFCURVE",
"812 184 OFFCURVE",
"781 224 CURVE SMOOTH",
"755 258 OFFCURVE",
"713 282 OFFCURVE",
"651 292 CURVE SMOOTH"
);
}
);
width = 874;
}
);
},
{
glyphname = "kafswash-ar.medi";
lastChange = "2015-11-17 00:35:20 +0000";
layers = (
{
anchors = (
{
name = bottom;
position = "{339, -34}";
},
{
name = top;
position = "{336, 574}";
}
);
layerId = "51F41761-070F-43EA-B302-C90910850260";
name = Regular;
paths = (
{
closed = 1;
nodes = (
"845 106 OFFCURVE",
"826 114 OFFCURVE",
"815 126 CURVE",
"831 187 OFFCURVE",
"817 234 OFFCURVE",
"778 263 CURVE SMOOTH",
"748 285 OFFCURVE",
"703 297 OFFCURVE",
"644 297 CURVE SMOOTH",
"546 297 OFFCURVE",
"504 302 OFFCURVE",
"345 302 CURVE SMOOTH",
"216 302 OFFCURVE",
"111 311 OFFCURVE",
"65 360 CURVE",
"93 441 OFFCURVE",
"163 444 OFFCURVE",
"234 444 CURVE SMOOTH",
"339 444 LINE",
"339 387 LINE",
"342 387 LINE",
"348 408 OFFCURVE",
"364 444 OFFCURVE",
"410 444 CURVE",
"440 543 LINE",
"259 543 LINE SMOOTH",
"162 543 OFFCURVE",
"97 506 OFFCURVE",
"59 456 CURVE SMOOTH",
"32 421 OFFCURVE",
"19 379 OFFCURVE",
"19 340 CURVE SMOOTH",
"19 281 OFFCURVE",
"51 245 OFFCURVE",
"111 224 CURVE SMOOTH",
"174 202 OFFCURVE",
"269 196 OFFCURVE",
"390 196 CURVE SMOOTH",
"463 196 OFFCURVE",
"560 195 OFFCURVE",
"636 196 CURVE SMOOTH",
"688 196 OFFCURVE",
"720 182 OFFCURVE",
"736 161 CURVE SMOOTH",
"750 143 OFFCURVE",
"752 120 OFFCURVE",
"745 98 CURVE",
"638 100 OFFCURVE",
"502 104 OFFCURVE",
"391 104 CURVE SMOOTH",
"295 104 OFFCURVE",
"174 105 OFFCURVE",
"143 105 CURVE SMOOTH",
"-17 105 LINE SMOOTH",
"-46 105 OFFCURVE",
"-70 82 OFFCURVE",
"-70 53 CURVE SMOOTH",
"-70 24 OFFCURVE",
"-46 0 OFFCURVE",
"-17 0 CURVE SMOOTH",
"139 0 LINE SMOOTH",
"263 2 OFFCURVE",
"436 5 OFFCURVE",
"511 5 CURVE SMOOTH",
"582 5 OFFCURVE",
"684 6 OFFCURVE",
"781 0 CURVE",
"794 53 LINE",
"798 44 OFFCURVE",
"819 0 OFFCURVE",
"885 0 CURVE SMOOTH",
"932 0 LINE",
"932 106 LINE",
"877 106 LINE SMOOTH"
);
}
);
width = 932;
}
);
},
{
glyphname = "lam-ar";
lastChange = "2015-11-17 00:42:15 +0000";
layers = (
{
anchors = (
{
name = bottom;
position = "{275, -164}";
},
{
name = top;
position = "{401, 708}";
}
);
layerId = "51F41761-070F-43EA-B302-C90910850260";
name = Regular;
paths = (
{
closed = 1;
nodes = (
"467 564 OFFCURVE",
"472 569 OFFCURVE",
"492 592 CURVE",
"458 618 OFFCURVE",
"448 638 OFFCURVE",
"429 682 CURVE",
"401 678 OFFCURVE",
"388 657 OFFCURVE",
"381 637 CURVE SMOOTH",
"371 607 OFFCURVE",
"373 581 OFFCURVE",
"373 581 CURVE",
"388 567 LINE",
"404 506 OFFCURVE",
"416 417 OFFCURVE",
"424 339 CURVE SMOOTH",
"432 258 OFFCURVE",
"437 200 OFFCURVE",
"446 41 CURVE",
"423 10 OFFCURVE",
"375 -20 OFFCURVE",
"289 -20 CURVE SMOOTH",
"231 -20 OFFCURVE",
"190 -6 OFFCURVE",
"163 13 CURVE SMOOTH",
"114 47 OFFCURVE",
"109 98 OFFCURVE",
"109 118 CURVE SMOOTH",
"109 159 OFFCURVE",
"129 198 OFFCURVE",
"143 215 CURVE",
"127 231 LINE",
"107 207 OFFCURVE",
"96 185 OFFCURVE",
"87 157 CURVE SMOOTH",
"72 110 OFFCURVE",
"70 74 OFFCURVE",
"70 55 CURVE SMOOTH",
"70 14 OFFCURVE",
"80 -44 OFFCURVE",
"126 -87 CURVE SMOOTH",
"158 -117 OFFCURVE",
"205 -138 OFFCURVE",
"275 -138 CURVE SMOOTH",
"336 -138 OFFCURVE",
"393 -122 OFFCURVE",
"435 -86 CURVE SMOOTH",
"480 -47 OFFCURVE",
"507 14 OFFCURVE",
"503 73 CURVE SMOOTH",
"482 376 OFFCURVE",
"478 433 OFFCURVE",
"470 531 CURVE SMOOTH"
);
}
);
width = 563;
}
);
unicode = 0644;
},
{
glyphname = "lam-ar.fina";
lastChange = "2015-11-17 00:41:51 +0000";
layers = (
{
anchors = (
{
name = bottom;
position = "{276, -264}";
},
{
name = top;
position = "{365, 641}";
}
);
layerId = "51F41761-070F-43EA-B302-C90910850260";
name = Regular;
paths = (
{
closed = 1;
nodes = (
"551 106 OFFCURVE",
"532 113 OFFCURVE",
"519 130 CURVE SMOOTH",
"503 151 OFFCURVE",
"494 186 OFFCURVE",
"487 244 CURVE SMOOTH",
"481 291 OFFCURVE",
"459 471 OFFCURVE",
"442 614 CURVE",
"378 540 LINE",
"402 341 OFFCURVE",
"427 142 OFFCURVE",
"451 -57 CURVE",
"439 -73 OFFCURVE",
"412 -96 OFFCURVE",
"374 -108 CURVE SMOOTH",
"351 -115 OFFCURVE",
"322 -120 OFFCURVE",
"288 -120 CURVE SMOOTH",
"232 -120 OFFCURVE",
"190 -106 OFFCURVE",
"163 -87 CURVE SMOOTH",
"116 -54 OFFCURVE",
"110 -6 OFFCURVE",
"110 17 CURVE SMOOTH",
"110 57 OFFCURVE",
"128 95 OFFCURVE",
"143 115 CURVE",
"127 131 LINE",
"107 108 OFFCURVE",
"96 85 OFFCURVE",
"87 57 CURVE SMOOTH",
"72 10 OFFCURVE",
"70 -26 OFFCURVE",
"70 -44 CURVE SMOOTH",
"70 -83 OFFCURVE",
"80 -144 OFFCURVE",
"126 -187 CURVE SMOOTH",
"158 -217 OFFCURVE",
"207 -238 OFFCURVE",
"276 -238 CURVE SMOOTH",
"337 -238 OFFCURVE",
"395 -222 OFFCURVE",
"438 -185 CURVE SMOOTH",
"477 -152 OFFCURVE",
"503 -102 OFFCURVE",
"503 -32 CURVE SMOOTH",
"503 -27 OFFCURVE",
"503 -4 OFFCURVE",
"503 19 CURVE",
"517 8 OFFCURVE",
"538 0 OFFCURVE",
"564 0 CURVE SMOOTH",
"615 0 LINE",
"615 106 LINE",
"579 106 LINE SMOOTH"
);
}
);
width = 615;
}
);
unicode = FEDE;
},
{
glyphname = "lam-ar.medi";
lastChange = "2015-11-17 00:41:27 +0000";
layers = (
{
anchors = (
{
name = bottom;
position = "{51, -34}";
},
{
name = top;
position = "{60, 712}";
}
);
layerId = "51F41761-070F-43EA-B302-C90910850260";
name = Regular;
paths = (
{
closed = 1;
nodes = (
"270 106 LINE SMOOTH",
"239 106 OFFCURVE",
"217 113 OFFCURVE",
"201 135 CURVE SMOOTH",
"186 156 OFFCURVE",
"176 190 OFFCURVE",
"169 245 CURVE SMOOTH",
"162 295 OFFCURVE",
"137 508 OFFCURVE",
"116 681 CURVE",
"53 607 LINE",
"70 463 OFFCURVE",
"95 254 OFFCURVE",
"104 177 CURVE SMOOTH",
"106 162 OFFCURVE",
"105 141 OFFCURVE",
"94 126 CURVE SMOOTH",
"85 114 OFFCURVE",
"70 106 OFFCURVE",
"43 106 CURVE SMOOTH",
"-17 106 LINE SMOOTH",
"-46 106 OFFCURVE",
"-70 82 OFFCURVE",
"-70 53 CURVE SMOOTH",
"-70 24 OFFCURVE",
"-46 0 OFFCURVE",
"-17 0 CURVE SMOOTH",
"32 0 LINE SMOOTH",
"118 0 OFFCURVE",
"134 58 OFFCURVE",
"137 70 CURVE",
"145 35 OFFCURVE",
"176 0 OFFCURVE",
"229 0 CURVE SMOOTH",
"297 0 LINE",
"297 106 LINE"
);
}
);
width = 297;
}
);
unicode = FEE0;
},
{
glyphname = "lam-ar.init";
lastChange = "2015-11-17 00:42:29 +0000";
layers = (
{
anchors = (
{
name = bottom;
position = "{51, -34}";
},
{
name = top;
position = "{40, 712}";
}
);
layerId = "51F41761-070F-43EA-B302-C90910850260";
name = Regular;
paths = (
{
closed = 1;
nodes = (
"126 409 OFFCURVE",
"112 523 OFFCURVE",
"111 531 CURVE SMOOTH",
"107 562 OFFCURVE",
"113 572 OFFCURVE",
"133 592 CURVE",
"100 618 OFFCURVE",
"89 639 OFFCURVE",
"70 682 CURVE",
"42 678 OFFCURVE",
"28 657 OFFCURVE",
"21 635 CURVE SMOOTH",
"13 610 OFFCURVE",
"14 581 OFFCURVE",
"14 581 CURVE",
"29 567 LINE",
"48 491 OFFCURVE",
"56 420 OFFCURVE",
"65 339 CURVE SMOOTH",
"73 267 OFFCURVE",
"82 170 OFFCURVE",
"82 129 CURVE",
"82 129 OFFCURVE",
"61 105 OFFCURVE",
"23 105 CURVE SMOOTH",
"-17 105 LINE SMOOTH",
"-46 105 OFFCURVE",
"-70 82 OFFCURVE",
"-70 53 CURVE SMOOTH",
"-70 24 OFFCURVE",
"-46 0 OFFCURVE",
"-17 0 CURVE SMOOTH",
"39 0 LINE SMOOTH",
"92 0 OFFCURVE",
"125 29 OFFCURVE",
"136 66 CURVE SMOOTH",
"141 83 OFFCURVE",
"142 109 OFFCURVE",
"140 172 CURVE SMOOTH",
"138 237 OFFCURVE",
"133 313 OFFCURVE",
"132 327 CURVE SMOOTH"
);
}
);
width = 201;
}
);
unicode = FEDF;
},
{
glyphname = "meem-ar";
lastChange = "2015-11-17 00:45:27 +0000";
layers = (
{
anchors = (
{
name = bottom;
position = "{136, -497}";
},
{
name = top;
position = "{323, 346}";
}
);
layerId = "51F41761-070F-43EA-B302-C90910850260";
name = Regular;
paths = (
{
closed = 1;
nodes = (
"310 314 OFFCURVE",
"296 316 OFFCURVE",
"283 316 CURVE SMOOTH",
"262 316 OFFCURVE",
"248 314 OFFCURVE",
"237 311 CURVE SMOOTH",
"210 302 OFFCURVE",
"214 284 OFFCURVE",
"214 265 CURVE",
"214 165 LINE",
"151 150 OFFCURVE",
"115 93 OFFCURVE",
"96 46 CURVE SMOOTH",
"80 9 OFFCURVE",
"75 -22 OFFCURVE",
"75 -22 CURVE",
"63 -98 OFFCURVE",
"73 -162 OFFCURVE",
"87 -225 CURVE SMOOTH",
"104 -304 OFFCURVE",
"126 -380 OFFCURVE",
"119 -475 CURVE",
"136 -467 LINE",
"162 -413 OFFCURVE",
"165 -379 OFFCURVE",
"168 -351 CURVE SMOOTH",
"176 -294 OFFCURVE",
"162 -222 OFFCURVE",
"148 -151 CURVE SMOOTH",
"137 -89 OFFCURVE",
"126 -28 OFFCURVE",
"132 22 CURVE",
"153 60 OFFCURVE",
"224 72 OFFCURVE",
"274 73 CURVE",
"286 63 OFFCURVE",
"310 40 OFFCURVE",
"327 0 CURVE",
"327 0 OFFCURVE",
"347 41 OFFCURVE",
"326 74 CURVE",
"387 74 LINE",
"425 76 OFFCURVE",
"445 98 OFFCURVE",
"445 137 CURVE SMOOTH",
"445 158 OFFCURVE",
"446 220 OFFCURVE",
"446 220 CURVE",
"446 243 OFFCURVE",
"429 262 OFFCURVE",
"407 276 CURVE SMOOTH",
"380 294 OFFCURVE",
"346 306 OFFCURVE",
"322 311 CURVE SMOOTH"
);
},
{
closed = 1;
nodes = (
"368 183 OFFCURVE",
"316 184 OFFCURVE",
"275 179 CURVE",
"265 192 OFFCURVE",
"254 210 OFFCURVE",
"246 224 CURVE",
"286 236 OFFCURVE",
"357 223 OFFCURVE",
"401 175 CURVE"
);
}
);
width = 506;
}
);
unicode = 0645;
},
{
glyphname = "meem-ar.alt";
lastChange = "2015-11-17 00:45:07 +0000";
layers = (
{
anchors = (
{
name = bottom;
position = "{160, -145}";
},
{
name = top;
position = "{368, 303}";
}
);
layerId = "51F41761-070F-43EA-B302-C90910850260";
name = Regular;
paths = (
{
closed = 1;
nodes = (
"345 273 OFFCURVE",
"318 252 OFFCURVE",
"300 222 CURVE SMOOTH",
"285 196 OFFCURVE",
"276 164 OFFCURVE",
"276 133 CURVE SMOOTH",
"276 79 OFFCURVE",
"226 25 OFFCURVE",
"191 0 CURVE SMOOTH",
"151 -30 OFFCURVE",
"90 -64 OFFCURVE",
"30 -91 CURVE",
"44 -120 LINE",
"130 -120 LINE",
"140 -120 OFFCURVE",
"195 -119 OFFCURVE",
"244 -77 CURVE SMOOTH",
"272 -52 OFFCURVE",
"296 -15 OFFCURVE",
"299 44 CURVE",
"315 21 OFFCURVE",
"339 6 OFFCURVE",
"374 6 CURVE SMOOTH",
"410 6 OFFCURVE",
"438 29 OFFCURVE",
"438 29 CURVE",
"462 131 LINE",
"468 157 OFFCURVE",
"456 195 OFFCURVE",
"438 224 CURVE SMOOTH",
"422 252 OFFCURVE",
"399 273 OFFCURVE",
"378 273 CURVE SMOOTH"
);
},
{
closed = 1;
nodes = (
"376 100 OFFCURVE",
"334 118 OFFCURVE",
"308 143 CURVE",
"320 166 OFFCURVE",
"345 182 OFFCURVE",
"369 182 CURVE SMOOTH",
"399 182 OFFCURVE",
"429 140 OFFCURVE",
"429 140 CURVE",
"418 120 OFFCURVE",
"409 100 OFFCURVE",
"409 100 CURVE SMOOTH"
);
}
);
width = 523;
}
);
},
{
glyphname = "meem-ar.altfina";
lastChange = "2015-11-17 00:45:00 +0000";
layers = (
{
anchors = (
{
name = bottom;
position = "{160, -145}";
},
{
name = top;
position = "{416, 297}";
}
);
layerId = "51F41761-070F-43EA-B302-C90910850260";
name = Regular;
paths = (
{
closed = 1;
nodes = (
"523 106 OFFCURVE",
"499 114 OFFCURVE",
"485 132 CURVE SMOOTH",
"472 149 OFFCURVE",
"466 176 OFFCURVE",
"466 214 CURVE",
"466 267 LINE",
"396 267 OFFCURVE",
"353 243 OFFCURVE",
"325 214 CURVE SMOOTH",
"294 181 OFFCURVE",
"282 139 OFFCURVE",
"272 112 CURVE SMOOTH",
"257 66 OFFCURVE",
"221 23 OFFCURVE",
"191 0 CURVE SMOOTH",
"151 -30 OFFCURVE",
"90 -64 OFFCURVE",
"30 -90 CURVE",
"44 -120 LINE",
"130 -120 LINE",
"136 -120 OFFCURVE",
"195 -118 OFFCURVE",
"244 -76 CURVE SMOOTH",
"270 -53 OFFCURVE",
"293 -19 OFFCURVE",
"298 33 CURVE",
"361 16 OFFCURVE",
"420 -11 OFFCURVE",
"472 -51 CURVE",
"472 21 LINE",
"492 7 OFFCURVE",
"520 0 OFFCURVE",
"557 0 CURVE SMOOTH",
"598 0 LINE",
"598 106 LINE",
"557 106 LINE SMOOTH"
);
},
{
closed = 1;
nodes = (
"348 152 OFFCURVE",
"378 168 OFFCURVE",
"425 161 CURVE",
"425 130 OFFCURVE",
"427 103 OFFCURVE",
"433 81 CURVE",
"400 101 OFFCURVE",
"365 117 OFFCURVE",
"328 129 CURVE"
);
}
);
width = 598;
}
);
},
{
glyphname = "meem-ar.fina";
lastChange = "2015-11-17 07:47:31 +0000";
layers = (
{
anchors = (
{
name = bottom;
position = "{322, -88}";
},
{
name = top;
position = "{282, 243}";
}
);
layerId = "51F41761-070F-43EA-B302-C90910850260";
name = Regular;
paths = (
{
closed = 1;
nodes = (
"433 106 OFFCURVE",
"388 124 OFFCURVE",
"354 145 CURVE SMOOTH",
"306 176 OFFCURVE",
"282 213 OFFCURVE",
"282 213 CURVE SMOOTH",
"282 213 OFFCURVE",
"275 195 OFFCURVE",
"266 169 CURVE",
"195 177 OFFCURVE",
"149 138 OFFCURVE",
"120 94 CURVE SMOOTH",
"85 40 OFFCURVE",
"75 -22 OFFCURVE",
"75 -22 CURVE",
"63 -99 OFFCURVE",
"74 -164 OFFCURVE",
"88 -227 CURVE SMOOTH",
"104 -305 OFFCURVE",
"126 -381 OFFCURVE",
"118 -475 CURVE",
"135 -467 LINE",
"162 -413 OFFCURVE",
"165 -379 OFFCURVE",
"168 -351 CURVE SMOOTH",
"175 -299 OFFCURVE",
"164 -236 OFFCURVE",
"152 -172 CURVE SMOOTH",
"139 -103 OFFCURVE",
"125 -34 OFFCURVE",
"132 22 CURVE",
"149 53 OFFCURVE",
"200 67 OFFCURVE",
"245 72 CURVE",
"244 58 OFFCURVE",
"243 45 OFFCURVE",
"244 32 CURVE SMOOTH",
"245 6 OFFCURVE",
"251 -17 OFFCURVE",
"264 -34 CURVE SMOOTH",
"276 -51 OFFCURVE",
"296 -62 OFFCURVE",
"322 -62 CURVE SMOOTH",
"353 -62 OFFCURVE",
"371 -40 OFFCURVE",
"381 -16 CURVE SMOOTH",
"387 -1 OFFCURVE",
"391 18 OFFCURVE",
"394 39 CURVE",
"420 4 OFFCURVE",
"446 0 OFFCURVE",
"508 0 CURVE SMOOTH",
"531 0 LINE",
"531 106 LINE",
"491 106 LINE SMOOTH"
);
}
);
width = 531;
}
);
unicode = FEE2;
},
{
glyphname = "meem-ar.medi";
lastChange = "2015-11-17 07:47:08 +0000";
layers = (
{
anchors = (
{
name = bottom;
position = "{166, -34}";
},
{
name = top;
position = "{186, 297}";
}
);
layerId = "51F41761-070F-43EA-B302-C90910850260";
name = Regular;
paths = (
{
closed = 1;
nodes = (
"363 106 OFFCURVE",
"341 112 OFFCURVE",
"327 128 CURVE SMOOTH",
"311 145 OFFCURVE",
"304 172 OFFCURVE",
"304 214 CURVE",
"304 267 LINE",
"236 267 OFFCURVE",
"200 249 OFFCURVE",
"176 226 CURVE SMOOTH",
"148 198 OFFCURVE",
"137 161 OFFCURVE",
"112 136 CURVE SMOOTH",
"95 118 OFFCURVE",
"70 106 OFFCURVE",
"28 106 CURVE SMOOTH",
"-17 106 LINE SMOOTH",
"-46 106 OFFCURVE",
"-70 82 OFFCURVE",
"-70 53 CURVE SMOOTH",
"-70 24 OFFCURVE",
"-46 0 OFFCURVE",
"-17 0 CURVE SMOOTH",
"5 0 LINE SMOOTH",
"44 0 OFFCURVE",
"69 9 OFFCURVE",
"88 24 CURVE SMOOTH",
"108 39 OFFCURVE",
"121 61 OFFCURVE",
"136 86 CURVE",
"136 33 LINE",
"199 16 OFFCURVE",
"258 -11 OFFCURVE",
"310 -51 CURVE",
"310 21 LINE",
"330 7 OFFCURVE",
"358 0 OFFCURVE",
"395 0 CURVE SMOOTH",
"436 0 LINE",
"436 106 LINE",
"395 106 LINE SMOOTH"
);
},
{
closed = 1;
nodes = (
"263 130 OFFCURVE",
"265 103 OFFCURVE",
"271 81 CURVE",
"238 101 OFFCURVE",
"203 117 OFFCURVE",
"166 129 CURVE",
"186 152 OFFCURVE",
"216 168 OFFCURVE",
"263 161 CURVE"
);
}
);
width = 436;
}
);
unicode = FEE4;
},
{
glyphname = "meem-ar.init";
lastChange = "2015-11-17 01:04:18 +0000";
layers = (
{
anchors = (
{
name = bottom;
position = "{127, -34}";
},
{
name = top;
position = "{190, 303}";
}
);
layerId = "51F41761-070F-43EA-B302-C90910850260";
name = Regular;
paths = (
{
closed = 1;
nodes = (
"161 273 OFFCURVE",
"137 232 OFFCURVE",
"113 186 CURVE SMOOTH",
"91 145 OFFCURVE",
"66 106 OFFCURVE",
"10 106 CURVE SMOOTH",
"-17 106 LINE SMOOTH",
"-46 106 OFFCURVE",
"-70 82 OFFCURVE",
"-70 53 CURVE SMOOTH",
"-70 24 OFFCURVE",
"-46 0 OFFCURVE",
"-17 0 CURVE SMOOTH",
"1 0 LINE SMOOTH",
"39 0 OFFCURVE",
"66 14 OFFCURVE",
"84 32 CURVE SMOOTH",
"108 55 OFFCURVE",
"117 84 OFFCURVE",
"120 97 CURVE",
"120 51 OFFCURVE",
"147 6 OFFCURVE",
"206 6 CURVE SMOOTH",
"242 6 OFFCURVE",
"269 29 OFFCURVE",
"269 29 CURVE",
"278 59 OFFCURVE",
"284 86 OFFCURVE",
"294 131 CURVE SMOOTH",
"299 155 OFFCURVE",
"290 188 OFFCURVE",
"275 216 CURVE SMOOTH",
"258 247 OFFCURVE",
"233 273 OFFCURVE",
"210 273 CURVE SMOOTH"
);
},
{
closed = 1;
nodes = (
"208 101 OFFCURVE",
"166 118 OFFCURVE",
"140 143 CURVE",
"152 167 OFFCURVE",
"177 182 OFFCURVE",
"201 182 CURVE SMOOTH",
"231 182 OFFCURVE",
"260 140 OFFCURVE",
"260 140 CURVE",
"250 120 OFFCURVE",
"241 100 OFFCURVE",
"241 100 CURVE SMOOTH"
);
}
);
width = 355;
}
);
unicode = FEE3;
},
{
glyphname = "noonghunna-ar";
lastChange = "2015-11-16 19:29:39 +0000";
layers = (
{
anchors = (
{
name = bottom;
position = "{276, -268}";
},
{
name = top;
position = "{260, -22}";
}
);
layerId = "51F41761-070F-43EA-B302-C90910850260";
name = Regular;
paths = (
{
closed = 1;
nodes = (
"421 180 LINE",
"383 82 LINE",
"416 30 OFFCURVE",
"461 -33 OFFCURVE",
"461 -33 CURVE",
"448 -67 OFFCURVE",
"402 -120 OFFCURVE",
"289 -120 CURVE SMOOTH",
"231 -120 OFFCURVE",
"190 -106 OFFCURVE",
"163 -87 CURVE SMOOTH",
"114 -53 OFFCURVE",
"109 -2 OFFCURVE",
"109 18 CURVE SMOOTH",
"109 59 OFFCURVE",
"129 98 OFFCURVE",
"143 115 CURVE",
"127 131 LINE",
"107 108 OFFCURVE",
"94 81 OFFCURVE",
"86 57 CURVE SMOOTH",
"71 12 OFFCURVE",
"70 -37 OFFCURVE",
"70 -48 CURVE SMOOTH",
"70 -84 OFFCURVE",
"80 -144 OFFCURVE",
"126 -187 CURVE SMOOTH",
"157 -216 OFFCURVE",
"205 -238 OFFCURVE",
"276 -238 CURVE SMOOTH",
"340 -238 OFFCURVE",
"395 -220 OFFCURVE",
"435 -186 CURVE SMOOTH",
"475 -152 OFFCURVE",
"503 -98 OFFCURVE",
"503 -35 CURVE SMOOTH",
"503 24 OFFCURVE",
"479 79 OFFCURVE",
"479 79 CURVE",
"508 79 LINE"
);
}
);
width = 568;
}
);
unicode = 06BA;
},
{
glyphname = "noonghunna-ar.fina";
lastChange = "2015-11-17 02:56:29 +0000";
layers = (
{
anchors = (
{
name = bottom;
position = "{277, -258}";
},
{
name = top;
position = "{261, -21}";
}
);
layerId = "51F41761-070F-43EA-B302-C90910850260";
name = Regular;
paths = (
{
closed = 1;
nodes = (
"507 106 LINE",
"480 107 OFFCURVE",
"460 114 OFFCURVE",
"447 122 CURVE SMOOTH",
"429 132 OFFCURVE",
"415 155 OFFCURVE",
"406 177 CURVE",
"390 162 LINE",
"390 162 OFFCURVE",
"386 149 OFFCURVE",
"386 129 CURVE SMOOTH",
"386 104 OFFCURVE",
"393 69 OFFCURVE",
"421 33 CURVE SMOOTH",
"435 16 OFFCURVE",
"462 -17 OFFCURVE",
"469 -25 CURVE",
"463 -41 OFFCURVE",
"442 -86 OFFCURVE",
"374 -108 CURVE SMOOTH",
"351 -116 OFFCURVE",
"323 -120 OFFCURVE",
"287 -120 CURVE SMOOTH",
"229 -120 OFFCURVE",
"190 -106 OFFCURVE",
"164 -87 CURVE SMOOTH",
"117 -52 OFFCURVE",
"110 -9 OFFCURVE",
"110 8 CURVE SMOOTH",
"110 65 OFFCURVE",
"129 95 OFFCURVE",
"143 115 CURVE",
"127 131 LINE",
"107 107 OFFCURVE",
"95 83 OFFCURVE",
"87 57 CURVE SMOOTH",
"70 7 OFFCURVE",
"70 -39 OFFCURVE",
"70 -52 CURVE SMOOTH",
"70 -83 OFFCURVE",
"80 -144 OFFCURVE",
"127 -188 CURVE SMOOTH",
"158 -217 OFFCURVE",
"205 -238 OFFCURVE",
"277 -238 CURVE SMOOTH",
"335 -238 OFFCURVE",
"395 -223 OFFCURVE",
"439 -185 CURVE SMOOTH",
"477 -152 OFFCURVE",
"502 -103 OFFCURVE",
"503 -33 CURVE SMOOTH",
"503 -22 OFFCURVE",
"503 -11 OFFCURVE",
"502 0 CURVE",
"615 0 LINE",
"615 106 LINE"
);
}
);
width = 615;
}
);
unicode = FB9F;
},
{
glyphname = "heh-ar";
lastChange = "2015-11-17 00:51:49 +0000";
layers = (
{
anchors = (
{
name = bottom;
position = "{166, -38}";
},
{
name = top;
position = "{128, 390}";
}
);
layerId = "51F41761-070F-43EA-B302-C90910850260";
name = Regular;
paths = (
{
closed = 1;
nodes = (
"270 234 OFFCURVE",
"249 263 OFFCURVE",
"220 288 CURVE SMOOTH",
"185 318 OFFCURVE",
"137 340 OFFCURVE",
"98 360 CURVE",
"98 270 LINE",
"119 257 LINE",
"104 251 OFFCURVE",
"92 240 OFFCURVE",
"84 227 CURVE SMOOTH",
"75 212 OFFCURVE",
"70 192 OFFCURVE",
"70 173 CURVE",
"70 78 LINE",
"70 52 OFFCURVE",
"79 29 OFFCURVE",
"105 13 CURVE SMOOTH",
"123 2 OFFCURVE",
"145 -4 OFFCURVE",
"166 -4 CURVE SMOOTH",
"187 -4 OFFCURVE",
"208 1 OFFCURVE",
"225 12 CURVE SMOOTH",
"255 31 OFFCURVE",
"271 61 OFFCURVE",
"271 96 CURVE",
"270 195 LINE"
);
},
{
closed = 1;
nodes = (
"109 166 OFFCURVE",
"131 176 OFFCURVE",
"152 179 CURVE",
"152 240 LINE",
"161 233 OFFCURVE",
"182 219 OFFCURVE",
"202 201 CURVE SMOOTH",
"221 184 OFFCURVE",
"240 165 OFFCURVE",
"248 147 CURVE",
"230 120 OFFCURVE",
"199 106 OFFCURVE",
"169 106 CURVE SMOOTH",
"143 105 OFFCURVE",
"117 114 OFFCURVE",
"101 134 CURVE"
);
}
);
width = 331;
}
);
unicode = 0647;
},
{
glyphname = "heh-ar.fina";
lastChange = "2015-11-17 07:40:27 +0000";
layers = (
{
anchors = (
{
name = bottom;
position = "{181, -34}";
},
{
name = top;
position = "{157, 416}";
}
);
layerId = "51F41761-070F-43EA-B302-C90910850260";
name = Regular;
paths = (
{
closed = 1;
nodes = (
"343 106 OFFCURVE",
"326 107 OFFCURVE",
"311 127 CURVE SMOOTH",
"303 138 OFFCURVE",
"296 152 OFFCURVE",
"289 181 CURVE SMOOTH",
"279 223 OFFCURVE",
"254 335 OFFCURVE",
"237 411 CURVE SMOOTH",
"210 390 OFFCURVE",
"192 372 OFFCURVE",
"195 336 CURVE",
"164 314 OFFCURVE",
"128 311 OFFCURVE",
"100 289 CURVE SMOOTH",
"83 276 OFFCURVE",
"70 257 OFFCURVE",
"70 227 CURVE",
"70 150 LINE",
"70 134 OFFCURVE",
"101 100 OFFCURVE",
"128 100 CURVE",
"199 101 LINE",
"231 158 LINE",
"237 127 OFFCURVE",
"243 100 OFFCURVE",
"246 86 CURVE SMOOTH",
"255 45 OFFCURVE",
"277 0 OFFCURVE",
"343 0 CURVE SMOOTH",
"377 0 OFFCURVE",
"405 0 OFFCURVE",
"424 0 CURVE",
"424 106 LINE",
"357 106 LINE"
);
},
{
closed = 1;
nodes = (
"120 195 LINE",
"111 195 OFFCURVE",
"100 199 OFFCURVE",
"94 209 CURVE",
"113 241 OFFCURVE",
"148 252 OFFCURVE",
"181 259 CURVE",
"204 290 LINE",
"204 290 OFFCURVE",
"216 230 OFFCURVE",
"220 210 CURVE",
"208 197 OFFCURVE",
"200 195 OFFCURVE",
"170 195 CURVE"
);
}
);
width = 424;
}
);
unicode = FEEA;
},
{
glyphname = "heh-ar.medi";
lastChange = "2015-11-17 00:50:30 +0000";
layers = (
{
anchors = (
{
name = bottom;
position = "{219, -224}";
},
{
name = top;
position = "{206, 410}";
}
);
layerId = "51F41761-070F-43EA-B302-C90910850260";
name = Regular;
paths = (
{
closed = 1;
nodes = (
"299 106 LINE",
"283 106 OFFCURVE",
"258 101 OFFCURVE",
"234 90 CURVE",
"239 94 OFFCURVE",
"261 108 OFFCURVE",
"279 129 CURVE SMOOTH",
"295 147 OFFCURVE",
"306 169 OFFCURVE",
"300 192 CURVE",
"282 255 OFFCURVE",
"256 346 OFFCURVE",
"246 380 CURVE",
"186 341 LINE",
"193 321 LINE",
"198 305 OFFCURVE",
"192 283 OFFCURVE",
"171 250 CURVE SMOOTH",
"157 228 OFFCURVE",
"138 204 OFFCURVE",
"122 186 CURVE SMOOTH",
"90 150 OFFCURVE",
"54 118 OFFCURVE",
"36 106 CURVE",
"-16 106 LINE SMOOTH",
"-45 106 OFFCURVE",
"-69 81 OFFCURVE",
"-69 52 CURVE SMOOTH",
"-69 24 OFFCURVE",
"-45 0 OFFCURVE",
"-16 0 CURVE SMOOTH",
"41 0 LINE",
"41 -34 LINE",
"53 -29 OFFCURVE",
"65 -24 OFFCURVE",
"78 -19 CURVE",
"78 -54 OFFCURVE",
"88 -85 OFFCURVE",
"106 -111 CURVE SMOOTH",
"134 -152 OFFCURVE",
"186 -187 OFFCURVE",
"224 -196 CURVE SMOOTH",
"237 -199 OFFCURVE",
"249 -200 OFFCURVE",
"254 -200 CURVE SMOOTH",
"285 -200 OFFCURVE",
"314 -159 OFFCURVE",
"325 -137 CURVE SMOOTH",
"340 -108 OFFCURVE",
"344 -78 OFFCURVE",
"344 -69 CURVE SMOOTH",
"344 -50 OFFCURVE",
"323 -27 OFFCURVE",
"290 0 CURVE",
"437 0 LINE",
"437 106 LINE"
);
},
{
closed = 1;
nodes = (
"243 167 LINE",
"221 145 OFFCURVE",
"180 125 OFFCURVE",
"99 106 CURVE",
"140 138 OFFCURVE",
"198 210 OFFCURVE",
"218 245 CURVE"
);
},
{
closed = 1;
nodes = (
"290 -83 OFFCURVE",
"279 -99 OFFCURVE",
"249 -99 CURVE SMOOTH",
"230 -99 OFFCURVE",
"209 -93 OFFCURVE",
"191 -85 CURVE SMOOTH",
"158 -70 OFFCURVE",
"130 -44 OFFCURVE",
"107 -8 CURVE",
"125 -3 OFFCURVE",
"143 0 OFFCURVE",
"165 0 CURVE SMOOTH",
"186 0 OFFCURVE",
"200 -3 OFFCURVE",
"217 -9 CURVE SMOOTH",
"237 -16 OFFCURVE",
"259 -28 OFFCURVE",
"276 -45 CURVE SMOOTH",
"285 -54 OFFCURVE",
"291 -64 OFFCURVE",
"298 -75 CURVE"
);
}
);
width = 437;
}
);
unicode = FEEC;
},
{
glyphname = "heh-ar.init";
lastChange = "2015-11-17 00:54:06 +0000";
layers = (
{
anchors = (
{
name = bottom;
position = "{171, -34}";
},
{
name = top;
position = "{164, 423}";
}
);
layerId = "51F41761-070F-43EA-B302-C90910850260";
name = Regular;
paths = (
{
closed = 1;
nodes = (
"237 325 OFFCURVE",
"144 368 OFFCURVE",
"134 393 CURVE",
"134 393 OFFCURVE",
"134 358 OFFCURVE",
"134 344 CURVE SMOOTH",
"134 329 OFFCURVE",
"132 317 OFFCURVE",
"143 303 CURVE",
"87 280 OFFCURVE",
"58 222 OFFCURVE",
"58 178 CURVE SMOOTH",
"58 154 OFFCURVE",
"66 131 OFFCURVE",
"83 112 CURVE",
"69 108 OFFCURVE",
"51 106 OFFCURVE",
"33 106 CURVE SMOOTH",
"-17 106 LINE SMOOTH",
"-46 106 OFFCURVE",
"-70 81 OFFCURVE",
"-70 53 CURVE SMOOTH",
"-70 24 OFFCURVE",
"-46 0 OFFCURVE",
"-17 0 CURVE SMOOTH",
"8 0 LINE SMOOTH",
"48 0 OFFCURVE",
"83 1 OFFCURVE",
"114 9 CURVE SMOOTH",
"141 16 OFFCURVE",
"164 27 OFFCURVE",
"186 46 CURVE",
"208 39 OFFCURVE",
"247 17 OFFCURVE",
"291 -10 CURVE",
"310 -10 OFFCURVE",
"326 1 OFFCURVE",
"338 16 CURVE SMOOTH",
"357 38 OFFCURVE",
"367 67 OFFCURVE",
"369 76 CURVE SMOOTH",
"380 137 OFFCURVE",
"372 181 OFFCURVE",
"356 214 CURVE SMOOTH",
"333 262 OFFCURVE",
"292 286 OFFCURVE",
"264 306 CURVE SMOOTH"
);
},
{
closed = 1;
nodes = (
"121 175 OFFCURVE",
"101 188 OFFCURVE",
"94 209 CURVE",
"108 232 OFFCURVE",
"129 248 OFFCURVE",
"152 248 CURVE SMOOTH",
"175 248 OFFCURVE",
"205 230 OFFCURVE",
"211 196 CURVE",
"201 179 OFFCURVE",
"187 164 OFFCURVE",
"171 152 CURVE"
);
},
{
closed = 1;
nodes = (
"275 96 OFFCURVE",
"268 100 OFFCURVE",
"234 119 CURVE",
"255 151 OFFCURVE",
"258 181 OFFCURVE",
"238 232 CURVE",
"245 226 OFFCURVE",
"270 211 OFFCURVE",
"294 187 CURVE SMOOTH",
"310 171 OFFCURVE",
"326 151 OFFCURVE",
"334 128 CURVE",
"329 87 OFFCURVE",
"301 84 OFFCURVE",
"301 84 CURVE"
);
}
);
width = 434;
}
);
unicode = FEEB;
},
{
glyphname = "hehgoal-ar.fina";
lastChange = "2015-11-23 17:30:17 +0000";
layers = (
{
anchors = (
{
name = bottom;
position = "{171, -194}";
},
{
name = top;
position = "{155, 294}";
}
);
layerId = "51F41761-070F-43EA-B302-C90910850260";
name = Regular;
paths = (
{
closed = 1;
nodes = (
"334 106 OFFCURVE",
"295 115 OFFCURVE",
"271 149 CURVE SMOOTH",
"253 175 OFFCURVE",
"254 210 OFFCURVE",
"235 236 CURVE SMOOTH",
"221 256 OFFCURVE",
"203 264 OFFCURVE",
"185 264 CURVE SMOOTH",
"159 264 OFFCURVE",
"127 247 OFFCURVE",
"103 217 CURVE SMOOTH",
"83 193 OFFCURVE",
"70 162 OFFCURVE",
"70 125 CURVE",
"70 50 LINE",
"71 37 OFFCURVE",
"73 24 OFFCURVE",
"78 13 CURVE SMOOTH",
"87 -9 OFFCURVE",
"102 -27 OFFCURVE",
"118 -41 CURVE SMOOTH",
"134 -55 OFFCURVE",
"171 -80 OFFCURVE",
"178 -85 CURVE SMOOTH",
"207 -106 OFFCURVE",
"243 -128 OFFCURVE",
"256 -163 CURVE",
"261 -163 LINE",
"261 -163 OFFCURVE",
"261 -107 OFFCURVE",
"261 -83 CURVE SMOOTH",
"261 -40 OFFCURVE",
"234 -13 OFFCURVE",
"203 11 CURVE SMOOTH",
"177 30 OFFCURVE",
"147 47 OFFCURVE",
"126 69 CURVE SMOOTH",
"117 79 OFFCURVE",
"110 88 OFFCURVE",
"103 98 CURVE",
"107 105 OFFCURVE",
"111 112 OFFCURVE",
"117 119 CURVE SMOOTH",
"136 142 OFFCURVE",
"161 156 OFFCURVE",
"185 156 CURVE SMOOTH",
"209 157 OFFCURVE",
"231 144 OFFCURVE",
"245 113 CURVE SMOOTH",
"256 87 OFFCURVE",
"258 58 OFFCURVE",
"278 36 CURVE SMOOTH",
"303 8 OFFCURVE",
"338 0 OFFCURVE",
"373 0 CURVE SMOOTH",
"411 0 LINE",
"411 106 LINE",
"373 106 LINE SMOOTH"
);
}
);
width = 411;
}
);
unicode = FBA7;
},
{
glyphname = "hehgoal-ar.medi";
lastChange = "2015-11-17 00:52:37 +0000";
layers = (
{
anchors = (
{
name = bottom;
position = "{218, -294}";
},
{
name = top;
position = "{230, 245}";
}
);
layerId = "51F41761-070F-43EA-B302-C90910850260";
name = Regular;
paths = (
{
closed = 1;
nodes = (
"347 106 OFFCURVE",
"283 79 OFFCURVE",
"244 28 CURVE SMOOTH",
"217 -5 OFFCURVE",
"203 -60 OFFCURVE",
"207 -114 CURVE",
"191 -94 OFFCURVE",
"180 -67 OFFCURVE",
"177 -37 CURVE SMOOTH",
"174 -5 OFFCURVE",
"180 28 OFFCURVE",
"192 59 CURVE SMOOTH",
"201 83 OFFCURVE",
"214 105 OFFCURVE",
"230 125 CURVE",
"230 215 LINE",
"201 169 OFFCURVE",
"166 142 OFFCURVE",
"128 126 CURVE SMOOTH",
"89 110 OFFCURVE",
"46 107 OFFCURVE",
"4 106 CURVE SMOOTH",
"-17 106 LINE SMOOTH",
"-46 106 OFFCURVE",
"-70 82 OFFCURVE",
"-70 53 CURVE SMOOTH",
"-70 24 OFFCURVE",
"-46 0 OFFCURVE",
"-17 0 CURVE SMOOTH",
"21 0 LINE SMOOTH",
"66 0 OFFCURVE",
"104 4 OFFCURVE",
"139 23 CURVE",
"128 -32 OFFCURVE",
"126 -106 OFFCURVE",
"160 -169 CURVE SMOOTH",
"180 -207 OFFCURVE",
"214 -241 OFFCURVE",
"268 -264 CURVE",
"268 -159 LINE",
"257 -152 OFFCURVE",
"246 -145 OFFCURVE",
"236 -138 CURVE",
"235 -109 OFFCURVE",
"243 -76 OFFCURVE",
"268 -49 CURVE SMOOTH",
"294 -21 OFFCURVE",
"340 0 OFFCURVE",
"414 0 CURVE SMOOTH",
"483 0 LINE",
"483 106 LINE",
"423 106 LINE SMOOTH"
);
}
);
width = 483;
}
);
unicode = FBA9;
},
{
glyphname = "hehgoal-ar.init";
lastChange = "2015-11-25 21:42:07 +0000";
layers = (
{
anchors = (
{
name = bottom;
position = "{32, -211}";
},
{
name = top;
position = "{-12, 301}";
}
);
layerId = "51F41761-070F-43EA-B302-C90910850260";
name = Regular;
paths = (
{
closed = 1;
nodes = (
"113 -34 LINE",
"49 -34 OFFCURVE",
"-12 -78 OFFCURVE",
"-12 -137 CURVE SMOOTH",
"-12 -171 OFFCURVE",
"6 -191 OFFCURVE",
"32 -191 CURVE SMOOTH",
"53 -191 OFFCURVE",
"67 -180 OFFCURVE",
"72 -156 CURVE",
"44 -158 OFFCURVE",
"29 -144 OFFCURVE",
"29 -120 CURVE SMOOTH",
"29 -86 OFFCURVE",
"69 -56 OFFCURVE",
"113 -53 CURVE"
);
},
{
closed = 1;
nodes = (
"164 183 OFFCURVE",
"157 223 OFFCURVE",
"139 256 CURVE SMOOTH",
"125 281 OFFCURVE",
"105 303 OFFCURVE",
"79 321 CURVE",
"50 215 LINE",
"88 196 OFFCURVE",
"114 170 OFFCURVE",
"125 131 CURVE",
"120 127 OFFCURVE",
"116 124 OFFCURVE",
"105 119 CURVE SMOOTH",
"81 108 OFFCURVE",
"51 106 OFFCURVE",
"29 106 CURVE SMOOTH",
"-17 106 LINE SMOOTH",
"-46 106 OFFCURVE",
"-70 83 OFFCURVE",
"-70 53 CURVE SMOOTH",
"-70 23 OFFCURVE",
"-46 0 OFFCURVE",
"-17 0 CURVE SMOOTH",
"37 0 LINE SMOOTH",
"61 0 OFFCURVE",
"105 15 OFFCURVE",
"130 39 CURVE SMOOTH",
"146 54 OFFCURVE",
"164 82 OFFCURVE",
"164 117 CURVE SMOOTH",
"164 135 OFFCURVE",
"164 134 OFFCURVE",
"164 148 CURVE SMOOTH"
);
}
);
width = 204;
}
);
unicode = FBA8;
},
{
glyphname = "hehDoachashmee-ar.fina";
lastChange = "2015-11-17 00:54:18 +0000";
layers = (
{
anchors = (
{
name = bottom;
position = "{301, -34}";
},
{
name = top;
position = "{278, 423}";
}
);
layerId = "51F41761-070F-43EA-B302-C90910850260";
name = Regular;
paths = (
{
closed = 1;
nodes = (
"64 -13 LINE",
"170 -12 LINE SMOOTH",
"214 -12 OFFCURVE",
"272 18 OFFCURVE",
"305 54 CURVE",
"333 38 OFFCURVE",
"366 18 OFFCURVE",
"405 -10 CURVE",
"424 -10 OFFCURVE",
"440 1 OFFCURVE",
"452 16 CURVE",
"462 28 OFFCURVE",
"470 41 OFFCURVE",
"475 53 CURVE",
"481 40 OFFCURVE",
"489 30 OFFCURVE",
"499 21 CURVE",
"515 8 OFFCURVE",
"537 0 OFFCURVE",
"566 0 CURVE SMOOTH",
"613 0 LINE",
"613 106 LINE",
"539 106 LINE SMOOTH",
"497 106 OFFCURVE",
"487 118 OFFCURVE",
"487 150 CURVE",
"485 175 OFFCURVE",
"479 196 OFFCURVE",
"470 214 CURVE SMOOTH",
"447 262 OFFCURVE",
"406 286 OFFCURVE",
"378 306 CURVE SMOOTH",
"351 325 OFFCURVE",
"258 368 OFFCURVE",
"248 393 CURVE",
"248 344 LINE SMOOTH",
"248 329 OFFCURVE",
"246 317 OFFCURVE",
"257 303 CURVE",
"201 280 OFFCURVE",
"172 222 OFFCURVE",
"172 178 CURVE SMOOTH",
"172 129 OFFCURVE",
"186 116 OFFCURVE",
"229 94 CURVE",
"182 61 OFFCURVE",
"111 34 OFFCURVE",
"50 16 CURVE"
);
},
{
closed = 1;
nodes = (
"222 232 OFFCURVE",
"243 248 OFFCURVE",
"266 248 CURVE SMOOTH",
"289 248 OFFCURVE",
"319 230 OFFCURVE",
"325 196 CURVE",
"315 179 OFFCURVE",
"301 164 OFFCURVE",
"285 152 CURVE",
"235 175 OFFCURVE",
"215 188 OFFCURVE",
"208 209 CURVE"
);
},
{
closed = 1;
nodes = (
"369 151 OFFCURVE",
"372 181 OFFCURVE",
"352 232 CURVE",
"359 226 OFFCURVE",
"384 211 OFFCURVE",
"408 187 CURVE SMOOTH",
"424 171 OFFCURVE",
"440 151 OFFCURVE",
"448 128 CURVE",
"443 87 OFFCURVE",
"415 84 OFFCURVE",
"415 84 CURVE",
"389 96 OFFCURVE",
"382 100 OFFCURVE",
"348 119 CURVE"
);
}
);
width = 613;
}
);
unicode = FBAB;
},
{
glyphname = "hehDoachashmee-ar.medi";
lastChange = "2015-11-17 00:54:34 +0000";
layers = (
{
anchors = (
{
name = bottom;
position = "{187, -34}";
},
{
name = top;
position = "{164, 423}";
}
);
layerId = "51F41761-070F-43EA-B302-C90910850260";
name = Regular;
paths = (
{
closed = 1;
nodes = (
"-70 24 OFFCURVE",
"-46 0 OFFCURVE",
"-17 0 CURVE SMOOTH",
"8 0 LINE SMOOTH",
"48 0 OFFCURVE",
"83 1 OFFCURVE",
"114 9 CURVE SMOOTH",
"141 16 OFFCURVE",
"164 27 OFFCURVE",
"186 46 CURVE",
"208 39 OFFCURVE",
"247 17 OFFCURVE",
"291 -10 CURVE",
"310 -10 OFFCURVE",
"326 1 OFFCURVE",
"338 16 CURVE",
"348 27 OFFCURVE",
"355 41 OFFCURVE",
"360 52 CURVE",
"367 40 OFFCURVE",
"376 29 OFFCURVE",
"385 21 CURVE",
"401 8 OFFCURVE",
"423 0 OFFCURVE",
"452 0 CURVE SMOOTH",
"499 0 LINE",
"499 106 LINE",
"425 106 LINE SMOOTH",
"390 106 OFFCURVE",
"377 114 OFFCURVE",
"374 135 CURVE",
"373 167 OFFCURVE",
"366 193 OFFCURVE",
"356 214 CURVE SMOOTH",
"333 262 OFFCURVE",
"292 286 OFFCURVE",
"264 306 CURVE SMOOTH",
"237 325 OFFCURVE",
"144 368 OFFCURVE",
"134 393 CURVE",
"134 344 LINE SMOOTH",
"134 329 OFFCURVE",
"132 317 OFFCURVE",
"143 303 CURVE",
"87 280 OFFCURVE",
"58 222 OFFCURVE",
"58 178 CURVE SMOOTH",
"58 154 OFFCURVE",
"66 131 OFFCURVE",
"83 112 CURVE",
"69 108 OFFCURVE",
"51 106 OFFCURVE",
"33 106 CURVE SMOOTH",
"-17 106 LINE SMOOTH",
"-46 106 OFFCURVE",
"-70 81 OFFCURVE",
"-70 53 CURVE SMOOTH"
);
},
{
closed = 1;
nodes = (
"108 232 OFFCURVE",
"129 248 OFFCURVE",
"152 248 CURVE SMOOTH",
"175 248 OFFCURVE",
"205 230 OFFCURVE",
"211 196 CURVE",
"201 179 OFFCURVE",
"187 164 OFFCURVE",
"171 152 CURVE",
"121 175 OFFCURVE",
"101 188 OFFCURVE",
"94 209 CURVE"
);
},
{
closed = 1;
nodes = (
"255 151 OFFCURVE",
"258 181 OFFCURVE",
"238 232 CURVE",
"245 226 OFFCURVE",
"270 211 OFFCURVE",
"294 187 CURVE SMOOTH",
"310 171 OFFCURVE",
"326 151 OFFCURVE",
"334 128 CURVE",
"329 87 OFFCURVE",
"301 84 OFFCURVE",
"301 84 CURVE",
"275 96 OFFCURVE",
"268 100 OFFCURVE",
"234 119 CURVE"
);
}
);
width = 499;
}
);
unicode = FBAD;
},
{
glyphname = "waw-ar";
lastChange = "2015-11-17 00:55:01 +0000";
layers = (
{
anchors = (
{
name = bottom;
position = "{121, -280}";
},
{
name = top;
position = "{151, 284}";
}
);
layerId = "51F41761-070F-43EA-B302-C90910850260";
name = Regular;
paths = (
{
closed = 1;
nodes = (
"101 254 OFFCURVE",
"71 211 OFFCURVE",
"68 179 CURVE",
"59 92 LINE",
"58 75 OFFCURVE",
"61 46 OFFCURVE",
"83 25 CURVE SMOOTH",
"98 11 OFFCURVE",
"122 0 OFFCURVE",
"160 0 CURVE SMOOTH",
"176 0 LINE",
"207 52 LINE",
"211 40 OFFCURVE",
"215 26 OFFCURVE",
"217 17 CURVE",
"204 -26 OFFCURVE",
"180 -53 OFFCURVE",
"151 -70 CURVE SMOOTH",
"107 -96 OFFCURVE",
"53 -97 OFFCURVE",
"20 -98 CURVE",
"20 -203 LINE",
"64 -201 OFFCURVE",
"84 -235 OFFCURVE",
"91 -255 CURVE",
"94 -254 LINE",
"94 -197 LINE",
"108 -197 OFFCURVE",
"152 -193 OFFCURVE",
"192 -165 CURVE SMOOTH",
"215 -149 OFFCURVE",
"236 -126 OFFCURVE",
"252 -92 CURVE SMOOTH",
"266 -60 OFFCURVE",
"274 -20 OFFCURVE",
"273 33 CURVE",
"273 94 OFFCURVE",
"260 153 OFFCURVE",
"236 195 CURVE SMOOTH",
"216 231 OFFCURVE",
"187 254 OFFCURVE",
"151 254 CURVE SMOOTH"
);
},
{
closed = 1;
nodes = (
"95 106 OFFCURVE",
"94 132 OFFCURVE",
"94 132 CURVE SMOOTH",
"94 132 OFFCURVE",
"109 163 OFFCURVE",
"141 165 CURVE SMOOTH",
"175 168 OFFCURVE",
"190 124 OFFCURVE",
"196 106 CURVE",
"129 106 LINE SMOOTH"
);
}
);
width = 333;
}
);
unicode = 0648;
},
{
glyphname = "waw-ar.fina";
lastChange = "2015-11-17 00:58:56 +0000";
layers = (
{
anchors = (
{
name = bottom;
position = "{121, -279}";
},
{
name = top;
position = "{131, 284}";
}
);
layerId = "51F41761-070F-43EA-B302-C90910850260";
name = Regular;
paths = (
{
closed = 1;
nodes = (
"267 106 LINE",
"260 147 OFFCURVE",
"246 184 OFFCURVE",
"227 210 CURVE SMOOTH",
"207 237 OFFCURVE",
"181 254 OFFCURVE",
"151 254 CURVE SMOOTH",
"101 254 OFFCURVE",
"71 211 OFFCURVE",
"68 180 CURVE SMOOTH",
"59 92 LINE SMOOTH",
"57 76 OFFCURVE",
"59 50 OFFCURVE",
"77 30 CURVE SMOOTH",
"92 13 OFFCURVE",
"117 0 OFFCURVE",
"159 0 CURVE SMOOTH",
"210 0 LINE",
"197 -33 OFFCURVE",
"175 -55 OFFCURVE",
"151 -69 CURVE SMOOTH",
"107 -95 OFFCURVE",
"53 -97 OFFCURVE",
"20 -98 CURVE",
"20 -203 LINE",
"64 -200 OFFCURVE",
"83 -234 OFFCURVE",
"91 -254 CURVE",
"94 -254 LINE",
"94 -197 LINE",
"108 -197 OFFCURVE",
"151 -192 OFFCURVE",
"192 -165 CURVE SMOOTH",
"231 -137 OFFCURVE",
"267 -88 OFFCURVE",
"272 0 CURVE",
"372 0 LINE",
"372 106 LINE"
);
},
{
closed = 1;
nodes = (
"95 106 OFFCURVE",
"94 132 OFFCURVE",
"94 132 CURVE SMOOTH",
"94 132 OFFCURVE",
"111 166 OFFCURVE",
"140 166 CURVE SMOOTH",
"177 166 OFFCURVE",
"190 125 OFFCURVE",
"195 106 CURVE",
"128 106 LINE SMOOTH"
);
}
);
width = 372;
}
);
unicode = FEEE;
},
{
glyphname = "alefMaksura-ar";
lastChange = "2015-11-17 01:00:04 +0000";
layers = (
{
anchors = (
{
name = bottom;
position = "{294, -208}";
},
{
name = top;
position = "{226, 205}";
}
);
layerId = "51F41761-070F-43EA-B302-C90910850260";
name = Regular;
paths = (
{
closed = 1;
nodes = (
"381 122 OFFCURVE",
"347 125 OFFCURVE",
"347 154 CURVE",
"384 197 OFFCURVE",
"413 226 OFFCURVE",
"455 226 CURVE SMOOTH",
"486 226 OFFCURVE",
"499 210 OFFCURVE",
"498 162 CURVE",
"522 170 LINE",
"533 189 OFFCURVE",
"537 212 OFFCURVE",
"537 231 CURVE SMOOTH",
"537 278 OFFCURVE",
"511 321 OFFCURVE",
"460 321 CURVE SMOOTH",
"414 321 OFFCURVE",
"371 287 OFFCURVE",
"339 240 CURVE SMOOTH",
"309 196 OFFCURVE",
"292 144 OFFCURVE",
"292 104 CURVE SMOOTH",
"292 82 OFFCURVE",
"297 60 OFFCURVE",
"312 45 CURVE SMOOTH",
"325 33 OFFCURVE",
"345 22 OFFCURVE",
"385 16 CURVE SMOOTH",
"423 11 OFFCURVE",
"469 9 OFFCURVE",
"471 -4 CURVE",
"449 -21 OFFCURVE",
"420 -36 OFFCURVE",
"387 -48 CURVE SMOOTH",
"353 -60 OFFCURVE",
"319 -68 OFFCURVE",
"281 -68 CURVE SMOOTH",
"229 -68 OFFCURVE",
"190 -53 OFFCURVE",
"164 -35 CURVE SMOOTH",
"124 -7 OFFCURVE",
"109 30 OFFCURVE",
"110 71 CURVE SMOOTH",
"111 119 OFFCURVE",
"134 161 OFFCURVE",
"143 171 CURVE",
"127 187 LINE",
"105 163 OFFCURVE",
"94 135 OFFCURVE",
"87 113 CURVE SMOOTH",
"70 61 OFFCURVE",
"70 19 OFFCURVE",
"70 17 CURVE SMOOTH",
"70 -21 OFFCURVE",
"79 -80 OFFCURVE",
"121 -126 CURVE SMOOTH",
"150 -158 OFFCURVE",
"193 -181 OFFCURVE",
"254 -181 CURVE SMOOTH",
"302 -181 OFFCURVE",
"357 -167 OFFCURVE",
"408 -141 CURVE SMOOTH",
"455 -117 OFFCURVE",
"497 -83 OFFCURVE",
"507 -52 CURVE SMOOTH",
"511 -39 OFFCURVE",
"518 -8 OFFCURVE",
"525 24 CURVE SMOOTH",
"529 44 OFFCURVE",
"529 68 OFFCURVE",
"502 89 CURVE SMOOTH",
"486 101 OFFCURVE",
"468 109 OFFCURVE",
"422 116 CURVE SMOOTH"
);
}
);
width = 597;
}
);
unicode = 0649;
},
{
glyphname = "alefMaksura-ar.fina";
lastChange = "2015-11-17 00:59:39 +0000";
layers = (
{
anchors = (
{
name = bottom;
position = "{266, -207}";
},
{
name = top;
position = "{278, 161}";
}
);
layerId = "51F41761-070F-43EA-B302-C90910850260";
name = Regular;
paths = (
{
closed = 1;
nodes = (
"360 106 LINE",
"334 21 LINE",
"345 0 LINE",
"381 0 LINE SMOOTH",
"428 0 OFFCURVE",
"446 -4 OFFCURVE",
"459 -14 CURVE",
"443 -26 OFFCURVE",
"404 -45 OFFCURVE",
"370 -55 CURVE SMOOTH",
"344 -63 OFFCURVE",
"315 -68 OFFCURVE",
"287 -68 CURVE SMOOTH",
"229 -68 OFFCURVE",
"190 -54 OFFCURVE",
"163 -35 CURVE SMOOTH",
"121 -5 OFFCURVE",
"109 34 OFFCURVE",
"109 71 CURVE SMOOTH",
"111 119 OFFCURVE",
"134 161 OFFCURVE",
"143 171 CURVE",
"127 187 LINE",
"107 163 OFFCURVE",
"95 139 OFFCURVE",
"87 113 CURVE SMOOTH",
"70 63 OFFCURVE",
"70 17 OFFCURVE",
"70 4 CURVE SMOOTH",
"70 -14 OFFCURVE",
"78 -75 OFFCURVE",
"119 -122 CURVE SMOOTH",
"148 -156 OFFCURVE",
"196 -182 OFFCURVE",
"266 -182 CURVE SMOOTH",
"307 -182 OFFCURVE",
"355 -171 OFFCURVE",
"398 -152 CURVE SMOOTH",
"459 -125 OFFCURVE",
"509 -82 OFFCURVE",
"509 -33 CURVE SMOOTH",
"509 -7 OFFCURVE",
"501 0 OFFCURVE",
"501 0 CURVE",
"545 0 LINE",
"545 106 LINE"
);
}
);
width = 545;
}
);
unicode = FEF0;
},
{
glyphname = "yehTail-ar";
lastChange = "2015-11-17 02:18:26 +0000";
layers = (
{
components = (
{
name = "alefMaksura-ar";
transform = "{1.07, 0, 0, 1.07, 28, -5}";
}
);
layerId = "51F41761-070F-43EA-B302-C90910850260";
name = Regular;
paths = (
{
closed = 1;
nodes = (
"70 136 LINE",
"70 84 LINE",
"91 107 OFFCURVE",
"120 132 OFFCURVE",
"147 144 CURVE",
"164 195 LINE"
);
}
);
width = 663;
}
);
unicode = 06CD;
},
{
glyphname = "yehTail-ar.fina";
lastChange = "2015-11-16 06:25:32 +0000";
layers = (
{
components = (
{
name = "alefMaksura-ar.fina";
transform = "{1, 0, 0, 1, 37, 0}";
}
);
layerId = "51F41761-070F-43EA-B302-C90910850260";
name = Regular;
paths = (
{
closed = 1;
nodes = (
"70 128 LINE",
"70 76 LINE",
"91 100 OFFCURVE",
"122 125 OFFCURVE",
"150 138 CURVE",
"164 156 LINE",
"164 187 LINE"
);
}
);
width = 582;
}
);
},
{
glyphname = "yehbarree-ar";
lastChange = "2015-11-17 01:06:52 +0000";
layers = (
{
anchors = (
{
name = bottom;
position = "{438, -34}";
},
{
name = top;
position = "{411, 450}";
}
);
layerId = "51F41761-070F-43EA-B302-C90910850260";
name = Regular;
paths = (
{
closed = 1;
nodes = (
"661 106 OFFCURVE",
"399 106 OFFCURVE",
"298 106 CURVE SMOOTH",
"275 106 OFFCURVE",
"240 105 OFFCURVE",
"206 106 CURVE SMOOTH",
"158 107 OFFCURVE",
"109 111 OFFCURVE",
"105 141 CURVE",
"114 178 OFFCURVE",
"132 191 OFFCURVE",
"157 198 CURVE SMOOTH",
"186 206 OFFCURVE",
"236 208 OFFCURVE",
"274 234 CURVE SMOOTH",
"297 249 OFFCURVE",
"325 288 OFFCURVE",
"336 301 CURVE SMOOTH",
"351 319 OFFCURVE",
"365 333 OFFCURVE",
"389 333 CURVE SMOOTH",
"408 333 OFFCURVE",
"437 324 OFFCURVE",
"418 240 CURVE",
"438 240 LINE",
"446 266 OFFCURVE",
"462 319 OFFCURVE",
"459 362 CURVE SMOOTH",
"457 395 OFFCURVE",
"444 420 OFFCURVE",
"411 420 CURVE SMOOTH",
"384 420 OFFCURVE",
"372 403 OFFCURVE",
"352 379 CURVE SMOOTH",
"340 364 OFFCURVE",
"313 331 OFFCURVE",
"271 308 CURVE SMOOTH",
"240 291 OFFCURVE",
"216 287 OFFCURVE",
"189 278 CURVE SMOOTH",
"172 272 OFFCURVE",
"151 263 OFFCURVE",
"129 246 CURVE SMOOTH",
"98 222 OFFCURVE",
"82 196 OFFCURVE",
"79 158 CURVE SMOOTH",
"70 67 LINE",
"70 44 OFFCURVE",
"83 29 OFFCURVE",
"103 19 CURVE SMOOTH",
"131 4 OFFCURVE",
"170 0 OFFCURVE",
"198 0 CURVE SMOOTH",
"332 0 OFFCURVE",
"842 0 OFFCURVE",
"842 0 CURVE",
"908 111 LINE",
"908 111 OFFCURVE",
"803 106 OFFCURVE",
"689 106 CURVE SMOOTH"
);
}
);
width = 968;
}
);
unicode = 06D2;
},
{
glyphname = "yehbarree-ar.fina";
lastChange = "2015-11-17 01:07:15 +0000";
layers = (
{
anchors = (
{
name = bottom;
position = "{390, -331}";
},
{
name = top;
position = "{168, 136}";
}
);
layerId = "51F41761-070F-43EA-B302-C90910850260";
name = Regular;
paths = (
{
closed = 1;
nodes = (
"353 0 OFFCURVE",
"365 0 OFFCURVE",
"420 0 CURVE",
"543 0 LINE",
"543 106 LINE",
"214 106 LINE",
"168 106 OFFCURVE",
"137 86 OFFCURVE",
"116 62 CURVE SMOOTH",
"89 30 OFFCURVE",
"80 -11 OFFCURVE",
"79 -25 CURVE",
"70 -116 LINE",
"70 -137 OFFCURVE",
"82 -155 OFFCURVE",
"100 -166 CURVE SMOOTH",
"115 -177 OFFCURVE",
"136 -183 OFFCURVE",
"156 -183 CURVE",
"230 -183 LINE",
"277 -186 OFFCURVE",
"307 -205 OFFCURVE",
"322 -244 CURVE SMOOTH",
"337 -283 OFFCURVE",
"347 -306 OFFCURVE",
"390 -307 CURVE",
"477 -307 LINE",
"543 -196 LINE",
"508 -199 OFFCURVE",
"481 -201 OFFCURVE",
"445 -201 CURVE",
"405 -201 LINE",
"373 -201 OFFCURVE",
"343 -199 OFFCURVE",
"324 -178 CURVE SMOOTH",
"306 -159 OFFCURVE",
"307 -130 OFFCURVE",
"294 -108 CURVE SMOOTH",
"280 -84 OFFCURVE",
"254 -77 OFFCURVE",
"228 -77 CURVE",
"187 -77 LINE SMOOTH",
"150 -77 OFFCURVE",
"109 -70 OFFCURVE",
"105 -42 CURVE",
"113 -25 OFFCURVE",
"131 -14 OFFCURVE",
"154 -7 CURVE SMOOTH",
"190 5 OFFCURVE",
"237 4 OFFCURVE",
"273 3 CURVE SMOOTH"
);
}
);
width = 543;
}
);
unicode = FBAF;
},
{
glyphname = "yehRohingya-ar.pt.fina";
lastChange = "2015-11-25 20:32:36 +0000";
layers = (
{
anchors = (
{
name = bottom;
position = "{329, -34}";
},
{
name = top;
position = "{415, 351}";
}
);
layerId = "51F41761-070F-43EA-B302-C90910850260";
name = Regular;
paths = (
{
closed = 1;
nodes = (
"70 -57 OFFCURVE",
"82 -85 OFFCURVE",
"101 -107 CURVE SMOOTH",
"119 -128 OFFCURVE",
"143 -143 OFFCURVE",
"170 -146 CURVE",
"196 -129 LINE",
"167 -116 OFFCURVE",
"141 -93 OFFCURVE",
"141 -58 CURVE SMOOTH",
"141 -25 OFFCURVE",
"162 0 OFFCURVE",
"212 0 CURVE SMOOTH",
"290 0 LINE SMOOTH",
"343 0 OFFCURVE",
"394 20 OFFCURVE",
"410 36 CURVE",
"450 9 OFFCURVE",
"490 0 OFFCURVE",
"542 0 CURVE SMOOTH",
"590 0 LINE",
"590 106 LINE",
"542 106 LINE SMOOTH",
"535 106 OFFCURVE",
"499 107 OFFCURVE",
"487 109 CURVE",
"487 109 OFFCURVE",
"507 129 OFFCURVE",
"507 167 CURVE SMOOTH",
"507 202 LINE SMOOTH",
"507 246 OFFCURVE",
"505 321 OFFCURVE",
"439 321 CURVE SMOOTH",
"415 321 OFFCURVE",
"390 311 OFFCURVE",
"368 289 CURVE SMOOTH",
"335 256 OFFCURVE",
"330 224 OFFCURVE",
"330 179 CURVE SMOOTH",
"330 152 LINE SMOOTH",
"330 141 OFFCURVE",
"333 126 OFFCURVE",
"339 111 CURVE",
"332 107 OFFCURVE",
"321 106 OFFCURVE",
"297 106 CURVE SMOOTH",
"219 106 LINE SMOOTH",
"173 106 OFFCURVE",
"133 92 OFFCURVE",
"107 65 CURVE SMOOTH",
"84 42 OFFCURVE",
"70 10 OFFCURVE",
"70 -31 CURVE SMOOTH"
);
},
{
closed = 1;
nodes = (
"371 204 OFFCURVE",
"399 217 OFFCURVE",
"427 217 CURVE SMOOTH",
"461 217 OFFCURVE",
"484 198 OFFCURVE",
"484 198 CURVE",
"464 164 OFFCURVE",
"433 145 OFFCURVE",
"396 131 CURVE",
"365 142 OFFCURVE",
"349 173 OFFCURVE",
"349 173 CURVE"
);
}
);
width = 590;
}
);
},
{
glyphname = "highhamzaWaw-ar.fina";
lastChange = "2015-11-25 21:01:50 +0000";
layers = (
{
anchors = (
{
name = bottom;
position = "{124, -279}";
},
{
name = top;
position = "{151, 284}";
}
);
components = (
{
disableAlignment = 1;
name = "hamzaabove-ar";
transform = "{1, 0, 0, 1, 334, -417}";
}
);
layerId = "51F41761-070F-43EA-B302-C90910850260";
name = Regular;
paths = (
{
closed = 1;
nodes = (
"267 106 LINE",
"260 147 OFFCURVE",
"246 184 OFFCURVE",
"227 210 CURVE SMOOTH",
"207 237 OFFCURVE",
"181 254 OFFCURVE",
"151 254 CURVE SMOOTH",
"101 254 OFFCURVE",
"71 211 OFFCURVE",
"68 180 CURVE SMOOTH",
"59 92 LINE SMOOTH",
"57 76 OFFCURVE",
"59 50 OFFCURVE",
"77 30 CURVE SMOOTH",
"92 13 OFFCURVE",
"117 0 OFFCURVE",
"159 0 CURVE SMOOTH",
"210 0 LINE",
"197 -33 OFFCURVE",
"175 -55 OFFCURVE",
"151 -69 CURVE SMOOTH",
"107 -95 OFFCURVE",
"53 -97 OFFCURVE",
"20 -98 CURVE",
"20 -203 LINE",
"64 -200 OFFCURVE",
"83 -234 OFFCURVE",
"91 -254 CURVE",
"94 -254 LINE",
"94 -197 LINE",
"108 -197 OFFCURVE",
"151 -192 OFFCURVE",
"192 -165 CURVE SMOOTH",
"231 -137 OFFCURVE",
"267 -88 OFFCURVE",
"272 0 CURVE",
"540 0 LINE",
"540 106 LINE"
);
},
{
closed = 1;
nodes = (
"95 106 OFFCURVE",
"94 132 OFFCURVE",
"94 132 CURVE SMOOTH",
"94 132 OFFCURVE",
"111 166 OFFCURVE",
"140 166 CURVE SMOOTH",
"177 166 OFFCURVE",
"190 125 OFFCURVE",
"195 106 CURVE",
"128 106 LINE SMOOTH"
);
}
);
width = 540;
}
);
},
{
color = 0;
glyphname = "highhamzaYeh-ar.fina";
lastChange = "2015-11-25 21:02:08 +0000";
layers = (
{
anchors = (
{
name = bottom;
position = "{268, -212}";
},
{
name = top;
position = "{279, 169}";
}
);
components = (
{
name = "hamzaabove-ar";
transform = "{1, 0, 0, 1, 604, -556}";
}
);
layerId = "51F41761-070F-43EA-B302-C90910850260";
name = Regular;
paths = (
{
closed = 1;
nodes = (
"360 106 LINE",
"334 21 LINE",
"345 0 LINE",
"381 0 LINE SMOOTH",
"428 0 OFFCURVE",
"446 -4 OFFCURVE",
"459 -14 CURVE",
"443 -26 OFFCURVE",
"404 -45 OFFCURVE",
"370 -55 CURVE SMOOTH",
"344 -63 OFFCURVE",
"315 -68 OFFCURVE",
"287 -68 CURVE SMOOTH",
"229 -68 OFFCURVE",
"190 -54 OFFCURVE",
"163 -35 CURVE SMOOTH",
"121 -5 OFFCURVE",
"109 34 OFFCURVE",
"109 71 CURVE SMOOTH",
"111 119 OFFCURVE",
"134 161 OFFCURVE",
"143 171 CURVE",
"127 187 LINE",
"107 163 OFFCURVE",
"95 139 OFFCURVE",
"87 113 CURVE SMOOTH",
"70 63 OFFCURVE",
"70 17 OFFCURVE",
"70 4 CURVE SMOOTH",
"70 -14 OFFCURVE",
"78 -75 OFFCURVE",
"119 -122 CURVE SMOOTH",
"148 -156 OFFCURVE",
"196 -182 OFFCURVE",
"266 -182 CURVE SMOOTH",
"307 -182 OFFCURVE",
"355 -171 OFFCURVE",
"398 -152 CURVE SMOOTH",
"459 -125 OFFCURVE",
"509 -82 OFFCURVE",
"509 -33 CURVE SMOOTH",
"509 -7 OFFCURVE",
"501 0 OFFCURVE",
"501 0 CURVE",
"797 0 LINE",
"797 106 LINE"
);
}
);
width = 797;
}
);
},
{
color = 0;
glyphname = "highhamzaYeh-ar.medi";
lastChange = "2015-11-25 21:02:24 +0000";
layers = (
{
anchors = (
{
name = bottom;
position = "{86, -34}";
},
{
name = top;
position = "{272, 403}";
}
);
components = (
{
disableAlignment = 1;
name = "hamzaabove-ar";
transform = "{1, 0, 0, 1, 263, -488}";
}
);
layerId = "51F41761-070F-43EA-B302-C90910850260";
name = Regular;
paths = (
{
closed = 1;
nodes = (
"207 106 OFFCURVE",
"187 111 OFFCURVE",
"174 123 CURVE SMOOTH",
"161 134 OFFCURVE",
"155 152 OFFCURVE",
"157 176 CURVE SMOOTH",
"157 176 OFFCURVE",
"142 184 OFFCURVE",
"142 184 CURVE",
"140 174 OFFCURVE",
"136 146 OFFCURVE",
"115 127 CURVE SMOOTH",
"102 115 OFFCURVE",
"82 106 OFFCURVE",
"51 106 CURVE SMOOTH",
"51 106 OFFCURVE",
"-17 106 OFFCURVE",
"-17 106 CURVE SMOOTH",
"-46 106 OFFCURVE",
"-70 82 OFFCURVE",
"-70 53 CURVE SMOOTH",
"-70 24 OFFCURVE",
"-46 0 OFFCURVE",
"-17 0 CURVE SMOOTH",
"32 0 LINE SMOOTH",
"74 0 OFFCURVE",
"100 11 OFFCURVE",
"115 24 CURVE SMOOTH",
"130 36 OFFCURVE",
"136 50 OFFCURVE",
"137 55 CURVE",
"143 41 OFFCURVE",
"152 30 OFFCURVE",
"162 21 CURVE SMOOTH",
"178 8 OFFCURVE",
"200 0 OFFCURVE",
"229 0 CURVE SMOOTH",
"484 0 LINE",
"484 106 LINE",
"233 106 LINE SMOOTH"
);
}
);
width = 484;
}
);
},
{
glyphname = "kashida-ar";
lastChange = "2015-11-16 04:32:28 +0000";
layers = (
{
layerId = "51F41761-070F-43EA-B302-C90910850260";
name = Regular;
paths = (
{
closed = 1;
nodes = (
"-17 106 LINE SMOOTH",
"-46 106 OFFCURVE",
"-70 82 OFFCURVE",
"-70 53 CURVE SMOOTH",
"-70 24 OFFCURVE",
"-46 0 OFFCURVE",
"-17 0 CURVE SMOOTH",
"140 0 LINE",
"140 106 LINE"
);
}
);
width = 140;
}
);
unicode = 0640;
},
{
glyphname = "lam_alef-ar";
lastChange = "2015-11-25 21:04:14 +0000";
layers = (
{
anchors = (
{
name = bottom_1;
position = "{131, -34}";
},
{
name = bottom_2;
position = "{356, -34}";
},
{
name = caret_1;
position = "{272, 0}";
},
{
name = top_1;
position = "{416, 709}";
},
{
name = top_2;
position = "{62, 662}";
}
);
layerId = "51F41761-070F-43EA-B302-C90910850260";
name = Regular;
paths = (
{
closed = 1;
nodes = (
"462 617 OFFCURVE",
"447 643 OFFCURVE",
"431 682 CURVE",
"407 679 OFFCURVE",
"393 662 OFFCURVE",
"385 643 CURVE SMOOTH",
"373 614 OFFCURVE",
"375 582 OFFCURVE",
"375 582 CURVE",
"390 567 LINE",
"396 550 OFFCURVE",
"409 499 OFFCURVE",
"410 432 CURVE SMOOTH",
"411 384 OFFCURVE",
"406 328 OFFCURVE",
"388 276 CURVE",
"369 319 OFFCURVE",
"326 388 OFFCURVE",
"271 455 CURVE SMOOTH",
"217 521 OFFCURVE",
"147 590 OFFCURVE",
"78 630 CURVE",
"50 528 LINE",
"132 442 LINE",
"139 469 LINE",
"186 428 OFFCURVE",
"212 400 OFFCURVE",
"240 367 CURVE SMOOTH",
"287 311 OFFCURVE",
"314 273 OFFCURVE",
"349 209 CURVE",
"332 183 OFFCURVE",
"303 158 OFFCURVE",
"272 140 CURVE SMOOTH",
"243 123 OFFCURVE",
"210 111 OFFCURVE",
"177 106 CURVE",
"155 106 LINE",
"128 -4 LINE",
"128 -4 OFFCURVE",
"140 -4 OFFCURVE",
"249 -2 CURVE SMOOTH",
"394 0 OFFCURVE",
"410 1 OFFCURVE",
"410 1 CURVE",
"442 132 LINE",
"447 152 OFFCURVE",
"429 193 OFFCURVE",
"417 219 CURVE",
"442 259 OFFCURVE",
"458 301 OFFCURVE",
"467 347 CURVE SMOOTH",
"478 403 OFFCURVE",
"478 464 OFFCURVE",
"472 532 CURVE SMOOTH",
"469 564 OFFCURVE",
"472 574 OFFCURVE",
"494 593 CURVE"
);
},
{
closed = 1;
nodes = (
"331 121 OFFCURVE",
"356 144 OFFCURVE",
"374 163 CURVE",
"386 138 OFFCURVE",
"393 119 OFFCURVE",
"396 111 CURVE",
"372 106 OFFCURVE",
"299 106 OFFCURVE",
"299 106 CURVE"
);
}
);
width = 544;
}
);
unicode = FEFB;
},
{
glyphname = "lam_alef-ar.fina";
lastChange = "2015-11-25 21:41:21 +0000";
layers = (
{
anchors = (
{
name = bottom_1;
position = "{222, -42}";
},
{
name = bottom_2;
position = "{467, -34}";
},
{
name = caret_1;
position = "{332, 0}";
},
{
name = top_1;
position = "{482, 712}";
},
{
name = top_2;
position = "{142, 611}";
}
);
layerId = "51F41761-070F-43EA-B302-C90910850260";
name = Regular;
paths = (
{
closed = 1;
nodes = (
"613 106 OFFCURVE",
"591 112 OFFCURVE",
"577 133 CURVE SMOOTH",
"563 153 OFFCURVE",
"555 187 OFFCURVE",
"551 242 CURVE SMOOTH",
"547 294 OFFCURVE",
"534 509 OFFCURVE",
"524 681 CURVE",
"456 611 LINE",
"459 563 OFFCURVE",
"464 476 OFFCURVE",
"467 429 CURVE SMOOTH",
"469 384 OFFCURVE",
"461 337 OFFCURVE",
"448 297 CURVE SMOOTH",
"436 263 OFFCURVE",
"421 233 OFFCURVE",
"403 215 CURVE",
"396 278 OFFCURVE",
"357 369 OFFCURVE",
"295 446 CURVE SMOOTH",
"253 498 OFFCURVE",
"200 544 OFFCURVE",
"139 572 CURVE",
"112 469 LINE",
"194 384 LINE",
"201 410 LINE",
"232 389 OFFCURVE",
"263 358 OFFCURVE",
"290 321 CURVE SMOOTH",
"320 280 OFFCURVE",
"349 224 OFFCURVE",
"362 173 CURVE",
"331 135 OFFCURVE",
"284 101 OFFCURVE",
"224 69 CURVE SMOOTH",
"175 41 OFFCURVE",
"117 15 OFFCURVE",
"50 -12 CURVE",
"223 -22 LINE",
"290 -1 OFFCURVE",
"347 30 OFFCURVE",
"390 70 CURVE SMOOTH",
"438 115 OFFCURVE",
"469 171 OFFCURVE",
"478 236 CURVE",
"482 179 LINE",
"483 164 OFFCURVE",
"482 114 OFFCURVE",
"499 70 CURVE SMOOTH",
"514 33 OFFCURVE",
"542 0 OFFCURVE",
"596 0 CURVE SMOOTH",
"684 0 LINE",
"684 106 LINE",
"644 106 LINE SMOOTH"
);
}
);
width = 684;
}
);
unicode = FEFC;
},
{
glyphname = "dotlessbeh_hah-ar";
lastChange = "2015-11-16 02:01:55 +0000";
layers = (
{
layerId = "51F41761-070F-43EA-B302-C90910850260";
name = Regular;
paths = (
{
closed = 1;
nodes = (
"428 244 OFFCURVE",
"400 251 OFFCURVE",
"347 261 CURVE SMOOTH",
"260 277 OFFCURVE",
"218 276 OFFCURVE",
"203 278 CURVE",
"230 288 OFFCURVE",
"255 300 OFFCURVE",
"277 323 CURVE SMOOTH",
"292 339 OFFCURVE",
"297 350 OFFCURVE",
"309 370 CURVE SMOOTH",
"323 393 OFFCURVE",
"340 413 OFFCURVE",
"364 413 CURVE SMOOTH",
"405 413 OFFCURVE",
"397 356 OFFCURVE",
"393 342 CURVE",
"408 342 LINE",
"418 358 OFFCURVE",
"429 391 OFFCURVE",
"429 418 CURVE SMOOTH",
"429 448 OFFCURVE",
"415 478 OFFCURVE",
"379 478 CURVE SMOOTH",
"349 478 OFFCURVE",
"325 457 OFFCURVE",
"304 431 CURVE SMOOTH",
"296 421 OFFCURVE",
"281 398 OFFCURVE",
"247 366 CURVE SMOOTH",
"225 345 OFFCURVE",
"204 327 OFFCURVE",
"166 307 CURVE SMOOTH",
"142 295 OFFCURVE",
"126 284 OFFCURVE",
"110 257 CURVE",
"106 249 OFFCURVE",
"100 235 OFFCURVE",
"94 212 CURVE",
"105 213 OFFCURVE",
"150 217 OFFCURVE",
"156 217 CURVE SMOOTH",
"160 217 OFFCURVE",
"165 217 OFFCURVE",
"170 217 CURVE SMOOTH",
"233 217 OFFCURVE",
"321 202 OFFCURVE",
"321 202 CURVE",
"247 183 OFFCURVE",
"195 150 OFFCURVE",
"158 113 CURVE SMOOTH",
"87 42 OFFCURVE",
"74 -39 OFFCURVE",
"71 -69 CURVE SMOOTH",
"64 -139 OFFCURVE",
"88 -199 OFFCURVE",
"125 -240 CURVE SMOOTH",
"165 -284 OFFCURVE",
"221 -310 OFFCURVE",
"289 -310 CURVE SMOOTH",
"335 -310 OFFCURVE",
"359 -298 OFFCURVE",
"384 -284 CURVE SMOOTH",
"408 -271 OFFCURVE",
"434 -258 OFFCURVE",
"479 -256 CURVE",
"484 -241 LINE",
"448 -236 OFFCURVE",
"449 -237 OFFCURVE",
"402 -233 CURVE SMOOTH",
"357 -229 OFFCURVE",
"338 -227 OFFCURVE",
"314 -223 CURVE SMOOTH",
"254 -213 OFFCURVE",
"202 -192 OFFCURVE",
"168 -152 CURVE SMOOTH",
"135 -113 OFFCURVE",
"125 -63 OFFCURVE",
"128 -31 CURVE SMOOTH",
"133 21 OFFCURVE",
"174 99 OFFCURVE",
"253 142 CURVE SMOOTH",
"295 165 OFFCURVE",
"349 179 OFFCURVE",
"413 179 CURVE SMOOTH",
"429 179 OFFCURVE",
"446 179 OFFCURVE",
"463 177 CURVE",
"473 198 OFFCURVE",
"486 230 OFFCURVE",
"489 244 CURVE"
);
}
);
width = 549;
}
);
},
{
glyphname = "dotlessbeh_hah-ar.init";
lastChange = "2015-11-16 02:01:55 +0000";
layers = (
{
layerId = "51F41761-070F-43EA-B302-C90910850260";
name = Regular;
paths = (
{
closed = 1;
nodes = (
"500 230 OFFCURVE",
"486 229 OFFCURVE",
"466 229 CURVE SMOOTH",
"394 229 OFFCURVE",
"352 242 OFFCURVE",
"303 253 CURVE SMOOTH",
"263 262 OFFCURVE",
"212 271 OFFCURVE",
"161 271 CURVE",
"161 271 OFFCURVE",
"268 291 OFFCURVE",
"317 366 CURVE SMOOTH",
"327 381 OFFCURVE",
"342 413 OFFCURVE",
"371 413 CURVE SMOOTH",
"400 413 OFFCURVE",
"411 382 OFFCURVE",
"400 342 CURVE",
"415 342 LINE",
"427 360 OFFCURVE",
"433 383 OFFCURVE",
"435 397 CURVE SMOOTH",
"438 419 OFFCURVE",
"440 478 OFFCURVE",
"386 478 CURVE SMOOTH",
"349 478 OFFCURVE",
"326 449 OFFCURVE",
"290 412 CURVE SMOOTH",
"232 351 OFFCURVE",
"204 334 OFFCURVE",
"133 306 CURVE SMOOTH",
"99 293 OFFCURVE",
"76 284 OFFCURVE",
"59 257 CURVE SMOOTH",
"51 244 OFFCURVE",
"40 221 OFFCURVE",
"39 200 CURVE",
"54 191 LINE",
"63 203 OFFCURVE",
"73 216 OFFCURVE",
"114 216 CURVE SMOOTH",
"157 216 OFFCURVE",
"257 202 OFFCURVE",
"305 158 CURVE SMOOTH",
"308 156 OFFCURVE",
"246 135 OFFCURVE",
"228 129 CURVE SMOOTH",
"186 115 OFFCURVE",
"123 98 OFFCURVE",
"26 98 CURVE SMOOTH",
"-21 98 LINE SMOOTH",
"-48 98 OFFCURVE",
"-70 76 OFFCURVE",
"-70 48 CURVE SMOOTH",
"-70 21 OFFCURVE",
"-49 0 OFFCURVE",
"-21 0 CURVE SMOOTH",
"25 0 LINE SMOOTH",
"123 0 OFFCURVE",
"181 33 OFFCURVE",
"243 68 CURVE SMOOTH",
"318 110 OFFCURVE",
"379 138 OFFCURVE",
"472 139 CURVE",
"492 172 OFFCURVE",
"504 197 OFFCURVE",
"516 231 CURVE"
);
}
);
width = 576;
}
);
},
{
glyphname = "dotlessbeh_hah_alefMaksura-ar";
lastChange = "2015-11-16 02:01:55 +0000";
layers = (
{
layerId = "51F41761-070F-43EA-B302-C90910850260";
name = Regular;
paths = (
{
closed = 1;
nodes = (
"862 230 OFFCURVE",
"848 229 OFFCURVE",
"827 229 CURVE SMOOTH",
"763 229 OFFCURVE",
"714 241 OFFCURVE",
"665 253 CURVE SMOOTH",
"622 262 OFFCURVE",
"578 271 OFFCURVE",
"523 271 CURVE SMOOTH",
"523 271 OFFCURVE",
"630 291 OFFCURVE",
"679 366 CURVE SMOOTH",
"689 381 OFFCURVE",
"704 413 OFFCURVE",
"733 413 CURVE SMOOTH",
"762 413 OFFCURVE",
"773 382 OFFCURVE",
"762 342 CURVE",
"777 342 LINE",
"788 358 OFFCURVE",
"795 382 OFFCURVE",
"797 397 CURVE SMOOTH",
"800 419 OFFCURVE",
"802 478 OFFCURVE",
"748 478 CURVE SMOOTH",
"711 478 OFFCURVE",
"688 449 OFFCURVE",
"652 412 CURVE SMOOTH",
"594 351 OFFCURVE",
"564 333 OFFCURVE",
"495 306 CURVE SMOOTH",
"461 293 OFFCURVE",
"438 284 OFFCURVE",
"421 257 CURVE SMOOTH",
"413 244 OFFCURVE",
"402 221 OFFCURVE",
"401 200 CURVE",
"416 191 LINE",
"425 203 OFFCURVE",
"435 216 OFFCURVE",
"474 216 CURVE SMOOTH",
"517 216 OFFCURVE",
"589 197 OFFCURVE",
"667 171 CURVE",
"626 160 OFFCURVE",
"590 147 OFFCURVE",
"563 136 CURVE SMOOTH",
"533 124 OFFCURVE",
"468 88 OFFCURVE",
"450 74 CURVE SMOOTH",
"444 69 OFFCURVE",
"426 42 OFFCURVE",
"421 -2 CURVE",
"438 -5 OFFCURVE",
"464 -11 OFFCURVE",
"487 -19 CURVE SMOOTH",
"524 -33 OFFCURVE",
"543 -50 OFFCURVE",
"543 -71 CURVE SMOOTH",
"543 -95 OFFCURVE",
"495 -119 OFFCURVE",
"464 -132 CURVE",
"432 -147 OFFCURVE",
"367 -168 OFFCURVE",
"292 -168 CURVE SMOOTH",
"217 -168 OFFCURVE",
"163 -152 OFFCURVE",
"132 -114 CURVE SMOOTH",
"105 -81 OFFCURVE",
"109 -39 OFFCURVE",
"119 19 CURVE",
"100 26 LINE",
"85 -11 OFFCURVE",
"74 -50 OFFCURVE",
"71 -87 CURVE SMOOTH",
"68 -120 OFFCURVE",
"72 -149 OFFCURVE",
"83 -175 CURVE SMOOTH",
"97 -210 OFFCURVE",
"123 -237 OFFCURVE",
"159 -255 CURVE SMOOTH",
"192 -272 OFFCURVE",
"234 -281 OFFCURVE",
"283 -281 CURVE SMOOTH",
"342 -281 OFFCURVE",
"404 -266 OFFCURVE",
"457 -238 CURVE SMOOTH",
"508 -211 OFFCURVE",
"547 -175 OFFCURVE",
"567 -137 CURVE SMOOTH",
"581 -110 OFFCURVE",
"589 -83 OFFCURVE",
"589 -59 CURVE SMOOTH",
"589 5 OFFCURVE",
"526 28 OFFCURVE",
"486 39 CURVE",
"486 39 OFFCURVE",
"546 81 OFFCURVE",
"619 104 CURVE SMOOTH",
"661 117 OFFCURVE",
"724 139 OFFCURVE",
"789 139 CURVE SMOOTH",
"834 139 LINE",
"854 172 OFFCURVE",
"866 197 OFFCURVE",
"878 231 CURVE"
);
}
);
width = 938;
}
);
},
{
glyphname = "dotlessbeh_reh-ar";
lastChange = "2015-11-16 02:01:55 +0000";
layers = (
{
layerId = "51F41761-070F-43EA-B302-C90910850260";
name = Regular;
paths = (
{
closed = 1;
nodes = (
"295 211 OFFCURVE",
"239 192 OFFCURVE",
"213 179 CURVE SMOOTH",
"158 151 OFFCURVE",
"128 85 OFFCURVE",
"135 23 CURVE SMOOTH",
"137 5 OFFCURVE",
"142 -12 OFFCURVE",
"142 -34 CURVE SMOOTH",
"142 -72 OFFCURVE",
"128 -101 OFFCURVE",
"100 -128 CURVE SMOOTH",
"74 -153 OFFCURVE",
"33 -179 OFFCURVE",
"-5 -201 CURVE SMOOTH",
"-43 -223 OFFCURVE",
"-83 -244 OFFCURVE",
"-120 -264 CURVE",
"-111 -277 LINE",
"-90 -271 OFFCURVE",
"-72 -269 OFFCURVE",
"-57 -269 CURVE SMOOTH",
"-35 -269 OFFCURVE",
"-3 -273 OFFCURVE",
"19 -273 CURVE SMOOTH",
"59 -273 OFFCURVE",
"80 -260 OFFCURVE",
"101 -240 CURVE SMOOTH",
"121 -221 OFFCURVE",
"141 -194 OFFCURVE",
"158 -155 CURVE SMOOTH",
"180 -105 OFFCURVE",
"189 -65 OFFCURVE",
"189 -23 CURVE SMOOTH",
"190 2 OFFCURVE",
"187 28 OFFCURVE",
"182 57 CURVE",
"191 75 OFFCURVE",
"286 104 OFFCURVE",
"345 104 CURVE SMOOTH",
"350 104 OFFCURVE",
"355 104 OFFCURVE",
"359 103 CURVE",
"381 151 OFFCURVE",
"389 209 OFFCURVE",
"389 209 CURVE",
"379 210 OFFCURVE",
"371 211 OFFCURVE",
"357 211 CURVE SMOOTH"
);
}
);
width = 449;
}
);
},
{
glyphname = "dotlessbeh_reh-ar.fina";
lastChange = "2015-11-16 02:01:55 +0000";
layers = (
{
layerId = "51F41761-070F-43EA-B302-C90910850260";
name = Regular;
paths = (
{
closed = 1;
nodes = (
"498 98 LINE SMOOTH",
"441 98 OFFCURVE",
"416 124 OFFCURVE",
"407 166 CURVE SMOOTH",
"400 196 OFFCURVE",
"401 235 OFFCURVE",
"404 279 CURVE",
"382 267 LINE",
"380 241 OFFCURVE",
"365 220 OFFCURVE",
"343 206 CURVE SMOOTH",
"321 191 OFFCURVE",
"290 182 OFFCURVE",
"257 183 CURVE SMOOTH",
"224 184 OFFCURVE",
"195 191 OFFCURVE",
"168 206 CURVE SMOOTH",
"152 215 OFFCURVE",
"136 227 OFFCURVE",
"121 243 CURVE",
"104 224 OFFCURVE",
"89 201 OFFCURVE",
"73 171 CURVE",
"112 135 OFFCURVE",
"142 98 OFFCURVE",
"142 43 CURVE SMOOTH",
"142 5 OFFCURVE",
"128 -24 OFFCURVE",
"100 -51 CURVE SMOOTH",
"74 -76 OFFCURVE",
"33 -102 OFFCURVE",
"-5 -124 CURVE SMOOTH",
"-43 -146 OFFCURVE",
"-83 -167 OFFCURVE",
"-120 -187 CURVE",
"-111 -200 LINE",
"-90 -194 OFFCURVE",
"-72 -192 OFFCURVE",
"-57 -192 CURVE SMOOTH",
"-35 -192 OFFCURVE",
"-3 -196 OFFCURVE",
"19 -196 CURVE SMOOTH",
"59 -196 OFFCURVE",
"80 -183 OFFCURVE",
"101 -163 CURVE SMOOTH",
"121 -144 OFFCURVE",
"141 -117 OFFCURVE",
"158 -78 CURVE SMOOTH",
"175 -39 OFFCURVE",
"182 -4 OFFCURVE",
"185 35 CURVE SMOOTH",
"188 71 OFFCURVE",
"186 101 OFFCURVE",
"185 113 CURVE",
"200 95 OFFCURVE",
"226 89 OFFCURVE",
"254 89 CURVE SMOOTH",
"302 89 OFFCURVE",
"347 104 OFFCURVE",
"368 160 CURVE",
"362 122 OFFCURVE",
"365 84 OFFCURVE",
"382 54 CURVE SMOOTH",
"401 22 OFFCURVE",
"436 0 OFFCURVE",
"494 0 CURVE SMOOTH",
"533 0 LINE",
"533 98 LINE"
);
}
);
width = 533;
}
);
},
{
glyphname = "dotlessbeh_meem-ar";
lastChange = "2015-11-16 02:01:55 +0000";
layers = (
{
layerId = "51F41761-070F-43EA-B302-C90910850260";
name = Regular;
paths = (
{
closed = 1;
nodes = (
"406 122 OFFCURVE",
"410 137 OFFCURVE",
"410 149 CURVE SMOOTH",
"409 171 OFFCURVE",
"390 193 OFFCURVE",
"354 193 CURVE SMOOTH",
"293 193 OFFCURVE",
"248 166 OFFCURVE",
"214 125 CURVE SMOOTH",
"188 94 OFFCURVE",
"170 54 OFFCURVE",
"161 5 CURVE",
"130 -10 OFFCURVE",
"115 -16 OFFCURVE",
"95 -45 CURVE",
"77 -69 OFFCURVE",
"65 -105 OFFCURVE",
"72 -155 CURVE",
"103 -342 OFFCURVE",
"108 -408 OFFCURVE",
"111 -432 CURVE",
"137 -424 LINE",
"136 -346 OFFCURVE",
"128 -276 OFFCURVE",
"117 -175 CURVE SMOOTH",
"112 -130 OFFCURVE",
"111 -125 OFFCURVE",
"105 -91 CURVE",
"130 -67 OFFCURVE",
"148 -56 OFFCURVE",
"200 -56 CURVE SMOOTH",
"242 -56 OFFCURVE",
"266 -59 OFFCURVE",
"293 -65 CURVE",
"310 -41 OFFCURVE",
"321 -19 OFFCURVE",
"329 5 CURVE",
"317 16 OFFCURVE",
"274 55 OFFCURVE",
"214 68 CURVE",
"228 83 OFFCURVE",
"243 97 OFFCURVE",
"261 108 CURVE SMOOTH",
"278 118 OFFCURVE",
"297 127 OFFCURVE",
"321 132 CURVE SMOOTH",
"355 140 OFFCURVE",
"390 135 OFFCURVE",
"387 109 CURVE",
"397 109 LINE"
);
}
);
width = 470;
}
);
},
{
glyphname = "dotlessbeh_meem-ar.fina";
lastChange = "2015-11-16 02:01:55 +0000";
layers = (
{
layerId = "51F41761-070F-43EA-B302-C90910850260";
name = Regular;
paths = (
{
closed = 1;
nodes = (
"463 98 LINE SMOOTH",
"421 98 OFFCURVE",
"397 123 OFFCURVE",
"375 145 CURVE SMOOTH",
"356 165 OFFCURVE",
"338 184 OFFCURVE",
"308 184 CURVE SMOOTH",
"280 184 OFFCURVE",
"237 167 OFFCURVE",
"203 118 CURVE SMOOTH",
"178 82 OFFCURVE",
"169 51 OFFCURVE",
"161 5 CURVE",
"130 -10 OFFCURVE",
"115 -16 OFFCURVE",
"95 -45 CURVE",
"77 -69 OFFCURVE",
"65 -105 OFFCURVE",
"72 -155 CURVE",
"103 -342 OFFCURVE",
"108 -408 OFFCURVE",
"111 -432 CURVE",
"137 -424 LINE",
"136 -346 OFFCURVE",
"128 -276 OFFCURVE",
"117 -175 CURVE SMOOTH",
"112 -130 OFFCURVE",
"111 -125 OFFCURVE",
"105 -91 CURVE",
"130 -67 OFFCURVE",
"148 -56 OFFCURVE",
"200 -56 CURVE SMOOTH",
"242 -56 OFFCURVE",
"280 -63 OFFCURVE",
"307 -69 CURVE",
"324 -45 OFFCURVE",
"335 -23 OFFCURVE",
"343 1 CURVE",
"331 12 OFFCURVE",
"279 58 OFFCURVE",
"209 68 CURVE",
"231 98 OFFCURVE",
"253 117 OFFCURVE",
"293 117 CURVE SMOOTH",
"337 117 OFFCURVE",
"357 88 OFFCURVE",
"376 60 CURVE SMOOTH",
"398 29 OFFCURVE",
"418 0 OFFCURVE",
"470 0 CURVE SMOOTH",
"500 0 LINE",
"500 98 LINE"
);
}
);
width = 500;
}
);
},
{
glyphname = "dotlessbeh_noonghunna-ar";
lastChange = "2015-11-16 02:01:55 +0000";
layers = (
{
layerId = "51F41761-070F-43EA-B302-C90910850260";
name = Regular;
paths = (
{
closed = 1;
nodes = (
"687 267 LINE",
"684 226 OFFCURVE",
"654 183 OFFCURVE",
"595 183 CURVE SMOOTH",
"562 183 OFFCURVE",
"533 191 OFFCURVE",
"506 206 CURVE SMOOTH",
"490 215 OFFCURVE",
"474 227 OFFCURVE",
"459 243 CURVE",
"445 225 OFFCURVE",
"430 204 OFFCURVE",
"416 179 CURVE",
"461 104 OFFCURVE",
"487 54 OFFCURVE",
"487 21 CURVE SMOOTH",
"487 -10 OFFCURVE",
"463 -37 OFFCURVE",
"431 -55 CURVE SMOOTH",
"401 -72 OFFCURVE",
"353 -87 OFFCURVE",
"290 -87 CURVE SMOOTH",
"254 -87 OFFCURVE",
"221 -82 OFFCURVE",
"195 -73 CURVE SMOOTH",
"163 -62 OFFCURVE",
"143 -48 OFFCURVE",
"130 -28 CURVE SMOOTH",
"109 3 OFFCURVE",
"109 46 OFFCURVE",
"119 100 CURVE",
"100 107 LINE",
"83 66 OFFCURVE",
"74 28 OFFCURVE",
"71 -6 CURVE SMOOTH",
"68 -38 OFFCURVE",
"72 -69 OFFCURVE",
"83 -95 CURVE SMOOTH",
"96 -125 OFFCURVE",
"117 -151 OFFCURVE",
"156 -172 CURVE SMOOTH",
"190 -190 OFFCURVE",
"230 -200 OFFCURVE",
"282 -200 CURVE SMOOTH",
"318 -200 OFFCURVE",
"348 -195 OFFCURVE",
"369 -189 CURVE SMOOTH",
"408 -178 OFFCURVE",
"449 -153 OFFCURVE",
"476 -124 CURVE SMOOTH",
"537 -59 OFFCURVE",
"541 43 OFFCURVE",
"523 113 CURVE",
"538 97 OFFCURVE",
"566 88 OFFCURVE",
"598 88 CURVE SMOOTH",
"640 88 OFFCURVE",
"671 107 OFFCURVE",
"691 136 CURVE SMOOTH",
"718 175 OFFCURVE",
"725 231 OFFCURVE",
"709 279 CURVE"
);
}
);
width = 777;
}
);
},
{
glyphname = "dotlessbeh_noonghunna-ar.fina";
lastChange = "2015-11-16 02:01:55 +0000";
layers = (
{
layerId = "51F41761-070F-43EA-B302-C90910850260";
name = Regular;
paths = (
{
closed = 1;
nodes = (
"836 98 LINE SMOOTH",
"779 98 OFFCURVE",
"754 124 OFFCURVE",
"745 166 CURVE SMOOTH",
"738 196 OFFCURVE",
"739 235 OFFCURVE",
"742 279 CURVE",
"720 267 LINE",
"718 241 OFFCURVE",
"703 220 OFFCURVE",
"681 206 CURVE SMOOTH",
"659 191 OFFCURVE",
"628 182 OFFCURVE",
"595 183 CURVE SMOOTH",
"562 184 OFFCURVE",
"533 191 OFFCURVE",
"506 206 CURVE SMOOTH",
"490 215 OFFCURVE",
"474 227 OFFCURVE",
"459 243 CURVE",
"445 225 OFFCURVE",
"430 204 OFFCURVE",
"416 179 CURVE",
"461 104 OFFCURVE",
"487 54 OFFCURVE",
"487 21 CURVE SMOOTH",
"487 -10 OFFCURVE",
"463 -37 OFFCURVE",
"431 -55 CURVE SMOOTH",
"401 -72 OFFCURVE",
"353 -87 OFFCURVE",
"290 -87 CURVE SMOOTH",
"254 -87 OFFCURVE",
"221 -82 OFFCURVE",
"195 -73 CURVE SMOOTH",
"163 -62 OFFCURVE",
"143 -48 OFFCURVE",
"130 -28 CURVE SMOOTH",
"109 3 OFFCURVE",
"109 46 OFFCURVE",
"119 100 CURVE",
"100 107 LINE",
"83 66 OFFCURVE",
"74 28 OFFCURVE",
"71 -6 CURVE SMOOTH",
"68 -38 OFFCURVE",
"72 -69 OFFCURVE",
"83 -95 CURVE SMOOTH",
"96 -125 OFFCURVE",
"117 -151 OFFCURVE",
"156 -172 CURVE SMOOTH",
"190 -190 OFFCURVE",
"230 -200 OFFCURVE",
"282 -200 CURVE SMOOTH",
"318 -200 OFFCURVE",
"348 -195 OFFCURVE",
"369 -189 CURVE SMOOTH",
"408 -178 OFFCURVE",
"449 -153 OFFCURVE",
"476 -124 CURVE SMOOTH",
"537 -59 OFFCURVE",
"541 43 OFFCURVE",
"523 113 CURVE",
"533 98 OFFCURVE",
"565 89 OFFCURVE",
"600 89 CURVE SMOOTH",
"650 89 OFFCURVE",
"686 113 OFFCURVE",
"706 160 CURVE",
"699 114 OFFCURVE",
"705 73 OFFCURVE",
"727 44 CURVE SMOOTH",
"748 16 OFFCURVE",
"782 0 OFFCURVE",
"832 0 CURVE SMOOTH",
"871 0 LINE",
"871 98 LINE"
);
}
);
width = 871;
}
);
},
{
glyphname = "dotlessbeh_alefMaksura-ar";
lastChange = "2015-11-16 02:01:55 +0000";
layers = (
{
layerId = "51F41761-070F-43EA-B302-C90910850260";
name = Regular;
paths = (
{
closed = 1;
nodes = (
"537 193 OFFCURVE",
"509 241 OFFCURVE",
"451 301 CURVE",
"439 281 OFFCURVE",
"428 250 OFFCURVE",
"419 224 CURVE",
"465 189 OFFCURVE",
"479 171 OFFCURVE",
"505 126 CURVE",
"491 97 OFFCURVE",
"461 75 OFFCURVE",
"421 66 CURVE SMOOTH",
"407 63 OFFCURVE",
"395 63 OFFCURVE",
"388 62 CURVE",
"385 48 OFFCURVE",
"383 12 OFFCURVE",
"381 -6 CURVE",
"401 -8 OFFCURVE",
"439 -11 OFFCURVE",
"473 -20 CURVE SMOOTH",
"519 -32 OFFCURVE",
"543 -49 OFFCURVE",
"543 -67 CURVE SMOOTH",
"543 -93 OFFCURVE",
"494 -119 OFFCURVE",
"464 -132 CURVE SMOOTH",
"432 -146 OFFCURVE",
"373 -168 OFFCURVE",
"289 -168 CURVE SMOOTH",
"218 -168 OFFCURVE",
"163 -152 OFFCURVE",
"132 -114 CURVE SMOOTH",
"105 -81 OFFCURVE",
"109 -39 OFFCURVE",
"119 19 CURVE",
"100 26 LINE",
"84 -15 OFFCURVE",
"74 -53 OFFCURVE",
"71 -87 CURVE SMOOTH",
"68 -121 OFFCURVE",
"72 -149 OFFCURVE",
"83 -175 CURVE SMOOTH",
"98 -211 OFFCURVE",
"124 -237 OFFCURVE",
"160 -255 CURVE SMOOTH",
"196 -273 OFFCURVE",
"237 -281 OFFCURVE",
"282 -281 CURVE SMOOTH",
"343 -281 OFFCURVE",
"404 -266 OFFCURVE",
"457 -238 CURVE SMOOTH",
"489 -221 OFFCURVE",
"527 -193 OFFCURVE",
"550 -166 CURVE SMOOTH",
"573 -139 OFFCURVE",
"590 -104 OFFCURVE",
"590 -68 CURVE SMOOTH",
"590 -7 OFFCURVE",
"543 21 OFFCURVE",
"492 30 CURVE",
"514 50 OFFCURVE",
"540 77 OFFCURVE",
"540 141 CURVE"
);
}
);
width = 650;
}
);
},
{
glyphname = "dotlessbeh_alefMaksura-ar.fina";
lastChange = "2015-11-16 02:01:55 +0000";
layers = (
{
layerId = "51F41761-070F-43EA-B302-C90910850260";
name = Regular;
paths = (
{
closed = 1;
nodes = (
"722 98 LINE",
"667 98 LINE",
"616 98 OFFCURVE",
"592 120 OFFCURVE",
"574 143 CURVE SMOOTH",
"552 172 OFFCURVE",
"541 205 OFFCURVE",
"505 205 CURVE SMOOTH",
"475 205 OFFCURVE",
"454 186 OFFCURVE",
"431 154 CURVE SMOOTH",
"418 136 OFFCURVE",
"397 103 OFFCURVE",
"383 66 CURVE SMOOTH",
"369 29 OFFCURVE",
"366 0 OFFCURVE",
"374 -17 CURVE SMOOTH",
"382 -34 OFFCURVE",
"406 -48 OFFCURVE",
"435 -56 CURVE SMOOTH",
"461 -63 OFFCURVE",
"494 -67 OFFCURVE",
"534 -70 CURVE",
"524 -97 OFFCURVE",
"495 -126 OFFCURVE",
"447 -145 CURVE SMOOTH",
"399 -164 OFFCURVE",
"338 -171 OFFCURVE",
"295 -171 CURVE SMOOTH",
"233 -171 OFFCURVE",
"164 -156 OFFCURVE",
"133 -116 CURVE SMOOTH",
"116 -94 OFFCURVE",
"112 -66 OFFCURVE",
"112 -36 CURVE SMOOTH",
"112 -21 OFFCURVE",
"113 -10 OFFCURVE",
"119 17 CURVE",
"100 26 LINE",
"77 -27 OFFCURVE",
"68 -83 OFFCURVE",
"70 -119 CURVE SMOOTH",
"71 -145 OFFCURVE",
"81 -193 OFFCURVE",
"117 -228 CURVE SMOOTH",
"149 -259 OFFCURVE",
"202 -283 OFFCURVE",
"283 -283 CURVE SMOOTH",
"369 -283 OFFCURVE",
"445 -256 OFFCURVE",
"498 -214 CURVE SMOOTH",
"522 -195 OFFCURVE",
"550 -165 OFFCURVE",
"566 -136 CURVE SMOOTH",
"580 -110 OFFCURVE",
"588 -84 OFFCURVE",
"588 -61 CURVE SMOOTH",
"588 -27 OFFCURVE",
"571 0 OFFCURVE",
"530 5 CURVE SMOOTH",
"494 9 OFFCURVE",
"483 10 OFFCURVE",
"452 17 CURVE SMOOTH",
"438 20 OFFCURVE",
"425 31 OFFCURVE",
"428 53 CURVE",
"429 65 OFFCURVE",
"446 115 OFFCURVE",
"492 115 CURVE SMOOTH",
"531 115 OFFCURVE",
"545 89 OFFCURVE",
"561 62 CURVE SMOOTH",
"579 32 OFFCURVE",
"600 0 OFFCURVE",
"660 0 CURVE",
"722 0 LINE"
);
}
);
width = 722;
}
);
},
{
glyphname = "hah_meem-ar";
lastChange = "2015-11-16 02:01:55 +0000";
layers = (
{
layerId = "51F41761-070F-43EA-B302-C90910850260";
name = Regular;
paths = (
{
closed = 1;
nodes = (
"519 269 OFFCURVE",
"465 296 OFFCURVE",
"421 318 CURVE SMOOTH",
"390 334 OFFCURVE",
"358 350 OFFCURVE",
"322 350 CURVE SMOOTH",
"305 350 OFFCURVE",
"288 346 OFFCURVE",
"273 338 CURVE SMOOTH",
"251 326 OFFCURVE",
"230 304 OFFCURVE",
"213 273 CURVE",
"224 256 LINE",
"245 278 OFFCURVE",
"264 286 OFFCURVE",
"295 286 CURVE SMOOTH",
"326 286 OFFCURVE",
"374 260 OFFCURVE",
"413 239 CURVE",
"368 239 OFFCURVE",
"312 233 OFFCURVE",
"267 216 CURVE SMOOTH",
"225 199 OFFCURVE",
"205 182 OFFCURVE",
"185 159 CURVE",
"175 140 OFFCURVE",
"165 120 OFFCURVE",
"162 100 CURVE",
"124 85 OFFCURVE",
"102 75 OFFCURVE",
"84 39 CURVE SMOOTH",
"71 14 OFFCURVE",
"66 -5 OFFCURVE",
"73 -60 CURVE SMOOTH",
"82 -132 OFFCURVE",
"87 -167 OFFCURVE",
"92 -196 CURVE SMOOTH",
"104 -279 OFFCURVE",
"109 -312 OFFCURVE",
"112 -338 CURVE",
"138 -330 LINE",
"136 -257 OFFCURVE",
"132 -212 OFFCURVE",
"126 -157 CURVE SMOOTH",
"124 -132 OFFCURVE",
"112 -35 OFFCURVE",
"105 10 CURVE SMOOTH",
"113 28 OFFCURVE",
"164 39 OFFCURVE",
"221 39 CURVE SMOOTH",
"257 39 OFFCURVE",
"283 33 OFFCURVE",
"307 26 CURVE",
"328 55 OFFCURVE",
"337 77 OFFCURVE",
"343 95 CURVE",
"298 134 OFFCURVE",
"255 146 OFFCURVE",
"234 150 CURVE",
"257 165 OFFCURVE",
"320 198 OFFCURVE",
"431 198 CURVE SMOOTH",
"480 198 OFFCURVE",
"529 194 OFFCURVE",
"576 181 CURVE",
"601 205 OFFCURVE",
"613 224 OFFCURVE",
"627 252 CURVE"
);
}
);
width = 687;
}
);
unicode = FC18;
},
{
glyphname = "hah_meem-ar.init";
lastChange = "2015-11-16 02:01:55 +0000";
layers = (
{
layerId = "51F41761-070F-43EA-B302-C90910850260";
name = Regular;
paths = (
{
closed = 1;
nodes = (
"453 291 OFFCURVE",
"399 318 OFFCURVE",
"355 341 CURVE SMOOTH",
"331 353 OFFCURVE",
"309 364 OFFCURVE",
"284 369 CURVE SMOOTH",
"255 375 OFFCURVE",
"230 372 OFFCURVE",
"208 360 CURVE SMOOTH",
"185 348 OFFCURVE",
"165 326 OFFCURVE",
"147 295 CURVE",
"158 278 LINE",
"169 288 OFFCURVE",
"187 312 OFFCURVE",
"231 308 CURVE SMOOTH",
"261 305 OFFCURVE",
"300 286 OFFCURVE",
"336 267 CURVE",
"286 265 OFFCURVE",
"242 255 OFFCURVE",
"201 232 CURVE SMOOTH",
"166 212 OFFCURVE",
"133 182 OFFCURVE",
"102 140 CURVE SMOOTH",
"87 121 OFFCURVE",
"76 98 OFFCURVE",
"43 98 CURVE SMOOTH",
"-22 98 LINE SMOOTH",
"-34 98 OFFCURVE",
"-70 89 OFFCURVE",
"-70 49 CURVE SMOOTH",
"-70 19 OFFCURVE",
"-45 0 OFFCURVE",
"-22 0 CURVE SMOOTH",
"9 0 LINE SMOOTH",
"50 0 OFFCURVE",
"76 10 OFFCURVE",
"90 48 CURVE",
"126 -2 OFFCURVE",
"229 -18 OFFCURVE",
"244 -12 CURVE",
"261 0 OFFCURVE",
"288 45 OFFCURVE",
"287 83 CURVE SMOOTH",
"287 124 OFFCURVE",
"267 167 OFFCURVE",
"230 185 CURVE",
"271 210 OFFCURVE",
"308 218 OFFCURVE",
"358 221 CURVE SMOOTH",
"407 224 OFFCURVE",
"459 217 OFFCURVE",
"511 203 CURVE",
"536 227 OFFCURVE",
"546 249 OFFCURVE",
"562 274 CURVE"
);
},
{
closed = 1;
nodes = (
"186 71 OFFCURVE",
"165 81 OFFCURVE",
"129 102 CURVE SMOOTH",
"136 118 OFFCURVE",
"155 142 OFFCURVE",
"182 142 CURVE SMOOTH",
"216 142 OFFCURVE",
"244 106 OFFCURVE",
"233 60 CURVE"
);
}
);
width = 622;
}
);
unicode = FCAA;
},
{
glyphname = "hah_alefMaksura-ar";
lastChange = "2015-11-16 02:01:55 +0000";
layers = (
{
layerId = "51F41761-070F-43EA-B302-C90910850260";
name = Regular;
paths = (
{
closed = 1;
nodes = (
"735 215 OFFCURVE",
"665 245 OFFCURVE",
"613 267 CURVE SMOOTH",
"582 280 OFFCURVE",
"558 291 OFFCURVE",
"531 291 CURVE SMOOTH",
"504 291 OFFCURVE",
"480 280 OFFCURVE",
"460 259 CURVE SMOOTH",
"442 240 OFFCURVE",
"426 210 OFFCURVE",
"416 174 CURVE",
"432 163 LINE",
"442 177 OFFCURVE",
"457 213 OFFCURVE",
"494 216 CURVE SMOOTH",
"516 218 OFFCURVE",
"549 212 OFFCURVE",
"587 201 CURVE SMOOTH",
"612 194 OFFCURVE",
"675 173 OFFCURVE",
"675 173 CURVE",
"631 161 OFFCURVE",
"592 148 OFFCURVE",
"563 136 CURVE SMOOTH",
"533 124 OFFCURVE",
"468 88 OFFCURVE",
"450 74 CURVE SMOOTH",
"444 69 OFFCURVE",
"426 42 OFFCURVE",
"421 -2 CURVE",
"438 -5 OFFCURVE",
"464 -11 OFFCURVE",
"487 -19 CURVE SMOOTH",
"524 -33 OFFCURVE",
"543 -50 OFFCURVE",
"543 -71 CURVE SMOOTH",
"543 -95 OFFCURVE",
"495 -119 OFFCURVE",
"464 -132 CURVE SMOOTH",
"432 -147 OFFCURVE",
"367 -168 OFFCURVE",
"292 -168 CURVE SMOOTH",
"217 -168 OFFCURVE",
"163 -152 OFFCURVE",
"132 -114 CURVE SMOOTH",
"105 -81 OFFCURVE",
"109 -39 OFFCURVE",
"119 19 CURVE",
"100 26 LINE",
"85 -11 OFFCURVE",
"74 -50 OFFCURVE",
"71 -87 CURVE SMOOTH",
"68 -120 OFFCURVE",
"72 -149 OFFCURVE",
"83 -175 CURVE SMOOTH",
"97 -210 OFFCURVE",
"123 -237 OFFCURVE",
"159 -255 CURVE SMOOTH",
"192 -272 OFFCURVE",
"234 -281 OFFCURVE",
"283 -281 CURVE SMOOTH",
"342 -281 OFFCURVE",
"404 -266 OFFCURVE",
"457 -238 CURVE SMOOTH",
"508 -211 OFFCURVE",
"547 -175 OFFCURVE",
"567 -137 CURVE SMOOTH",
"581 -110 OFFCURVE",
"589 -83 OFFCURVE",
"589 -59 CURVE SMOOTH",
"589 5 OFFCURVE",
"526 28 OFFCURVE",
"486 39 CURVE",
"486 39 OFFCURVE",
"546 81 OFFCURVE",
"619 104 CURVE SMOOTH",
"661 117 OFFCURVE",
"723 134 OFFCURVE",
"788 134 CURVE SMOOTH",
"833 134 LINE",
"849 164 OFFCURVE",
"858 182 OFFCURVE",
"872 215 CURVE",
"867 215 OFFCURVE",
"863 215 OFFCURVE",
"859 215 CURVE SMOOTH"
);
}
);
width = 932;
}
);
unicode = FCFF;
},
{
glyphname = "hah_alefMaksura-ar.fina";
lastChange = "2015-11-16 02:01:55 +0000";
layers = (
{
layerId = "51F41761-070F-43EA-B302-C90910850260";
name = Regular;
paths = (
{
closed = 1;
nodes = (
"871 98 LINE SMOOTH",
"812 98 OFFCURVE",
"779 113 OFFCURVE",
"769 140 CURVE",
"800 144 OFFCURVE",
"821 144 OFFCURVE",
"838 144 CURVE",
"854 174 OFFCURVE",
"858 182 OFFCURVE",
"872 215 CURVE",
"770 215 OFFCURVE",
"706 228 OFFCURVE",
"613 267 CURVE SMOOTH",
"582 280 OFFCURVE",
"558 291 OFFCURVE",
"531 291 CURVE SMOOTH",
"504 291 OFFCURVE",
"480 280 OFFCURVE",
"460 259 CURVE SMOOTH",
"442 240 OFFCURVE",
"426 210 OFFCURVE",
"416 174 CURVE",
"432 163 LINE",
"442 177 OFFCURVE",
"457 213 OFFCURVE",
"494 216 CURVE SMOOTH",
"516 218 OFFCURVE",
"549 212 OFFCURVE",
"587 201 CURVE SMOOTH",
"612 194 OFFCURVE",
"675 173 OFFCURVE",
"675 173 CURVE",
"631 161 OFFCURVE",
"592 148 OFFCURVE",
"563 136 CURVE SMOOTH",
"533 124 OFFCURVE",
"468 88 OFFCURVE",
"450 74 CURVE SMOOTH",
"444 69 OFFCURVE",
"426 42 OFFCURVE",
"421 -2 CURVE",
"438 -5 OFFCURVE",
"464 -11 OFFCURVE",
"487 -19 CURVE SMOOTH",
"524 -33 OFFCURVE",
"543 -50 OFFCURVE",
"543 -71 CURVE SMOOTH",
"543 -95 OFFCURVE",
"495 -119 OFFCURVE",
"464 -132 CURVE",
"432 -147 OFFCURVE",
"367 -168 OFFCURVE",
"292 -168 CURVE SMOOTH",
"217 -168 OFFCURVE",
"163 -152 OFFCURVE",
"132 -114 CURVE SMOOTH",
"105 -81 OFFCURVE",
"109 -39 OFFCURVE",
"119 19 CURVE",
"100 26 LINE",
"85 -11 OFFCURVE",
"74 -50 OFFCURVE",
"71 -87 CURVE SMOOTH",
"68 -120 OFFCURVE",
"72 -149 OFFCURVE",
"83 -175 CURVE SMOOTH",
"97 -210 OFFCURVE",
"123 -237 OFFCURVE",
"159 -255 CURVE SMOOTH",
"192 -272 OFFCURVE",
"234 -281 OFFCURVE",
"283 -281 CURVE SMOOTH",
"342 -281 OFFCURVE",
"404 -266 OFFCURVE",
"457 -238 CURVE SMOOTH",
"508 -211 OFFCURVE",
"547 -175 OFFCURVE",
"567 -137 CURVE SMOOTH",
"581 -110 OFFCURVE",
"589 -83 OFFCURVE",
"589 -59 CURVE SMOOTH",
"589 5 OFFCURVE",
"526 28 OFFCURVE",
"486 39 CURVE",
"486 39 OFFCURVE",
"546 81 OFFCURVE",
"619 104 CURVE SMOOTH",
"670 120 OFFCURVE",
"710 130 OFFCURVE",
"741 135 CURVE",
"745 95 OFFCURVE",
"753 67 OFFCURVE",
"774 43 CURVE",
"797 15 OFFCURVE",
"835 0 OFFCURVE",
"884 0 CURVE SMOOTH",
"974 0 LINE",
"974 98 LINE"
);
}
);
width = 974;
}
);
unicode = FD1B;
},
{
glyphname = "seen_reh-ar";
lastChange = "2015-11-16 02:01:55 +0000";
layers = (
{
layerId = "51F41761-070F-43EA-B302-C90910850260";
name = Regular;
paths = (
{
closed = 1;
nodes = (
"587 247 OFFCURVE",
"572 227 OFFCURVE",
"561 207 CURVE",
"605 146 LINE",
"593 114 OFFCURVE",
"575 93 OFFCURVE",
"543 93 CURVE SMOOTH",
"517 93 OFFCURVE",
"496 98 OFFCURVE",
"481 111 CURVE SMOOTH",
"469 122 OFFCURVE",
"462 139 OFFCURVE",
"462 165 CURVE SMOOTH",
"462 175 OFFCURVE",
"463 182 OFFCURVE",
"464 189 CURVE",
"442 177 LINE",
"441 168 OFFCURVE",
"440 158 OFFCURVE",
"437 148 CURVE SMOOTH",
"429 120 OFFCURVE",
"411 93 OFFCURVE",
"364 93 CURVE SMOOTH",
"333 93 OFFCURVE",
"314 105 OFFCURVE",
"304 119 CURVE SMOOTH",
"298 127 OFFCURVE",
"295 137 OFFCURVE",
"293 146 CURVE",
"237 125 OFFCURVE",
"172 110 OFFCURVE",
"126 100 CURVE",
"125 91 OFFCURVE",
"122 66 OFFCURVE",
"114 27 CURVE",
"122 28 OFFCURVE",
"133 30 OFFCURVE",
"140 32 CURVE",
"142 21 OFFCURVE",
"144 10 OFFCURVE",
"144 -3 CURVE SMOOTH",
"144 -40 OFFCURVE",
"128 -76 OFFCURVE",
"100 -103 CURVE SMOOTH",
"54 -149 OFFCURVE",
"-69 -211 OFFCURVE",
"-120 -239 CURVE",
"-111 -252 LINE",
"-90 -246 OFFCURVE",
"-72 -244 OFFCURVE",
"-57 -244 CURVE SMOOTH",
"-35 -244 OFFCURVE",
"-3 -248 OFFCURVE",
"19 -248 CURVE SMOOTH",
"59 -248 OFFCURVE",
"80 -235 OFFCURVE",
"101 -215 CURVE SMOOTH",
"122 -195 OFFCURVE",
"142 -167 OFFCURVE",
"158 -130 CURVE SMOOTH",
"191 -55 OFFCURVE",
"188 15 OFFCURVE",
"185 41 CURVE",
"216 48 OFFCURVE",
"251 57 OFFCURVE",
"279 66 CURVE",
"286 33 OFFCURVE",
"307 0 OFFCURVE",
"357 0 CURVE SMOOTH",
"411 0 OFFCURVE",
"440 39 OFFCURVE",
"448 74 CURVE",
"452 44 OFFCURVE",
"479 7 OFFCURVE",
"533 7 CURVE SMOOTH",
"571 7 OFFCURVE",
"595 26 OFFCURVE",
"609 45 CURVE SMOOTH",
"636 82 OFFCURVE",
"639 138 OFFCURVE",
"639 138 CURVE SMOOTH",
"639 188 OFFCURVE",
"619 242 OFFCURVE",
"601 261 CURVE"
);
}
);
width = 699;
}
);
unicode = FD0E;
},
{
glyphname = "seen_reh-ar.fina";
lastChange = "2015-11-16 02:01:55 +0000";
layers = (
{
layerId = "51F41761-070F-43EA-B302-C90910850260";
name = Regular;
paths = (
{
closed = 1;
nodes = (
"680 98 LINE SMOOTH",
"652 98 OFFCURVE",
"634 105 OFFCURVE",
"621 120 CURVE SMOOTH",
"603 140 OFFCURVE",
"605 167 OFFCURVE",
"607 190 CURVE",
"585 178 LINE",
"583 145 OFFCURVE",
"573 95 OFFCURVE",
"519 95 CURVE SMOOTH",
"474 95 OFFCURVE",
"462 130 OFFCURVE",
"461 160 CURVE",
"460 172 OFFCURVE",
"461 183 OFFCURVE",
"462 190 CURVE",
"440 178 LINE",
"438 143 OFFCURVE",
"425 94 OFFCURVE",
"362 94 CURVE SMOOTH",
"332 94 OFFCURVE",
"314 105 OFFCURVE",
"304 119 CURVE SMOOTH",
"298 128 OFFCURVE",
"296 134 OFFCURVE",
"293 146 CURVE",
"237 125 OFFCURVE",
"172 110 OFFCURVE",
"126 100 CURVE",
"125 91 OFFCURVE",
"122 66 OFFCURVE",
"114 27 CURVE",
"122 28 OFFCURVE",
"133 30 OFFCURVE",
"140 32 CURVE",
"142 21 OFFCURVE",
"144 10 OFFCURVE",
"144 -3 CURVE SMOOTH",
"144 -40 OFFCURVE",
"128 -76 OFFCURVE",
"100 -103 CURVE SMOOTH",
"54 -149 OFFCURVE",
"-69 -211 OFFCURVE",
"-120 -239 CURVE",
"-111 -252 LINE",
"-90 -246 OFFCURVE",
"-72 -244 OFFCURVE",
"-57 -244 CURVE SMOOTH",
"-35 -244 OFFCURVE",
"-3 -248 OFFCURVE",
"19 -248 CURVE SMOOTH",
"59 -248 OFFCURVE",
"80 -235 OFFCURVE",
"101 -215 CURVE SMOOTH",
"122 -195 OFFCURVE",
"142 -167 OFFCURVE",
"158 -130 CURVE SMOOTH",
"191 -55 OFFCURVE",
"188 15 OFFCURVE",
"185 41 CURVE",
"215 48 OFFCURVE",
"249 56 OFFCURVE",
"276 65 CURVE",
"283 28 OFFCURVE",
"306 -2 OFFCURVE",
"354 -2 CURVE SMOOTH",
"411 -2 OFFCURVE",
"436 38 OFFCURVE",
"446 75 CURVE",
"444 37 OFFCURVE",
"467 -2 OFFCURVE",
"515 -2 CURVE SMOOTH",
"571 -2 OFFCURVE",
"587 49 OFFCURVE",
"592 75 CURVE",
"592 33 OFFCURVE",
"620 0 OFFCURVE",
"678 0 CURVE SMOOTH",
"716 0 LINE",
"716 98 LINE"
);
}
);
width = 716;
}
);
unicode = FD2A;
},
{
glyphname = "seen_meem-ar";
lastChange = "2015-11-16 02:01:55 +0000";
layers = (
{
layerId = "51F41761-070F-43EA-B302-C90910850260";
name = Regular;
paths = (
{
closed = 1;
nodes = (
"713 248 OFFCURVE",
"698 228 OFFCURVE",
"687 208 CURVE",
"731 147 LINE",
"714 103 OFFCURVE",
"699 94 OFFCURVE",
"665 94 CURVE SMOOTH",
"642 94 OFFCURVE",
"620 98 OFFCURVE",
"604 116 CURVE SMOOTH",
"591 130 OFFCURVE",
"588 149 OFFCURVE",
"588 166 CURVE SMOOTH",
"588 176 OFFCURVE",
"589 183 OFFCURVE",
"590 190 CURVE",
"568 178 LINE",
"567 169 OFFCURVE",
"566 160 OFFCURVE",
"563 149 CURVE SMOOTH",
"555 122 OFFCURVE",
"540 94 OFFCURVE",
"483 94 CURVE SMOOTH",
"423 94 OFFCURVE",
"397 123 OFFCURVE",
"375 145 CURVE SMOOTH",
"356 165 OFFCURVE",
"338 184 OFFCURVE",
"308 184 CURVE SMOOTH",
"280 184 OFFCURVE",
"237 167 OFFCURVE",
"203 118 CURVE SMOOTH",
"178 82 OFFCURVE",
"169 51 OFFCURVE",
"161 5 CURVE",
"130 -10 OFFCURVE",
"115 -16 OFFCURVE",
"95 -45 CURVE",
"77 -69 OFFCURVE",
"65 -105 OFFCURVE",
"72 -155 CURVE",
"103 -342 OFFCURVE",
"108 -408 OFFCURVE",
"111 -432 CURVE",
"137 -424 LINE",
"136 -346 OFFCURVE",
"128 -276 OFFCURVE",
"117 -175 CURVE SMOOTH",
"112 -130 OFFCURVE",
"111 -125 OFFCURVE",
"105 -91 CURVE",
"130 -67 OFFCURVE",
"148 -56 OFFCURVE",
"200 -56 CURVE SMOOTH",
"242 -56 OFFCURVE",
"280 -63 OFFCURVE",
"307 -69 CURVE",
"324 -45 OFFCURVE",
"335 -23 OFFCURVE",
"343 1 CURVE",
"331 12 OFFCURVE",
"279 58 OFFCURVE",
"209 68 CURVE",
"230 97 OFFCURVE",
"257 118 OFFCURVE",
"292 118 CURVE SMOOTH",
"330 118 OFFCURVE",
"347 98 OFFCURVE",
"369 68 CURVE SMOOTH",
"390 39 OFFCURVE",
"417 0 OFFCURVE",
"479 0 CURVE SMOOTH",
"540 0 OFFCURVE",
"565 39 OFFCURVE",
"574 75 CURVE",
"575 48 OFFCURVE",
"600 8 OFFCURVE",
"658 8 CURVE SMOOTH",
"694 8 OFFCURVE",
"719 24 OFFCURVE",
"736 47 CURVE SMOOTH",
"762 83 OFFCURVE",
"765 131 OFFCURVE",
"765 148 CURVE SMOOTH",
"765 200 OFFCURVE",
"739 250 OFFCURVE",
"727 262 CURVE"
);
}
);
width = 825;
}
);
unicode = FC1F;
},
{
glyphname = "seen_meem-ar.init";
lastChange = "2015-11-16 02:01:55 +0000";
layers = (
{
layerId = "51F41761-070F-43EA-B302-C90910850260";
name = Regular;
paths = (
{
closed = 1;
nodes = (
"596 366 OFFCURVE",
"581 346 OFFCURVE",
"570 326 CURVE",
"614 265 LINE",
"597 221 OFFCURVE",
"582 212 OFFCURVE",
"548 212 CURVE SMOOTH",
"525 212 OFFCURVE",
"503 216 OFFCURVE",
"487 234 CURVE SMOOTH",
"474 248 OFFCURVE",
"471 267 OFFCURVE",
"471 284 CURVE SMOOTH",
"471 294 OFFCURVE",
"472 301 OFFCURVE",
"473 308 CURVE",
"451 296 LINE",
"450 287 OFFCURVE",
"449 278 OFFCURVE",
"446 267 CURVE SMOOTH",
"440 245 OFFCURVE",
"424 212 OFFCURVE",
"372 212 CURVE SMOOTH",
"336 212 OFFCURVE",
"315 228 OFFCURVE",
"297 257 CURVE SMOOTH",
"287 272 OFFCURVE",
"280 291 OFFCURVE",
"245 291 CURVE SMOOTH",
"223 291 OFFCURVE",
"206 283 OFFCURVE",
"187 270 CURVE SMOOTH",
"171 259 OFFCURVE",
"157 247 OFFCURVE",
"141 225 CURVE SMOOTH",
"121 198 OFFCURVE",
"111 170 OFFCURVE",
"108 151 CURVE SMOOTH",
"105 135 OFFCURVE",
"105 118 OFFCURVE",
"108 100 CURVE",
"91 94 OFFCURVE",
"53 96 OFFCURVE",
"9 98 CURVE",
"-20 98 LINE SMOOTH",
"-55 98 OFFCURVE",
"-70 74 OFFCURVE",
"-70 48 CURVE SMOOTH",
"-70 16 OFFCURVE",
"-47 0 OFFCURVE",
"-20 0 CURVE SMOOTH",
"5 0 LINE SMOOTH",
"78 0 OFFCURVE",
"78 10 OFFCURVE",
"126 10 CURVE SMOOTH",
"162 10 OFFCURVE",
"187 4 OFFCURVE",
"219 -11 CURVE",
"231 18 OFFCURVE",
"236 52 OFFCURVE",
"234 84 CURVE",
"212 90 OFFCURVE",
"145 102 OFFCURVE",
"145 142 CURVE SMOOTH",
"145 169 OFFCURVE",
"175 221 OFFCURVE",
"238 221 CURVE SMOOTH",
"275 221 OFFCURVE",
"286 203 OFFCURVE",
"298 180 CURVE SMOOTH",
"316 147 OFFCURVE",
"335 120 OFFCURVE",
"376 120 CURVE SMOOTH",
"425 120 OFFCURVE",
"449 159 OFFCURVE",
"457 193 CURVE",
"458 166 OFFCURVE",
"483 126 OFFCURVE",
"541 126 CURVE SMOOTH",
"577 126 OFFCURVE",
"602 142 OFFCURVE",
"619 165 CURVE SMOOTH",
"645 201 OFFCURVE",
"648 249 OFFCURVE",
"648 266 CURVE SMOOTH",
"648 318 OFFCURVE",
"622 368 OFFCURVE",
"610 380 CURVE"
);
}
);
width = 708;
}
);
unicode = FCB0;
},
{
glyphname = "seen_alefMaksura-ar";
lastChange = "2015-11-16 02:01:55 +0000";
layers = (
{
layerId = "51F41761-070F-43EA-B302-C90910850260";
name = Regular;
paths = (
{
closed = 1;
nodes = (
"898 248 OFFCURVE",
"883 228 OFFCURVE",
"872 208 CURVE",
"916 147 LINE",
"899 103 OFFCURVE",
"884 94 OFFCURVE",
"850 94 CURVE SMOOTH",
"827 94 OFFCURVE",
"805 98 OFFCURVE",
"789 116 CURVE SMOOTH",
"776 130 OFFCURVE",
"773 149 OFFCURVE",
"773 166 CURVE SMOOTH",
"773 176 OFFCURVE",
"774 183 OFFCURVE",
"775 190 CURVE",
"753 178 LINE",
"752 169 OFFCURVE",
"751 160 OFFCURVE",
"748 149 CURVE SMOOTH",
"740 122 OFFCURVE",
"725 94 OFFCURVE",
"668 94 CURVE SMOOTH",
"623 94 OFFCURVE",
"593 111 OFFCURVE",
"558 165 CURVE SMOOTH",
"542 190 OFFCURVE",
"532 205 OFFCURVE",
"505 205 CURVE SMOOTH",
"475 205 OFFCURVE",
"454 186 OFFCURVE",
"431 154 CURVE SMOOTH",
"418 136 OFFCURVE",
"397 103 OFFCURVE",
"383 66 CURVE SMOOTH",
"369 29 OFFCURVE",
"366 0 OFFCURVE",
"374 -17 CURVE SMOOTH",
"382 -34 OFFCURVE",
"402 -46 OFFCURVE",
"435 -56 CURVE SMOOTH",
"461 -63 OFFCURVE",
"494 -67 OFFCURVE",
"534 -70 CURVE SMOOTH",
"521 -101 OFFCURVE",
"500 -123 OFFCURVE",
"447 -144 CURVE SMOOTH",
"401 -162 OFFCURVE",
"355 -171 OFFCURVE",
"299 -171 CURVE SMOOTH",
"235 -171 OFFCURVE",
"167 -159 OFFCURVE",
"133 -115 CURVE SMOOTH",
"118 -95 OFFCURVE",
"112 -76 OFFCURVE",
"112 -37 CURVE SMOOTH",
"112 -21 OFFCURVE",
"113 -10 OFFCURVE",
"119 17 CURVE",
"100 26 LINE",
"77 -27 OFFCURVE",
"68 -83 OFFCURVE",
"70 -119 CURVE SMOOTH",
"71 -144 OFFCURVE",
"81 -193 OFFCURVE",
"117 -228 CURVE SMOOTH",
"149 -259 OFFCURVE",
"201 -283 OFFCURVE",
"284 -283 CURVE SMOOTH",
"368 -283 OFFCURVE",
"445 -256 OFFCURVE",
"498 -214 CURVE SMOOTH",
"525 -192 OFFCURVE",
"549 -166 OFFCURVE",
"566 -136 CURVE SMOOTH",
"580 -110 OFFCURVE",
"588 -84 OFFCURVE",
"588 -60 CURVE SMOOTH",
"588 -24 OFFCURVE",
"566 2 OFFCURVE",
"530 5 CURVE SMOOTH",
"494 9 OFFCURVE",
"484 10 OFFCURVE",
"452 17 CURVE SMOOTH",
"438 20 OFFCURVE",
"425 31 OFFCURVE",
"428 53 CURVE SMOOTH",
"429 67 OFFCURVE",
"448 115 OFFCURVE",
"491 115 CURVE SMOOTH",
"520 115 OFFCURVE",
"536 93 OFFCURVE",
"554 68 CURVE SMOOTH",
"575 39 OFFCURVE",
"602 2 OFFCURVE",
"664 2 CURVE SMOOTH",
"725 2 OFFCURVE",
"750 39 OFFCURVE",
"759 75 CURVE",
"760 48 OFFCURVE",
"785 8 OFFCURVE",
"843 8 CURVE SMOOTH",
"879 8 OFFCURVE",
"904 24 OFFCURVE",
"921 47 CURVE SMOOTH",
"947 83 OFFCURVE",
"950 131 OFFCURVE",
"950 148 CURVE SMOOTH",
"950 200 OFFCURVE",
"924 250 OFFCURVE",
"912 262 CURVE"
);
}
);
width = 1010;
}
);
unicode = FCFB;
},
{
glyphname = "seen_alefMaksura-ar.fina";
lastChange = "2015-11-16 02:01:55 +0000";
layers = (
{
layerId = "51F41761-070F-43EA-B302-C90910850260";
name = Regular;
paths = (
{
closed = 1;
nodes = (
"993 98 LINE SMOOTH",
"965 98 OFFCURVE",
"947 105 OFFCURVE",
"934 120 CURVE SMOOTH",
"916 140 OFFCURVE",
"918 167 OFFCURVE",
"920 190 CURVE",
"898 178 LINE",
"897 163 OFFCURVE",
"894 143 OFFCURVE",
"886 127 CURVE SMOOTH",
"877 109 OFFCURVE",
"862 95 OFFCURVE",
"833 95 CURVE SMOOTH",
"789 95 OFFCURVE",
"775 127 OFFCURVE",
"774 160 CURVE",
"773 172 OFFCURVE",
"774 183 OFFCURVE",
"775 190 CURVE",
"753 178 LINE",
"752 169 OFFCURVE",
"751 160 OFFCURVE",
"748 149 CURVE SMOOTH",
"736 109 OFFCURVE",
"713 94 OFFCURVE",
"662 94 CURVE SMOOTH",
"644 94 OFFCURVE",
"601 96 OFFCURVE",
"558 165 CURVE SMOOTH",
"543 189 OFFCURVE",
"532 205 OFFCURVE",
"506 205 CURVE SMOOTH",
"480 205 OFFCURVE",
"454 188 OFFCURVE",
"431 155 CURVE",
"414 133 OFFCURVE",
"398 102 OFFCURVE",
"384 66 CURVE SMOOTH",
"370 30 OFFCURVE",
"364 3 OFFCURVE",
"374 -17 CURVE SMOOTH",
"381 -31 OFFCURVE",
"399 -46 OFFCURVE",
"435 -56 CURVE SMOOTH",
"461 -63 OFFCURVE",
"494 -67 OFFCURVE",
"534 -70 CURVE",
"524 -97 OFFCURVE",
"495 -126 OFFCURVE",
"447 -145 CURVE SMOOTH",
"399 -164 OFFCURVE",
"339 -171 OFFCURVE",
"296 -171 CURVE SMOOTH",
"241 -171 OFFCURVE",
"167 -160 OFFCURVE",
"133 -115 CURVE SMOOTH",
"118 -95 OFFCURVE",
"110 -68 OFFCURVE",
"112 -32 CURVE",
"112 -18 OFFCURVE",
"115 -1 OFFCURVE",
"119 17 CURVE",
"100 26 LINE",
"77 -27 OFFCURVE",
"68 -83 OFFCURVE",
"70 -119 CURVE SMOOTH",
"71 -142 OFFCURVE",
"80 -192 OFFCURVE",
"117 -228 CURVE SMOOTH",
"149 -259 OFFCURVE",
"202 -283 OFFCURVE",
"283 -283 CURVE SMOOTH",
"368 -283 OFFCURVE",
"445 -256 OFFCURVE",
"498 -214 CURVE SMOOTH",
"525 -192 OFFCURVE",
"549 -166 OFFCURVE",
"566 -136 CURVE SMOOTH",
"580 -110 OFFCURVE",
"588 -84 OFFCURVE",
"588 -61 CURVE SMOOTH",
"588 -27 OFFCURVE",
"571 0 OFFCURVE",
"530 5 CURVE SMOOTH",
"494 9 OFFCURVE",
"483 10 OFFCURVE",
"452 17 CURVE SMOOTH",
"438 20 OFFCURVE",
"425 31 OFFCURVE",
"428 53 CURVE",
"429 67 OFFCURVE",
"448 115 OFFCURVE",
"491 115 CURVE SMOOTH",
"520 115 OFFCURVE",
"535 94 OFFCURVE",
"554 68 CURVE SMOOTH",
"570 47 OFFCURVE",
"583 31 OFFCURVE",
"604 18 CURVE SMOOTH",
"620 8 OFFCURVE",
"640 2 OFFCURVE",
"665 2 CURVE SMOOTH",
"722 2 OFFCURVE",
"751 35 OFFCURVE",
"759 75 CURVE",
"757 37 OFFCURVE",
"780 0 OFFCURVE",
"828 0 CURVE SMOOTH",
"884 0 OFFCURVE",
"900 49 OFFCURVE",
"905 75 CURVE",
"905 33 OFFCURVE",
"933 0 OFFCURVE",
"991 0 CURVE SMOOTH",
"1029 0 LINE",
"1029 98 LINE"
);
}
);
width = 1029;
}
);
unicode = FD17;
},
{
glyphname = "sad_reh-ar";
lastChange = "2015-11-16 02:01:55 +0000";
layers = (
{
layerId = "51F41761-070F-43EA-B302-C90910850260";
name = Regular;
paths = (
{
closed = 1;
nodes = (
"717 243 OFFCURVE",
"711 272 OFFCURVE",
"681 295 CURVE SMOOTH",
"662 310 OFFCURVE",
"633 322 OFFCURVE",
"608 322 CURVE SMOOTH",
"549 322 OFFCURVE",
"477 257 OFFCURVE",
"441 219 CURVE SMOOTH",
"393 168 OFFCURVE",
"356 109 OFFCURVE",
"350 98 CURVE",
"327 101 OFFCURVE",
"301 119 OFFCURVE",
"293 146 CURVE",
"237 125 OFFCURVE",
"172 110 OFFCURVE",
"126 100 CURVE",
"125 91 OFFCURVE",
"122 66 OFFCURVE",
"114 27 CURVE",
"122 28 OFFCURVE",
"133 30 OFFCURVE",
"140 32 CURVE",
"142 21 OFFCURVE",
"144 10 OFFCURVE",
"144 -3 CURVE SMOOTH",
"144 -40 OFFCURVE",
"128 -76 OFFCURVE",
"100 -103 CURVE SMOOTH",
"54 -149 OFFCURVE",
"-69 -211 OFFCURVE",
"-120 -239 CURVE",
"-111 -252 LINE",
"-90 -246 OFFCURVE",
"-72 -244 OFFCURVE",
"-57 -244 CURVE SMOOTH",
"-35 -244 OFFCURVE",
"-3 -248 OFFCURVE",
"19 -248 CURVE SMOOTH",
"59 -248 OFFCURVE",
"80 -235 OFFCURVE",
"101 -215 CURVE SMOOTH",
"122 -195 OFFCURVE",
"142 -167 OFFCURVE",
"158 -130 CURVE SMOOTH",
"191 -55 OFFCURVE",
"188 15 OFFCURVE",
"185 41 CURVE",
"215 48 OFFCURVE",
"248 56 OFFCURVE",
"275 65 CURVE",
"283 43 OFFCURVE",
"298 26 OFFCURVE",
"323 18 CURVE",
"315 -16 LINE",
"343 -16 LINE",
"351 10 LINE",
"372 6 OFFCURVE",
"381 5 OFFCURVE",
"400 5 CURVE SMOOTH",
"497 5 OFFCURVE",
"571 32 OFFCURVE",
"624 73 CURVE SMOOTH",
"652 95 OFFCURVE",
"675 120 OFFCURVE",
"691 146 CURVE SMOOTH",
"708 174 OFFCURVE",
"717 206 OFFCURVE",
"717 226 CURVE SMOOTH"
);
},
{
closed = 1;
nodes = (
"648 146 OFFCURVE",
"629 130 OFFCURVE",
"597 117 CURVE SMOOTH",
"573 107 OFFCURVE",
"541 99 OFFCURVE",
"501 99 CURVE SMOOTH",
"386 99 LINE",
"405 126 OFFCURVE",
"435 163 OFFCURVE",
"455 184 CURVE SMOOTH",
"495 226 OFFCURVE",
"533 247 OFFCURVE",
"569 247 CURVE SMOOTH",
"607 247 OFFCURVE",
"633 223 OFFCURVE",
"645 209 CURVE SMOOTH",
"655 197 OFFCURVE",
"659 187 OFFCURVE",
"665 166 CURVE"
);
}
);
width = 777;
}
);
unicode = FD0F;
},
{
glyphname = "sad_reh-ar.fina";
lastChange = "2015-11-16 02:01:55 +0000";
layers = (
{
layerId = "51F41761-070F-43EA-B302-C90910850260";
name = Regular;
paths = (
{
closed = 1;
nodes = (
"748 98 LINE SMOOTH",
"702 98 OFFCURVE",
"645 80 OFFCURVE",
"626 73 CURVE",
"640 83 OFFCURVE",
"651 93 OFFCURVE",
"663 107 CURVE SMOOTH",
"694 143 OFFCURVE",
"718 185 OFFCURVE",
"718 222 CURVE SMOOTH",
"718 229 OFFCURVE",
"717 268 OFFCURVE",
"682 295 CURVE SMOOTH",
"664 309 OFFCURVE",
"636 320 OFFCURVE",
"609 320 CURVE SMOOTH",
"580 320 OFFCURVE",
"554 308 OFFCURVE",
"527 291 CURVE SMOOTH",
"489 267 OFFCURVE",
"455 232 OFFCURVE",
"442 218 CURVE SMOOTH",
"388 160 OFFCURVE",
"353 102 OFFCURVE",
"351 98 CURVE",
"328 100 OFFCURVE",
"301 118 OFFCURVE",
"293 146 CURVE",
"237 125 OFFCURVE",
"172 110 OFFCURVE",
"126 100 CURVE",
"125 91 OFFCURVE",
"122 66 OFFCURVE",
"114 27 CURVE",
"122 28 OFFCURVE",
"133 30 OFFCURVE",
"140 32 CURVE",
"142 21 OFFCURVE",
"144 10 OFFCURVE",
"144 -3 CURVE SMOOTH",
"144 -40 OFFCURVE",
"128 -76 OFFCURVE",
"100 -103 CURVE SMOOTH",
"54 -149 OFFCURVE",
"-69 -211 OFFCURVE",
"-120 -239 CURVE",
"-111 -252 LINE",
"-90 -246 OFFCURVE",
"-72 -244 OFFCURVE",
"-57 -244 CURVE SMOOTH",
"-35 -244 OFFCURVE",
"-3 -248 OFFCURVE",
"19 -248 CURVE SMOOTH",
"59 -248 OFFCURVE",
"80 -235 OFFCURVE",
"101 -215 CURVE SMOOTH",
"122 -195 OFFCURVE",
"142 -167 OFFCURVE",
"158 -130 CURVE SMOOTH",
"191 -55 OFFCURVE",
"188 15 OFFCURVE",
"185 41 CURVE",
"215 48 OFFCURVE",
"248 56 OFFCURVE",
"276 65 CURVE",
"283 41 OFFCURVE",
"296 26 OFFCURVE",
"324 17 CURVE",
"316 -17 LINE",
"344 -17 LINE",
"352 9 LINE",
"375 4 OFFCURVE",
"399 4 OFFCURVE",
"437 4 CURVE SMOOTH",
"469 4 OFFCURVE",
"622 2 OFFCURVE",
"663 1 CURVE SMOOTH",
"691 1 OFFCURVE",
"712 0 OFFCURVE",
"742 0 CURVE SMOOTH",
"802 0 LINE",
"802 98 LINE"
);
},
{
closed = 1;
nodes = (
"656 134 OFFCURVE",
"617 119 OFFCURVE",
"581 109 CURVE SMOOTH",
"558 103 OFFCURVE",
"531 98 OFFCURVE",
"502 98 CURVE SMOOTH",
"387 98 LINE SMOOTH",
"387 98 OFFCURVE",
"417 144 OFFCURVE",
"457 184 CURVE SMOOTH",
"495 222 OFFCURVE",
"531 246 OFFCURVE",
"572 246 CURVE SMOOTH",
"616 246 OFFCURVE",
"656 218 OFFCURVE",
"656 176 CURVE SMOOTH"
);
}
);
width = 802;
}
);
unicode = FD2B;
},
{
glyphname = "sad_meem-ar";
lastChange = "2015-11-16 02:01:55 +0000";
layers = (
{
layerId = "51F41761-070F-43EA-B302-C90910850260";
name = Regular;
paths = (
{
closed = 1;
nodes = (
"781 253 OFFCURVE",
"775 282 OFFCURVE",
"745 305 CURVE SMOOTH",
"726 320 OFFCURVE",
"697 332 OFFCURVE",
"672 332 CURVE SMOOTH",
"613 332 OFFCURVE",
"541 267 OFFCURVE",
"505 229 CURVE SMOOTH",
"456 177 OFFCURVE",
"423 122 OFFCURVE",
"414 110 CURVE",
"386 113 OFFCURVE",
"369 127 OFFCURVE",
"352 154 CURVE SMOOTH",
"342 169 OFFCURVE",
"335 188 OFFCURVE",
"300 188 CURVE SMOOTH",
"278 188 OFFCURVE",
"261 180 OFFCURVE",
"242 167 CURVE SMOOTH",
"226 156 OFFCURVE",
"212 144 OFFCURVE",
"196 122 CURVE SMOOTH",
"177 96 OFFCURVE",
"167 71 OFFCURVE",
"163 48 CURVE SMOOTH",
"161 35 OFFCURVE",
"160 22 OFFCURVE",
"162 8 CURVE",
"126 -8 OFFCURVE",
"109 -25 OFFCURVE",
"95 -45 CURVE",
"77 -69 OFFCURVE",
"65 -105 OFFCURVE",
"72 -155 CURVE",
"103 -342 OFFCURVE",
"108 -408 OFFCURVE",
"111 -432 CURVE",
"137 -424 LINE",
"136 -346 OFFCURVE",
"128 -276 OFFCURVE",
"117 -175 CURVE SMOOTH",
"112 -130 OFFCURVE",
"111 -125 OFFCURVE",
"105 -91 CURVE",
"130 -67 OFFCURVE",
"148 -56 OFFCURVE",
"200 -56 CURVE SMOOTH",
"242 -56 OFFCURVE",
"280 -63 OFFCURVE",
"307 -69 CURVE",
"324 -45 OFFCURVE",
"335 -23 OFFCURVE",
"343 1 CURVE",
"331 12 OFFCURVE",
"277 58 OFFCURVE",
"208 68 CURVE",
"221 92 OFFCURVE",
"249 118 OFFCURVE",
"294 118 CURVE SMOOTH",
"338 118 OFFCURVE",
"352 90 OFFCURVE",
"372 63 CURVE SMOOTH",
"391 38 OFFCURVE",
"415 15 OFFCURVE",
"472 15 CURVE SMOOTH",
"557 15 OFFCURVE",
"635 42 OFFCURVE",
"688 83 CURVE SMOOTH",
"714 103 OFFCURVE",
"740 131 OFFCURVE",
"755 156 CURVE SMOOTH",
"772 184 OFFCURVE",
"781 216 OFFCURVE",
"781 236 CURVE SMOOTH"
);
},
{
closed = 1;
nodes = (
"712 156 OFFCURVE",
"693 140 OFFCURVE",
"661 127 CURVE SMOOTH",
"637 117 OFFCURVE",
"605 109 OFFCURVE",
"565 109 CURVE SMOOTH",
"450 109 LINE",
"469 136 OFFCURVE",
"498 172 OFFCURVE",
"519 194 CURVE SMOOTH",
"559 236 OFFCURVE",
"597 257 OFFCURVE",
"633 257 CURVE SMOOTH",
"671 257 OFFCURVE",
"697 233 OFFCURVE",
"709 219 CURVE SMOOTH",
"719 207 OFFCURVE",
"723 197 OFFCURVE",
"729 176 CURVE"
);
}
);
width = 841;
}
);
unicode = FC21;
},
{
glyphname = "sad_meem-ar.init";
lastChange = "2015-11-16 02:01:55 +0000";
layers = (
{
layerId = "51F41761-070F-43EA-B302-C90910850260";
name = Regular;
paths = (
{
closed = 1;
nodes = (
"726 356 OFFCURVE",
"720 385 OFFCURVE",
"690 408 CURVE SMOOTH",
"671 423 OFFCURVE",
"642 435 OFFCURVE",
"617 435 CURVE SMOOTH",
"558 435 OFFCURVE",
"486 370 OFFCURVE",
"450 332 CURVE SMOOTH",
"401 280 OFFCURVE",
"368 225 OFFCURVE",
"359 213 CURVE",
"331 216 OFFCURVE",
"314 230 OFFCURVE",
"297 257 CURVE SMOOTH",
"287 272 OFFCURVE",
"280 291 OFFCURVE",
"245 291 CURVE SMOOTH",
"223 291 OFFCURVE",
"206 283 OFFCURVE",
"187 270 CURVE SMOOTH",
"171 259 OFFCURVE",
"157 247 OFFCURVE",
"141 225 CURVE SMOOTH",
"122 199 OFFCURVE",
"112 174 OFFCURVE",
"108 151 CURVE SMOOTH",
"105 135 OFFCURVE",
"105 118 OFFCURVE",
"108 100 CURVE",
"91 94 OFFCURVE",
"53 96 OFFCURVE",
"9 98 CURVE",
"-20 98 LINE SMOOTH",
"-55 98 OFFCURVE",
"-70 74 OFFCURVE",
"-70 48 CURVE SMOOTH",
"-70 16 OFFCURVE",
"-47 0 OFFCURVE",
"-20 0 CURVE SMOOTH",
"5 0 LINE SMOOTH",
"71 0 OFFCURVE",
"79 10 OFFCURVE",
"126 10 CURVE SMOOTH",
"146 10 OFFCURVE",
"184 8 OFFCURVE",
"219 -11 CURVE",
"231 18 OFFCURVE",
"236 52 OFFCURVE",
"234 84 CURVE",
"212 90 OFFCURVE",
"145 102 OFFCURVE",
"145 142 CURVE SMOOTH",
"145 169 OFFCURVE",
"175 221 OFFCURVE",
"239 221 CURVE SMOOTH",
"279 221 OFFCURVE",
"289 200 OFFCURVE",
"298 180 CURVE SMOOTH",
"306 162 OFFCURVE",
"316 147 OFFCURVE",
"331 137 CURVE SMOOTH",
"349 125 OFFCURVE",
"375 118 OFFCURVE",
"417 118 CURVE SMOOTH",
"502 118 OFFCURVE",
"580 145 OFFCURVE",
"633 186 CURVE SMOOTH",
"659 206 OFFCURVE",
"685 234 OFFCURVE",
"700 259 CURVE SMOOTH",
"717 287 OFFCURVE",
"726 319 OFFCURVE",
"726 339 CURVE SMOOTH"
);
},
{
closed = 1;
nodes = (
"657 259 OFFCURVE",
"638 243 OFFCURVE",
"606 230 CURVE SMOOTH",
"582 220 OFFCURVE",
"550 212 OFFCURVE",
"510 212 CURVE SMOOTH",
"395 212 LINE",
"414 239 OFFCURVE",
"443 275 OFFCURVE",
"464 297 CURVE SMOOTH",
"504 339 OFFCURVE",
"542 360 OFFCURVE",
"578 360 CURVE SMOOTH",
"616 360 OFFCURVE",
"642 336 OFFCURVE",
"654 322 CURVE SMOOTH",
"664 310 OFFCURVE",
"668 300 OFFCURVE",
"674 279 CURVE"
);
}
);
width = 786;
}
);
unicode = FCB3;
},
{
glyphname = "sad_alefMaksura-ar";
lastChange = "2015-11-16 02:01:55 +0000";
layers = (
{
layerId = "51F41761-070F-43EA-B302-C90910850260";
name = Regular;
paths = (
{
closed = 1;
nodes = (
"1034 242 OFFCURVE",
"1028 271 OFFCURVE",
"998 294 CURVE SMOOTH",
"979 309 OFFCURVE",
"950 321 OFFCURVE",
"925 321 CURVE SMOOTH",
"866 321 OFFCURVE",
"794 256 OFFCURVE",
"758 218 CURVE SMOOTH",
"710 167 OFFCURVE",
"674 110 OFFCURVE",
"667 98 CURVE",
"626 99 OFFCURVE",
"591 114 OFFCURVE",
"558 165 CURVE SMOOTH",
"542 190 OFFCURVE",
"532 205 OFFCURVE",
"505 205 CURVE SMOOTH",
"475 205 OFFCURVE",
"454 186 OFFCURVE",
"431 154 CURVE SMOOTH",
"418 136 OFFCURVE",
"397 103 OFFCURVE",
"383 66 CURVE SMOOTH",
"369 29 OFFCURVE",
"366 0 OFFCURVE",
"374 -17 CURVE SMOOTH",
"382 -34 OFFCURVE",
"406 -48 OFFCURVE",
"435 -56 CURVE SMOOTH",
"461 -63 OFFCURVE",
"494 -67 OFFCURVE",
"534 -70 CURVE",
"524 -97 OFFCURVE",
"495 -126 OFFCURVE",
"447 -145 CURVE SMOOTH",
"399 -164 OFFCURVE",
"338 -171 OFFCURVE",
"295 -171 CURVE SMOOTH",
"233 -171 OFFCURVE",
"164 -156 OFFCURVE",
"133 -116 CURVE SMOOTH",
"116 -94 OFFCURVE",
"112 -66 OFFCURVE",
"112 -36 CURVE SMOOTH",
"112 -21 OFFCURVE",
"113 -10 OFFCURVE",
"119 17 CURVE",
"100 26 LINE",
"77 -27 OFFCURVE",
"68 -83 OFFCURVE",
"70 -119 CURVE SMOOTH",
"71 -145 OFFCURVE",
"81 -193 OFFCURVE",
"117 -228 CURVE SMOOTH",
"149 -259 OFFCURVE",
"202 -283 OFFCURVE",
"283 -283 CURVE SMOOTH",
"369 -283 OFFCURVE",
"445 -256 OFFCURVE",
"498 -214 CURVE SMOOTH",
"522 -195 OFFCURVE",
"550 -165 OFFCURVE",
"566 -136 CURVE SMOOTH",
"580 -110 OFFCURVE",
"588 -84 OFFCURVE",
"588 -61 CURVE SMOOTH",
"588 -27 OFFCURVE",
"571 0 OFFCURVE",
"530 5 CURVE SMOOTH",
"494 9 OFFCURVE",
"483 10 OFFCURVE",
"452 17 CURVE SMOOTH",
"438 20 OFFCURVE",
"425 31 OFFCURVE",
"428 53 CURVE",
"429 65 OFFCURVE",
"446 115 OFFCURVE",
"492 115 CURVE SMOOTH",
"523 115 OFFCURVE",
"541 92 OFFCURVE",
"557 71 CURVE SMOOTH",
"577 44 OFFCURVE",
"595 26 OFFCURVE",
"639 14 CURVE",
"632 -17 LINE",
"660 -17 LINE",
"668 9 LINE",
"689 5 OFFCURVE",
"698 4 OFFCURVE",
"717 4 CURVE SMOOTH",
"814 4 OFFCURVE",
"888 31 OFFCURVE",
"941 72 CURVE SMOOTH",
"969 94 OFFCURVE",
"992 119 OFFCURVE",
"1008 145 CURVE SMOOTH",
"1025 173 OFFCURVE",
"1034 205 OFFCURVE",
"1034 225 CURVE SMOOTH"
);
},
{
closed = 1;
nodes = (
"965 145 OFFCURVE",
"946 129 OFFCURVE",
"914 116 CURVE SMOOTH",
"890 106 OFFCURVE",
"858 98 OFFCURVE",
"818 98 CURVE SMOOTH",
"703 98 LINE",
"722 125 OFFCURVE",
"752 162 OFFCURVE",
"772 183 CURVE SMOOTH",
"812 225 OFFCURVE",
"850 246 OFFCURVE",
"886 246 CURVE SMOOTH",
"924 246 OFFCURVE",
"950 222 OFFCURVE",
"962 208 CURVE SMOOTH",
"972 196 OFFCURVE",
"976 186 OFFCURVE",
"982 165 CURVE"
);
}
);
width = 1094;
}
);
unicode = FD05;
},
{
glyphname = "sad_alefMaksura-ar.fina";
lastChange = "2015-11-16 02:01:55 +0000";
layers = (
{
layerId = "51F41761-070F-43EA-B302-C90910850260";
name = Regular;
paths = (
{
closed = 1;
nodes = (
"1064 98 LINE SMOOTH",
"1018 98 OFFCURVE",
"961 80 OFFCURVE",
"942 73 CURVE",
"956 83 OFFCURVE",
"967 93 OFFCURVE",
"979 107 CURVE SMOOTH",
"1010 143 OFFCURVE",
"1034 185 OFFCURVE",
"1034 222 CURVE SMOOTH",
"1034 229 OFFCURVE",
"1033 268 OFFCURVE",
"998 295 CURVE SMOOTH",
"980 309 OFFCURVE",
"952 320 OFFCURVE",
"925 320 CURVE SMOOTH",
"896 320 OFFCURVE",
"870 308 OFFCURVE",
"843 291 CURVE SMOOTH",
"805 267 OFFCURVE",
"771 232 OFFCURVE",
"758 218 CURVE SMOOTH",
"709 165 OFFCURVE",
"670 103 OFFCURVE",
"667 98 CURVE",
"626 99 OFFCURVE",
"591 114 OFFCURVE",
"558 165 CURVE SMOOTH",
"542 190 OFFCURVE",
"532 205 OFFCURVE",
"505 205 CURVE SMOOTH",
"475 205 OFFCURVE",
"454 186 OFFCURVE",
"431 154 CURVE SMOOTH",
"418 136 OFFCURVE",
"397 103 OFFCURVE",
"383 66 CURVE SMOOTH",
"369 29 OFFCURVE",
"366 0 OFFCURVE",
"374 -17 CURVE SMOOTH",
"382 -34 OFFCURVE",
"406 -48 OFFCURVE",
"435 -56 CURVE SMOOTH",
"461 -63 OFFCURVE",
"494 -67 OFFCURVE",
"534 -70 CURVE",
"524 -97 OFFCURVE",
"495 -126 OFFCURVE",
"447 -145 CURVE SMOOTH",
"399 -164 OFFCURVE",
"338 -171 OFFCURVE",
"295 -171 CURVE SMOOTH",
"233 -171 OFFCURVE",
"164 -156 OFFCURVE",
"133 -116 CURVE SMOOTH",
"116 -94 OFFCURVE",
"112 -66 OFFCURVE",
"112 -36 CURVE SMOOTH",
"112 -21 OFFCURVE",
"113 -10 OFFCURVE",
"119 17 CURVE",
"100 26 LINE",
"77 -27 OFFCURVE",
"68 -83 OFFCURVE",
"70 -119 CURVE SMOOTH",
"71 -145 OFFCURVE",
"81 -193 OFFCURVE",
"117 -228 CURVE SMOOTH",
"149 -259 OFFCURVE",
"202 -283 OFFCURVE",
"283 -283 CURVE SMOOTH",
"369 -283 OFFCURVE",
"445 -256 OFFCURVE",
"498 -214 CURVE SMOOTH",
"522 -195 OFFCURVE",
"550 -165 OFFCURVE",
"566 -136 CURVE SMOOTH",
"580 -110 OFFCURVE",
"588 -84 OFFCURVE",
"588 -61 CURVE SMOOTH",
"588 -27 OFFCURVE",
"571 0 OFFCURVE",
"530 5 CURVE SMOOTH",
"494 9 OFFCURVE",
"483 10 OFFCURVE",
"452 17 CURVE SMOOTH",
"438 20 OFFCURVE",
"425 31 OFFCURVE",
"428 53 CURVE",
"429 65 OFFCURVE",
"446 115 OFFCURVE",
"492 115 CURVE SMOOTH",
"523 115 OFFCURVE",
"541 92 OFFCURVE",
"557 71 CURVE SMOOTH",
"575 47 OFFCURVE",
"592 26 OFFCURVE",
"639 14 CURVE",
"632 -17 LINE",
"660 -17 LINE",
"668 9 LINE",
"691 4 OFFCURVE",
"715 4 OFFCURVE",
"753 4 CURVE SMOOTH",
"785 4 OFFCURVE",
"938 2 OFFCURVE",
"979 1 CURVE SMOOTH",
"1007 1 OFFCURVE",
"1028 0 OFFCURVE",
"1058 0 CURVE SMOOTH",
"1118 0 LINE",
"1118 98 LINE"
);
},
{
closed = 1;
nodes = (
"972 134 OFFCURVE",
"933 119 OFFCURVE",
"897 109 CURVE SMOOTH",
"874 103 OFFCURVE",
"847 98 OFFCURVE",
"818 98 CURVE SMOOTH",
"703 98 LINE SMOOTH",
"703 98 OFFCURVE",
"733 144 OFFCURVE",
"773 184 CURVE SMOOTH",
"811 222 OFFCURVE",
"847 246 OFFCURVE",
"888 246 CURVE SMOOTH",
"932 246 OFFCURVE",
"972 218 OFFCURVE",
"972 176 CURVE SMOOTH"
);
}
);
width = 1118;
}
);
unicode = FD21;
},
{
glyphname = "tah_alefMaksura-ar";
lastChange = "2015-11-16 02:01:55 +0000";
layers = (
{
layerId = "51F41761-070F-43EA-B302-C90910850260";
name = Regular;
paths = (
{
closed = 1;
nodes = (
"857 346 OFFCURVE",
"835 353 OFFCURVE",
"811 353 CURVE SMOOTH",
"778 353 OFFCURVE",
"743 338 OFFCURVE",
"710 314 CURVE SMOOTH",
"680 292 OFFCURVE",
"651 264 OFFCURVE",
"627 233 CURVE",
"637 315 OFFCURVE",
"633 345 OFFCURVE",
"620 442 CURVE SMOOTH",
"616 469 OFFCURVE",
"614 500 OFFCURVE",
"647 529 CURVE",
"618 560 OFFCURVE",
"598 596 OFFCURVE",
"588 615 CURVE",
"539 539 LINE",
"543 530 OFFCURVE",
"555 501 OFFCURVE",
"564 466 CURVE SMOOTH",
"580 404 OFFCURVE",
"591 302 OFFCURVE",
"598 199 CURVE",
"576 169 OFFCURVE",
"553 124 OFFCURVE",
"548 107 CURVE",
"489 86 OFFCURVE",
"464 76 OFFCURVE",
"451 63 CURVE SMOOTH",
"440 52 OFFCURVE",
"427 28 OFFCURVE",
"420 -12 CURVE",
"432 -13 OFFCURVE",
"454 -17 OFFCURVE",
"473 -22 CURVE SMOOTH",
"519 -34 OFFCURVE",
"543 -51 OFFCURVE",
"543 -69 CURVE SMOOTH",
"543 -95 OFFCURVE",
"494 -121 OFFCURVE",
"464 -134 CURVE SMOOTH",
"432 -148 OFFCURVE",
"373 -170 OFFCURVE",
"290 -170 CURVE SMOOTH",
"212 -170 OFFCURVE",
"160 -151 OFFCURVE",
"132 -116 CURVE SMOOTH",
"105 -83 OFFCURVE",
"109 -41 OFFCURVE",
"119 17 CURVE",
"100 24 LINE",
"84 -17 OFFCURVE",
"74 -55 OFFCURVE",
"71 -89 CURVE SMOOTH",
"68 -123 OFFCURVE",
"72 -151 OFFCURVE",
"83 -177 CURVE SMOOTH",
"98 -213 OFFCURVE",
"124 -239 OFFCURVE",
"160 -257 CURVE SMOOTH",
"196 -275 OFFCURVE",
"237 -283 OFFCURVE",
"282 -283 CURVE SMOOTH",
"343 -283 OFFCURVE",
"404 -268 OFFCURVE",
"457 -240 CURVE SMOOTH",
"489 -223 OFFCURVE",
"527 -195 OFFCURVE",
"550 -168 CURVE SMOOTH",
"573 -141 OFFCURVE",
"590 -106 OFFCURVE",
"590 -70 CURVE SMOOTH",
"590 -10 OFFCURVE",
"545 18 OFFCURVE",
"495 27 CURVE",
"735 91 OFFCURVE",
"816 119 OFFCURVE",
"858 149 CURVE SMOOTH",
"908 185 OFFCURVE",
"920 233 OFFCURVE",
"920 253 CURVE SMOOTH",
"920 259 OFFCURVE",
"913 303 OFFCURVE",
"878 330 CURVE SMOOTH"
);
},
{
closed = 1;
nodes = (
"681 144 OFFCURVE",
"610 124 OFFCURVE",
"597 120 CURVE SMOOTH",
"597 120 OFFCURVE",
"611 156 OFFCURVE",
"642 196 CURVE SMOOTH",
"674 237 OFFCURVE",
"719 276 OFFCURVE",
"778 276 CURVE SMOOTH",
"823 276 OFFCURVE",
"849 254 OFFCURVE",
"865 220 CURVE",
"835 192 OFFCURVE",
"823 188 OFFCURVE",
"762 169 CURVE SMOOTH"
);
}
);
width = 980;
}
);
unicode = FCF5;
},
{
glyphname = "ain_meem-ar";
lastChange = "2015-11-16 02:01:55 +0000";
layers = (
{
layerId = "51F41761-070F-43EA-B302-C90910850260";
name = Regular;
paths = (
{
closed = 1;
nodes = (
"504 330 OFFCURVE",
"448 315 OFFCURVE",
"378 293 CURVE",
"329 319 OFFCURVE",
"297 349 OFFCURVE",
"291 403 CURVE",
"323 426 OFFCURVE",
"352 438 OFFCURVE",
"397 438 CURVE SMOOTH",
"440 438 OFFCURVE",
"472 427 OFFCURVE",
"484 422 CURVE",
"503 440 LINE",
"491 457 OFFCURVE",
"442 503 OFFCURVE",
"391 503 CURVE SMOOTH",
"360 503 OFFCURVE",
"323 486 OFFCURVE",
"293 459 CURVE SMOOTH",
"260 429 OFFCURVE",
"240 390 OFFCURVE",
"240 347 CURVE SMOOTH",
"240 308 OFFCURVE",
"256 286 OFFCURVE",
"292 257 CURVE",
"240 226 OFFCURVE",
"201 187 OFFCURVE",
"184 157 CURVE SMOOTH",
"174 138 OFFCURVE",
"165 119 OFFCURVE",
"162 100 CURVE",
"124 85 OFFCURVE",
"102 75 OFFCURVE",
"84 39 CURVE SMOOTH",
"71 14 OFFCURVE",
"66 -5 OFFCURVE",
"73 -60 CURVE",
"82 -132 OFFCURVE",
"87 -167 OFFCURVE",
"92 -196 CURVE SMOOTH",
"104 -279 OFFCURVE",
"109 -312 OFFCURVE",
"112 -338 CURVE",
"138 -330 LINE",
"136 -257 OFFCURVE",
"132 -212 OFFCURVE",
"126 -157 CURVE SMOOTH",
"124 -132 OFFCURVE",
"112 -35 OFFCURVE",
"105 10 CURVE",
"113 28 OFFCURVE",
"164 39 OFFCURVE",
"221 39 CURVE SMOOTH",
"257 39 OFFCURVE",
"283 33 OFFCURVE",
"307 26 CURVE",
"328 55 OFFCURVE",
"337 77 OFFCURVE",
"343 95 CURVE",
"303 130 OFFCURVE",
"265 143 OFFCURVE",
"242 148 CURVE",
"292 219 OFFCURVE",
"446 256 OFFCURVE",
"515 274 CURVE",
"526 295 OFFCURVE",
"531 309 OFFCURVE",
"540 335 CURVE"
);
}
);
width = 600;
}
);
unicode = FC2A;
},
{
glyphname = "ain_meem-ar.init";
lastChange = "2015-11-16 02:01:55 +0000";
layers = (
{
layerId = "51F41761-070F-43EA-B302-C90910850260";
name = Regular;
paths = (
{
closed = 1;
nodes = (
"440 308 OFFCURVE",
"384 293 OFFCURVE",
"314 271 CURVE",
"265 297 OFFCURVE",
"233 327 OFFCURVE",
"227 381 CURVE",
"259 404 OFFCURVE",
"288 416 OFFCURVE",
"333 416 CURVE SMOOTH",
"376 416 OFFCURVE",
"408 405 OFFCURVE",
"420 400 CURVE",
"439 418 LINE",
"427 435 OFFCURVE",
"378 481 OFFCURVE",
"327 481 CURVE SMOOTH",
"296 481 OFFCURVE",
"259 464 OFFCURVE",
"229 437 CURVE SMOOTH",
"196 407 OFFCURVE",
"176 368 OFFCURVE",
"176 325 CURVE SMOOTH",
"176 286 OFFCURVE",
"192 264 OFFCURVE",
"228 235 CURVE",
"196 225 OFFCURVE",
"142 196 OFFCURVE",
"102 140 CURVE",
"87 121 OFFCURVE",
"76 98 OFFCURVE",
"43 98 CURVE SMOOTH",
"-22 98 LINE SMOOTH",
"-47 98 OFFCURVE",
"-70 81 OFFCURVE",
"-70 49 CURVE SMOOTH",
"-70 20 OFFCURVE",
"-51 0 OFFCURVE",
"-22 0 CURVE SMOOTH",
"9 0 LINE SMOOTH",
"50 0 OFFCURVE",
"76 10 OFFCURVE",
"90 48 CURVE",
"126 -2 OFFCURVE",
"229 -18 OFFCURVE",
"244 -12 CURVE",
"261 0 OFFCURVE",
"288 45 OFFCURVE",
"287 83 CURVE",
"287 120 OFFCURVE",
"271 159 OFFCURVE",
"240 179 CURVE",
"302 212 OFFCURVE",
"372 231 OFFCURVE",
"451 252 CURVE",
"462 273 OFFCURVE",
"467 287 OFFCURVE",
"476 313 CURVE"
);
},
{
closed = 1;
nodes = (
"186 71 OFFCURVE",
"165 81 OFFCURVE",
"129 102 CURVE",
"136 118 OFFCURVE",
"155 142 OFFCURVE",
"182 142 CURVE SMOOTH",
"216 142 OFFCURVE",
"244 106 OFFCURVE",
"233 60 CURVE"
);
}
);
width = 536;
}
);
unicode = FCBB;
},
{
glyphname = "ain_alefMaksura-ar";
lastChange = "2015-11-16 02:01:55 +0000";
layers = (
{
layerId = "51F41761-070F-43EA-B302-C90910850260";
name = Regular;
paths = (
{
closed = 1;
nodes = (
"639 380 OFFCURVE",
"602 363 OFFCURVE",
"572 336 CURVE SMOOTH",
"542 308 OFFCURVE",
"519 270 OFFCURVE",
"519 227 CURVE SMOOTH",
"519 184 OFFCURVE",
"535 163 OFFCURVE",
"571 134 CURVE SMOOTH",
"516 110 OFFCURVE",
"461 84 OFFCURVE",
"447 67 CURVE SMOOTH",
"436 54 OFFCURVE",
"426 29 OFFCURVE",
"420 -6 CURVE",
"500 -17 OFFCURVE",
"543 -49 OFFCURVE",
"543 -70 CURVE SMOOTH",
"543 -93 OFFCURVE",
"491 -120 OFFCURVE",
"463 -132 CURVE SMOOTH",
"440 -142 OFFCURVE",
"371 -169 OFFCURVE",
"289 -169 CURVE SMOOTH",
"214 -169 OFFCURVE",
"158 -146 OFFCURVE",
"132 -114 CURVE SMOOTH",
"105 -81 OFFCURVE",
"109 -39 OFFCURVE",
"119 19 CURVE",
"100 26 LINE",
"84 -15 OFFCURVE",
"74 -53 OFFCURVE",
"71 -87 CURVE SMOOTH",
"68 -121 OFFCURVE",
"72 -149 OFFCURVE",
"83 -175 CURVE SMOOTH",
"98 -211 OFFCURVE",
"124 -237 OFFCURVE",
"160 -255 CURVE SMOOTH",
"196 -273 OFFCURVE",
"237 -281 OFFCURVE",
"282 -281 CURVE SMOOTH",
"343 -281 OFFCURVE",
"404 -266 OFFCURVE",
"457 -238 CURVE SMOOTH",
"491 -220 OFFCURVE",
"524 -196 OFFCURVE",
"550 -165 CURVE SMOOTH",
"574 -137 OFFCURVE",
"590 -103 OFFCURVE",
"590 -65 CURVE SMOOTH",
"590 5 OFFCURVE",
"534 25 OFFCURVE",
"490 37 CURVE",
"564 75 OFFCURVE",
"684 123 OFFCURVE",
"794 151 CURVE",
"805 172 OFFCURVE",
"810 186 OFFCURVE",
"819 212 CURVE",
"783 207 OFFCURVE",
"727 192 OFFCURVE",
"657 170 CURVE SMOOTH",
"608 196 OFFCURVE",
"576 226 OFFCURVE",
"570 280 CURVE",
"602 303 OFFCURVE",
"630 315 OFFCURVE",
"677 315 CURVE SMOOTH",
"718 315 OFFCURVE",
"751 304 OFFCURVE",
"763 299 CURVE",
"782 317 LINE",
"770 334 OFFCURVE",
"721 380 OFFCURVE",
"670 380 CURVE SMOOTH"
);
}
);
width = 879;
}
);
rightKerningGroup = "30";
unicode = FCF7;
},
{
glyphname = "ain_alefMaksura-ar.fina";
lastChange = "2015-11-16 02:01:55 +0000";
layers = (
{
layerId = "51F41761-070F-43EA-B302-C90910850260";
name = Regular;
paths = (
{
closed = 1;
nodes = (
"707 98 LINE SMOOTH",
"682 98 OFFCURVE",
"668 104 OFFCURVE",
"651 118 CURVE",
"651 118 OFFCURVE",
"718 159 OFFCURVE",
"718 202 CURVE SMOOTH",
"718 247 OFFCURVE",
"659 263 OFFCURVE",
"604 263 CURVE SMOOTH",
"559 263 OFFCURVE",
"519 242 OFFCURVE",
"509 237 CURVE",
"501 216 OFFCURVE",
"495 191 OFFCURVE",
"492 165 CURVE",
"526 159 OFFCURVE",
"549 143 OFFCURVE",
"569 115 CURVE",
"554 102 OFFCURVE",
"537 92 OFFCURVE",
"516 83 CURVE SMOOTH",
"498 74 OFFCURVE",
"476 66 OFFCURVE",
"451 57 CURVE SMOOTH",
"433 51 OFFCURVE",
"434 34 OFFCURVE",
"426 -3 CURVE",
"443 -6 OFFCURVE",
"470 -14 OFFCURVE",
"487 -20 CURVE SMOOTH",
"525 -34 OFFCURVE",
"543 -53 OFFCURVE",
"543 -70 CURVE SMOOTH",
"543 -95 OFFCURVE",
"504 -116 OFFCURVE",
"464 -133 CURVE",
"432 -148 OFFCURVE",
"369 -169 OFFCURVE",
"289 -169 CURVE SMOOTH",
"224 -169 OFFCURVE",
"164 -155 OFFCURVE",
"132 -115 CURVE SMOOTH",
"105 -82 OFFCURVE",
"109 -40 OFFCURVE",
"119 18 CURVE",
"100 25 LINE",
"91 2 OFFCURVE",
"76 -37 OFFCURVE",
"71 -81 CURVE SMOOTH",
"68 -112 OFFCURVE",
"70 -146 OFFCURVE",
"83 -177 CURVE SMOOTH",
"96 -208 OFFCURVE",
"120 -236 OFFCURVE",
"159 -256 CURVE SMOOTH",
"192 -273 OFFCURVE",
"235 -282 OFFCURVE",
"281 -282 CURVE SMOOTH",
"341 -282 OFFCURVE",
"404 -267 OFFCURVE",
"458 -239 CURVE SMOOTH",
"510 -212 OFFCURVE",
"546 -175 OFFCURVE",
"567 -137 CURVE SMOOTH",
"583 -108 OFFCURVE",
"589 -81 OFFCURVE",
"589 -61 CURVE SMOOTH",
"589 -11 OFFCURVE",
"553 14 OFFCURVE",
"517 28 CURVE",
"549 42 OFFCURVE",
"574 57 OFFCURVE",
"596 74 CURVE",
"604 51 OFFCURVE",
"619 34 OFFCURVE",
"637 21 CURVE SMOOTH",
"659 7 OFFCURVE",
"685 0 OFFCURVE",
"711 0 CURVE SMOOTH",
"785 0 LINE",
"785 98 LINE"
);
}
);
width = 785;
}
);
unicode = FD13;
},
{
glyphname = "dotlessfeh_alefMaksura-ar";
lastChange = "2015-11-16 02:01:55 +0000";
layers = (
{
layerId = "51F41761-070F-43EA-B302-C90910850260";
name = Regular;
paths = (
{
closed = 1;
nodes = (
"526 364 OFFCURVE",
"435 364 CURVE SMOOTH",
"396 364 OFFCURVE",
"372 331 OFFCURVE",
"361 311 CURVE SMOOTH",
"345 282 OFFCURVE",
"334 243 OFFCURVE",
"334 209 CURVE SMOOTH",
"334 179 OFFCURVE",
"343 154 OFFCURVE",
"361 138 CURVE SMOOTH",
"373 127 OFFCURVE",
"391 117 OFFCURVE",
"426 117 CURVE SMOOTH",
"437 117 OFFCURVE",
"478 118 OFFCURVE",
"503 143 CURVE",
"507 114 OFFCURVE",
"495 90 OFFCURVE",
"471 71 CURVE SMOOTH",
"453 56 OFFCURVE",
"428 47 OFFCURVE",
"398 47 CURVE SMOOTH",
"393 47 OFFCURVE",
"392 21 OFFCURVE",
"389 -4 CURVE",
"409 -6 OFFCURVE",
"443 -12 OFFCURVE",
"473 -20 CURVE SMOOTH",
"524 -34 OFFCURVE",
"543 -50 OFFCURVE",
"543 -67 CURVE SMOOTH",
"543 -93 OFFCURVE",
"494 -119 OFFCURVE",
"464 -132 CURVE SMOOTH",
"432 -146 OFFCURVE",
"373 -168 OFFCURVE",
"290 -168 CURVE SMOOTH",
"212 -168 OFFCURVE",
"160 -149 OFFCURVE",
"132 -114 CURVE SMOOTH",
"105 -81 OFFCURVE",
"109 -39 OFFCURVE",
"119 19 CURVE",
"100 26 LINE",
"84 -15 OFFCURVE",
"74 -53 OFFCURVE",
"71 -87 CURVE SMOOTH",
"68 -121 OFFCURVE",
"72 -149 OFFCURVE",
"83 -175 CURVE SMOOTH",
"98 -211 OFFCURVE",
"124 -237 OFFCURVE",
"160 -255 CURVE SMOOTH",
"196 -273 OFFCURVE",
"237 -281 OFFCURVE",
"282 -281 CURVE SMOOTH",
"343 -281 OFFCURVE",
"404 -266 OFFCURVE",
"457 -238 CURVE SMOOTH",
"489 -221 OFFCURVE",
"527 -193 OFFCURVE",
"550 -166 CURVE SMOOTH",
"573 -139 OFFCURVE",
"590 -104 OFFCURVE",
"590 -68 CURVE SMOOTH",
"590 -13 OFFCURVE",
"551 16 OFFCURVE",
"506 27 CURVE",
"520 39 OFFCURVE",
"531 60 OFFCURVE",
"538 86 CURVE SMOOTH",
"565 188 OFFCURVE"
);
},
{
closed = 1;
nodes = (
"482 208 OFFCURVE",
"462 191 OFFCURVE",
"426 191 CURVE SMOOTH",
"371 191 OFFCURVE",
"366 231 OFFCURVE",
"366 241 CURVE SMOOTH",
"366 257 OFFCURVE",
"378 297 OFFCURVE",
"420 297 CURVE SMOOTH",
"457 297 OFFCURVE",
"479 265 OFFCURVE",
"489 216 CURVE"
);
}
);
width = 650;
}
);
},
